<svg width="60" height="59" fill="none" xmlns="http://www.w3.org/2000/svg"><path fill-rule="evenodd" clip-rule="evenodd" d="M34.022 30.597v1.652h-3.409v-1.652h3.41zm2.492 8.323c-1.243.083-2.681-.164-3.86-.984-1.256-.873-2.04-2.278-2.04-4.101v-1.586h3.408v1.586c0 .82.307 1.2.619 1.416.384.268.984.418 1.646.372h.016l.016-.002c1.497-.076 2.476-1.28 2.476-2.711v-1.652h3.41v1.652c0 2.794-2.016 5.814-5.69 6.01zM29.795 30.597v1.652h-3.409v-1.652h3.409zm-5.9 8.323c-3.676-.196-5.69-3.217-5.69-6.01v-1.652h3.408v1.652c0 1.431.98 2.635 2.476 2.711l.016.001.016.001c.662.046 1.262-.104 1.646-.372.313-.217.619-.596.619-1.416v-1.586h3.409v1.586c0 1.823-.785 3.228-2.04 4.101-1.18.82-2.618 1.067-3.86.984zM15.402 19.485l1.065 1.29c.174.21.595.541 1.407.909.785.354 1.816.69 3.061.978 2.49.576 5.695.93 9.201.93 3.374 0 6.455-.322 8.892-.838 2.533-.536 4.08-1.225 4.675-1.76l1.25-1.125 2.32 2.422-1.25 1.124c-1.313 1.182-3.653 2.014-6.267 2.567-2.711.574-6.04.914-9.62.914-3.72 0-7.198-.373-9.992-1.02-1.396-.323-2.659-.723-3.71-1.198-1.025-.463-1.984-1.057-2.629-1.838l-1.065-1.29 2.662-2.065z" fill="#00A88E"/><path fill-rule="evenodd" clip-rule="evenodd" d="M46.182 17.22l-1.157 1.214c-.638.67-1.53 1.179-2.473 1.575-.968.406-2.112.744-3.368 1.015-2.514.544-5.607.85-8.911.85-3.24 0-6.229-.307-8.685-.832-2.386-.51-4.503-1.274-5.788-2.342l-1.294-1.075 2.218-2.509 1.295 1.076c.624.518 2.053 1.142 4.303 1.623 2.18.466 4.918.754 7.951.754 3.106 0 5.944-.289 8.169-.77 1.113-.24 2.04-.522 2.755-.822.74-.31 1.143-.595 1.323-.784l1.157-1.214 2.505 2.241z" fill="#00A88E"/><path fill-rule="evenodd" clip-rule="evenodd" d="M47.206 32.822l10.469 9.241-10.34 7.043 2.79 3.347-2.653 2.076-5.08-6.095 9.842-6.704-7.324-6.465 2.296-2.443zM15.499 35.265L8.175 41.73l9.842 6.704-5.08 6.095-2.652-2.076 2.79-3.347-10.34-7.043 10.468-9.24 2.296 2.442zM19.24 4.714c1.088-1.198 2.53-2.137 4.352-2.137 1.706 0 2.979.652 3.91 1.127l.105.055c.974.496 1.629.8 2.53.8.901 0 1.556-.304 2.53-.8l.106-.055c.93-.475 2.203-1.127 3.91-1.127 1.797 0 3.23.89 4.32 2.07 1.072 1.158 1.927 2.708 2.64 4.366 1.297 3.019 2.288 6.807 3.166 10.218 2.5.577 4.686 1.302 6.31 2.171.922.493 1.76 1.083 2.36 1.8.6.719 1.008 1.63.907 2.672-.051 1.722-1.375 2.97-2.724 3.808-1.455.902-3.449 1.654-5.761 2.262-4.649 1.22-10.976 1.957-17.9 1.957-6.925 0-13.252-.737-17.9-1.958-2.313-.607-4.306-1.359-5.762-2.262-1.376-.853-2.725-2.135-2.725-3.908 0-1.045.48-1.93 1.115-2.626.627-.686 1.469-1.261 2.404-1.752 1.646-.863 3.827-1.586 6.327-2.163.826-3.257 1.813-7.02 3.12-10.069.72-1.68 1.585-3.262 2.66-4.449zm-2.673 16.112l-.302 1.19-1.044.218c-2.788.579-4.998 1.298-6.466 2.068-.735.385-1.206.742-1.474 1.036-.258.282-.258.42-.258.434 0 .01.032.43 1.154 1.126 1.041.646 2.661 1.29 4.815 1.856C17.275 29.88 23.289 30.597 30 30.597c6.711 0 12.725-.718 17.008-1.843 2.154-.565 3.774-1.21 4.816-1.856 1.121-.695 1.153-1.115 1.153-1.125v-.103l.013-.102c0-.005.002-.016-.008-.044a.836.836 0 00-.153-.242c-.219-.26-.642-.604-1.358-.987-1.425-.763-3.627-1.482-6.42-2.062l-1.038-.215-.258-1-.147-.57c-.922-3.578-1.877-7.287-3.114-10.165-.65-1.514-1.33-2.673-2.03-3.431-.683-.738-1.262-.97-1.783-.97-.819 0-1.423.288-2.427.8l-.038.02c-.965.492-2.277 1.162-4.08 1.162s-3.115-.67-4.08-1.162l-.038-.02c-1.004-.512-1.608-.8-2.427-.8-.498 0-1.083.234-1.79 1.014-.719.792-1.413 1.993-2.074 3.535-1.297 3.026-2.277 6.9-3.161 10.395z" fill="#1D1D1B"/><path fill-rule="evenodd" clip-rule="evenodd" d="M49.022 30.729v1.652c0 1.342-.489 2.825-1.238 4.016-.564.895-1.433 1.865-2.6 2.356-1.45 3.44-3.205 7.036-5.431 9.836-2.387 3.002-5.536 5.35-9.652 5.269-4.086-.081-7.241-2.513-9.617-5.5-2.212-2.783-3.929-6.266-5.268-9.48-1.181-.509-2.048-1.52-2.599-2.409-.736-1.19-1.231-2.67-1.231-3.956v-1.652h3.409v1.652c0 .564.255 1.463.746 2.256.525.849 1.015 1.105 1.2 1.13l.983.137.362.896c1.347 3.33 3.016 6.789 5.099 9.408 2.09 2.63 4.39 4.163 6.986 4.214 2.565.051 4.803-1.368 6.882-3.982 2.08-2.617 3.782-6.17 5.273-9.782l.366-.887.975-.135c.212-.03.699-.285 1.207-1.092.478-.759.739-1.654.739-2.295v-1.652h3.41z" fill="#1D1D1B"/></svg>