<svg id="icons" xmlns="http://www.w3.org/2000/svg" xmlns:xlink="http://www.w3.org/1999/xlink" viewBox="0 0 56 62"><defs><style>.cls-1{fill:none;}.cls-2{clip-path:url(#clip-path);}.cls-3{fill:#58595b;}.cls-4{fill:#00a88e;}</style><clipPath id="clip-path"><rect class="cls-1" width="56" height="62"/></clipPath></defs><title>k_Endpoint_Security_for_Business</title><g id="Kaspersky_Industrial_CyberSecurity" data-name="Kaspersky Industrial CyberSecurity"><g class="cls-2"><polygon class="cls-3" points="19.5 35.848 19.5 26.151 28 21.294 36.5 26.151 36.5 35.848 28 40.705 19.5 35.848"/><polygon class="cls-3" points="39 26.146 39 37.299 29.25 42.872 29.25 49.781 45 40.781 45 22.664 39 26.146"/><polygon class="cls-3" points="18.255 23.984 28 18.416 37.745 23.984 43.745 20.502 28 11.505 12.255 20.502 18.255 23.984"/><polygon class="cls-3" points="26.75 42.872 17 37.3 17 26.146 11 22.664 11 40.781 26.75 49.781 26.75 42.872"/><g class="cls-2"><path class="cls-4" d="M28,2a4.6,4.6,0,0,1,2.277.6l21.41,12.235A4.6,4.6,0,0,1,54,18.824V43.175a4.6,4.6,0,0,1-2.313,3.986L30.277,59.4a4.587,4.587,0,0,1-4.554,0L4.313,47.161A4.6,4.6,0,0,1,2,43.175V18.824a4.6,4.6,0,0,1,2.313-3.985L25.723,2.6A4.6,4.6,0,0,1,28,2m0-2a6.594,6.594,0,0,0-3.27.868L3.32,13.1A6.588,6.588,0,0,0,0,18.824V43.175A6.589,6.589,0,0,0,3.32,48.9L24.73,61.131a6.587,6.587,0,0,0,6.54,0L52.68,48.9A6.591,6.591,0,0,0,56,43.175V18.824A6.591,6.591,0,0,0,52.68,13.1L31.27.868A6.6,6.6,0,0,0,28,0"/></g></g></g></svg>