<?xml version="1.0" standalone="no"?>
<!DOCTYPE svg PUBLIC "-//W3C//DTD SVG 1.1//EN" "http://www.w3.org/Graphics/SVG/1.1/DTD/svg11.dtd" >
<svg xmlns="http://www.w3.org/2000/svg">
<metadata></metadata>
<defs>
<font id="titrregular" horiz-adv-x="1024" >
<font-face units-per-em="2048" ascent="1638" descent="-410" />
<missing-glyph horiz-adv-x="500" />
<glyph unicode="&#x651;&#x64b;" horiz-adv-x="640" d="M551 1540q-47 -11 -183 -81q-126 -65 -148 -65q-42 0 -94 77q-21 31 -56 72h59q27 0 61.5 -32t44.5 -32q48 0 48 39q0 67 -64 105h61q29 0 49 -31q36 -54 48 -54q45 0 45 48q0 52 -52 80l51 4q43 3 72 -47q38 -68 58 -83zM640 1462q-34 -11 -212 -94q-156 -73 -201 -73 h-100q8 4 212 97q153 70 200 70h101z" />
<glyph unicode="&#x674;&#x64e;" horiz-adv-x="621" d="M583 1686q-34 -11 -212 -94q-156 -73 -201 -73h-100q8 4 212 97q153 70 200 70h101zM459 1521q-18 -10 -53 -40l-26 -32q-12 -15 -12 -20q0 -11 13 -23l46 -44q20 -19 20 -43q0 -25 -15 -40l-72 -70q-32 -31 -88 -31q-25 0 -41 8q26 5 48 31l26 30q19 22 19 34 q0 8 -18 26l-37 37q-25 25 -25 47q0 24 26 49l61 58q27 26 89 26q17 0 39 -3z" />
<glyph unicode="&#x674;&#x64b;" horiz-adv-x="621" d="M545 1797q-34 -11 -212 -94q-156 -73 -201 -73h-100q8 4 212 97q153 70 200 70h101zM583 1686q-34 -11 -212 -94q-156 -73 -201 -73h-100q8 4 212 97q153 70 200 70h101zM459 1521q-18 -10 -53 -40l-26 -32q-12 -15 -12 -20q0 -11 13 -23l46 -44q20 -19 20 -43 q0 -25 -15 -40l-72 -70q-32 -31 -88 -31q-25 0 -41 8q26 5 48 31l26 30q19 22 19 34q0 8 -18 26l-37 37q-25 25 -25 47q0 24 26 49l61 58q27 26 89 26q17 0 39 -3z" />
<glyph unicode="&#x674;&#x652;" horiz-adv-x="621" d="M363 1637q0 -50 -38.5 -83.5t-89.5 -33.5q-48 0 -86 29q-42 31 -42 78q0 50 64 116l84 86q0 -40 54 -99t54 -93zM439 1521q-18 -10 -53 -40l-26 -32q-12 -15 -12 -20q0 -11 13 -23l46 -44q20 -19 20 -43q0 -25 -15 -40l-72 -70q-32 -31 -88 -31q-25 0 -41 8q26 5 48 31 l26 30q19 22 19 34q0 8 -18 26l-37 37q-25 25 -25 47q0 24 26 49l61 58q27 26 89 26q17 0 39 -3zM297 1629q0 25 -66 94l-38 -42q-20 -22 -20 -44q0 -56 60 -56q21 0 42.5 14t21.5 34z" />
<glyph unicode="&#x674;&#x64f;" horiz-adv-x="621" d="M491 1654q0 -45 -74 -78q41 -36 72 -55q-18 -10 -53 -40l-26 -32q-12 -15 -12 -20q0 -11 13 -23l46 -44q20 -19 20 -43q0 -25 -15 -40l-72 -70q-32 -31 -88 -31q-25 0 -41 8q26 5 48 31l26 30q19 22 19 34q0 8 -18 26l-37 37q-25 25 -25 47q0 24 26 49l61 58q24 23 45 26 q-10 2 -44 26l-99 -49q-69 -34 -121 -34h-92q108 41 257 123l-26 24q-36 33 -36 66q0 37 38 67l120 95q0 -25 44 -94t44 -94zM422 1664q0 56 -56 56q-51 0 -51 -41q0 -15 54 -59q53 31 53 44z" />
<glyph unicode="&#x674;&#x64c;" horiz-adv-x="621" d="M491 1654q0 -45 -74 -78q41 -36 72 -55q-18 -10 -53 -40l-26 -32q-12 -15 -12 -20q0 -11 13 -23l46 -44q20 -19 20 -43q0 -25 -15 -40l-72 -70q-32 -31 -88 -31q-25 0 -41 8q26 5 48 31l26 30q19 22 19 34q0 8 -18 26l-37 37q-25 25 -25 47q0 24 26 49l61 58q24 23 45 26 q-11 2 -44 25q-147 -82 -213 -82v83q-46 -20 -98 -20h-66q48 20 180 86l54 29v-96q32 12 90 40l-28 25q-36 32 -36 66q0 37 38 67l120 95q0 -25 44 -94t44 -94zM422 1664q0 56 -56 56q-51 0 -51 -41q0 -15 54 -59q53 31 53 44z" />
<glyph unicode="&#x651;&#x64c;" horiz-adv-x="621" arabic-form="isolated" d="M621 1816q-47 -11 -183 -81q-126 -65 -148 -65q-42 0 -94 77q-21 31 -56 72h59q27 0 61.5 -32t44.5 -32q48 0 48 39q0 67 -64 105h61q29 0 49 -31q36 -54 48 -54q45 0 45 48q0 50 -52 78q-12 5 -44 30q-147 -82 -213 -82v83q-46 -20 -98 -20h-66q48 20 180 86l54 29v-96 q32 12 90 40l-28 25q-36 32 -36 66q0 37 38 67l120 95q0 -25 44 -94t44 -94q0 -45 -74 -78l58 -52q30 -2 56 -51q33 -61 56 -78zM456 2085q0 56 -56 56q-51 0 -51 -41q0 -15 54 -59q53 31 53 44z" />
<glyph unicode="&#x651;&#x64d;" horiz-adv-x="678" arabic-form="isolated" d="M551 2026q-47 -11 -183 -81q-126 -65 -148 -65q-42 0 -94 77q-21 31 -56 72h59q27 0 61.5 -32t44.5 -32q48 0 48 39q0 67 -64 105h61q29 0 49 -31q36 -54 48 -54q45 0 45 48q0 52 -52 80l51 4q43 3 72 -47q38 -68 58 -83zM640 1948q-34 -11 -212 -94q-156 -73 -201 -73 h-100q8 4 212 97q153 70 200 70h101zM678 1837q-34 -11 -212 -94q-156 -73 -201 -73h-100q8 4 212 97q153 70 200 70h101z" />
<glyph unicode="&#x651;&#x64e;" horiz-adv-x="621" arabic-form="isolated" d="M583 2061q-34 -11 -212 -94q-156 -73 -201 -73h-100q8 4 212 97q153 70 200 70h101zM621 1816q-47 -11 -183 -81q-126 -65 -148 -65q-42 0 -94 77q-21 31 -56 72h59q27 0 61.5 -32t44.5 -32q48 0 48 39q0 67 -64 105h61q29 0 49 -31q36 -54 48 -54q45 0 45 48 q0 52 -52 80l51 4q43 3 72 -47q38 -68 58 -83z" />
<glyph unicode="&#x651;&#x64f;" horiz-adv-x="621" arabic-form="isolated" d="M621 1816q-47 -11 -183 -81q-126 -65 -148 -65q-42 0 -94 77q-21 31 -56 72h59q27 0 61.5 -32t44.5 -32q48 0 48 39q0 67 -64 105h61q29 0 49 -31q36 -54 48 -54q45 0 45 48q0 50 -52 78q-13 5 -45 31q-11 -4 -99 -49q-67 -34 -120 -34h-92q108 41 257 123l-26 24 q-36 33 -36 66q0 37 38 67l120 95q0 -25 44 -94t44 -94q0 -45 -74 -78l58 -52q30 -2 56 -51q33 -61 56 -78zM456 2085q0 56 -56 56q-51 0 -51 -41q0 -15 54 -59q53 31 53 44z" />
<glyph unicode="&#x651;&#x650;" horiz-adv-x="640" arabic-form="isolated" d="M551 1915q-47 -11 -183 -81q-126 -65 -148 -65q-42 0 -94 77q-21 31 -56 72h59q27 0 61.5 -32t44.5 -32q48 0 48 39q0 67 -64 105h61q29 0 49 -31q36 -54 48 -54q45 0 45 48q0 52 -52 80l51 4q43 3 72 -47q38 -68 58 -83zM640 1837q-34 -11 -212 -94q-156 -73 -201 -73 h-100q8 4 212 97q153 70 200 70h101z" />
<glyph unicode="&#x640;&#x651;&#x64e;" horiz-adv-x="1033" arabic-form="medial" d="M743 1686q-34 -11 -212 -94q-156 -73 -201 -73h-100q8 4 212 97q153 70 200 70h101zM781 1441q-47 -11 -183 -81q-126 -65 -148 -65q-42 0 -94 77q-21 31 -56 72h59q27 0 61.5 -32t44.5 -32q48 0 48 39q0 67 -64 105h61q29 0 49 -31q36 -54 48 -54q45 0 45 48 q0 52 -52 80l51 4q43 3 72 -47q38 -68 58 -83zM1103 129h-1103v150h1103v-150z" />
<glyph unicode="&#x640;&#x651;&#x64f;" horiz-adv-x="1033" arabic-form="medial" d="M781 1441q-47 -11 -183 -81q-126 -65 -148 -65q-42 0 -94 77q-21 31 -56 72h59q27 0 61.5 -32t44.5 -32q48 0 48 39q0 67 -64 105h61q29 0 49 -31q36 -54 48 -54q45 0 45 48q0 50 -52 78q-13 5 -45 31q-11 -4 -99 -49q-67 -34 -120 -34h-92q108 41 257 123l-26 24 q-36 33 -36 66q0 37 38 67l120 95q0 -25 44 -94t44 -94q0 -45 -74 -78l58 -52q30 -2 56 -51q33 -61 56 -78zM616 1710q0 56 -56 56q-51 0 -51 -41q0 -15 54 -59q53 31 53 44zM1103 129h-1103v150h1103v-150z" />
<glyph unicode="&#x640;&#x651;&#x650;" horiz-adv-x="1033" arabic-form="medial" d="M751 1540q-47 -11 -183 -81q-126 -65 -148 -65q-42 0 -94 77q-21 31 -56 72h59q27 0 61.5 -32t44.5 -32q48 0 48 39q0 67 -64 105h61q29 0 49 -31q36 -54 48 -54q45 0 45 48q0 52 -52 80l51 4q43 3 72 -47q38 -68 58 -83zM840 1462q-34 -11 -212 -94q-156 -73 -201 -73 h-100q8 4 212 97q153 70 200 70h101zM1103 129h-1103v150h1103v-150z" />
<glyph unicode="&#xfe8e;&#x64b;" horiz-adv-x="420" arabic-form="final" d="M490 129h-305v818q0 63 -115 267q68 0 220 176v-996q0 -23 42 -69t65 -46h93v-150zM400 1677q-34 -11 -212 -94q-156 -73 -201 -73h-100q8 4 212 97q153 70 200 70h101zM438 1566q-34 -11 -212 -94q-156 -73 -201 -73h-100q8 4 212 97q153 70 200 70h101z" />
<glyph unicode="&#xfe8d;&#x64b;" horiz-adv-x="606" arabic-form="isolated" d="M586 155q-19 -26 -146 -26q-130 0 -183 31q-72 42 -72 161v626q0 63 -115 267q77 0 220 176v-958q0 -107 51 -164q41 -46 139 -82q38 -10 106 -31zM400 1677q-34 -11 -212 -94q-156 -73 -201 -73h-100q8 4 212 97q153 70 200 70h101zM438 1566q-34 -11 -212 -94 q-156 -73 -201 -73h-100q8 4 212 97q153 70 200 70h101z" />
<glyph unicode="&#xfedf;&#xfee0;&#xfed4;" horiz-adv-x="1099" arabic-form="isolated" d="M572 1359l-27 -33q-24 90 -47 132q-30 54 -94 104l-23 135q102 -53 143 -140q26 -56 48 -198zM736 1212q0 -54 -22 -97q-27 -53 -76 -53q-37 0 -66 24q-46 -98 -107 -98q-37 0 -59 37q-19 31 -19 71q0 26 19 101l12 2q0 -100 56 -100q79 0 79 156l17 6q4 -28 23 -58 q21 -35 45 -35q76 0 61 154l14 10q23 -62 23 -120zM1037 350q0 -81 -30 -141q-38 -76 -111 -76q-83 0 -152 138q-61 -166 -191 -166q-80 0 -128 49q-36 37 -68 121q-38 -105 -156 -105q-54 0 -96 26q-50 30 -50 81q0 191 259 299q0 84 17.5 121t84.5 94l31 -305 q8 -79 24 -110q27 -52 93 -52q39 0 69.5 25t30.5 63q0 65 -37 190.5t-37 190.5q0 74 86 189q35 -166 71 -332q80 -302 163 -302l18 9q11 25 11 30q0 73 -49.5 212t-49.5 211q0 49 76 174l80 -314q41 -181 41 -320zM332 404l-6 82q-43 -10 -94 -33q-68 -31 -68 -55 q18 -32 82 -32q37 0 86 38z" />
<glyph unicode="&#x640;&#x64b;" horiz-adv-x="1033" arabic-form="medial" d="M754 1573q-34 -11 -212 -94q-156 -73 -201 -73h-100q8 4 212 97q153 70 200 70h101zM792 1462q-34 -11 -212 -94q-156 -73 -201 -73h-100q8 4 212 97q153 70 200 70h101zM1103 129h-1103v150h1103v-150z" />
<glyph unicode="&#x640;&#x64e;" horiz-adv-x="1033" arabic-form="medial" d="M773 1462q-34 -11 -212 -94q-156 -73 -201 -73h-100q8 4 212 97q153 70 200 70h101zM1103 129h-1103v150h1103v-150z" />
<glyph unicode="&#x640;&#x64f;" horiz-adv-x="1033" arabic-form="medial" d="M737 1482q0 -45 -74 -78l58 -52h-44q-33 0 -70 26q-11 -4 -99 -49q-67 -34 -120 -34h-92q108 41 257 123l-26 24q-36 33 -36 66q0 37 38 67l120 95q0 -25 44 -94t44 -94zM668 1492q0 56 -56 56q-51 0 -51 -41q0 -15 54 -59q53 31 53 44zM1103 129h-1103v150h1103v-150z " />
<glyph unicode="&#x640;&#x650;" horiz-adv-x="1033" arabic-form="medial" d="M773 -230q-34 -11 -212 -94q-156 -73 -201 -73h-100q8 4 212 97q153 70 200 70h101zM1103 129h-1103v150h1103v-150z" />
<glyph unicode="&#x640;&#x651;" horiz-adv-x="1033" arabic-form="medial" d="M757 1441q-47 -11 -183 -81q-126 -65 -148 -65q-42 0 -94 77q-21 31 -56 72h59q27 0 61.5 -32t44.5 -32q48 0 48 39q0 67 -64 105h61q29 0 49 -31q36 -54 48 -54q45 0 45 48q0 52 -52 80l51 4q43 3 72 -47q38 -68 58 -83zM1103 129h-1103v150h1103v-150z" />
<glyph unicode="&#x640;&#x652;" horiz-adv-x="1033" arabic-form="medial" d="M645 1412q0 -50 -38.5 -83.5t-89.5 -33.5q-48 0 -86 29q-42 31 -42 78q0 50 64 116l84 86q0 -40 54 -99t54 -93zM579 1404q0 22 -22 47l-44 47q-58 -61 -58 -86q0 -56 60 -56q21 0 42.5 14t21.5 34zM1103 129h-1103v150h1103v-150z" />
<glyph unicode="&#xfedf;&#xfe82;" horiz-adv-x="1152" arabic-form="isolated" d="M330 1480q-45 0 -131.5 20.5t-130.5 20.5q-42 0 -123 -55q-17 6 -17 23q0 52 67.5 115.5t120.5 63.5q52 0 153.5 -22.5t153.5 -22.5t152.5 30t147.5 30q30 0 30 -21q0 -60 -180 -125q-160 -57 -243 -57zM208 896q-13 -53 -38 -78q-33 28 -79 98.5t-59 113.5 q50 132 51 135q35 86 65 122q25 -2 219 -230q198 -232 338 -558q110 149 110 321q0 44 -19.5 129t-19.5 128q0 25 54.5 110t77.5 97q27 -21 101.5 -126t90.5 -143l-27 -13l-68 9q0 -359 -264 -601q35 -100 35 -171q0 -277 -506 -277q-88 0 -88 41q0 11 90 256 q227 71 336 155q-184 311 -400 482zM645 340q-114 -69 -296 -142q41 -11 110 -11h68q114 0 162 54q0 43 -44 99z" />
<glyph unicode="&#xfee0;&#xfe82;" horiz-adv-x="1259" arabic-form="final" d="M360 1480q-45 0 -131.5 20.5t-130.5 20.5q-42 0 -123 -55l-14 7l-3 16q90 179 188 179q52 0 153.5 -22.5t153.5 -22.5t152.5 30t147.5 30q30 0 30 -21q0 -60 -180 -125q-160 -57 -243 -57zM164 1303q31 -12 78 -50q53 -42 77 -54q44 -20 133 -61q25 -11 68 -41 q-1 -28 -106 -45q231 -252 271 -650q138 174 231 389q89 208 114 377q20 133 46 133q35 0 35 -101q0 -111 -10 -332.5t-10 -332.5q0 -253 167 -239v-296h-19q-276 0 -276 315q0 -19 16 442q-76 -183 -187 -389q-151 -281 -231 -328q-63 -37 -244 -37q-262 0 -263 37 q50 44 260 147q234 115 299 158q0 308 -454 623q-32 22 -62 53q2 51 24 144t43 138z" />
<glyph unicode="&#xfedf;&#xfe84;" horiz-adv-x="1173" arabic-form="isolated" d="M192 1370q-104 32 -104 75q0 55 75 129t130 74q24 0 52 -26q25 -23 34 -48q-57 -14 -115 -27q-82 -24 -82 -57q0 -48 105 -48q26 0 74 19.5t74 19.5l19 -13q-10 -33 -16 -48q-14 -32 -30 -40q-136 -69 -311 -162q-18 7 -18 22q0 51 113 130zM281 821q-13 -53 -38 -78 q-31 1 -145 213q8 36 68 131q63 100 87 100q21 0 183.5 -205t290.5 -498q110 148 110 321q0 44 -19 128.5t-19 128.5q0 25 53.5 108t77.5 99q31 -25 103.5 -127.5t88.5 -142.5l-26 -12q-23 0 -69 9q0 -348 -263 -601q35 -100 35 -171q0 -156 -176 -227q-125 -50 -310 -50 q-109 0 -109 41q0 7 91 255q212 72 335 155q-165 286 -349 423zM667 325q-114 -69 -296 -142q39 -11 110 -11h68q113 0 162 53q0 43 -44 100z" />
<glyph unicode="&#xfee0;&#xfe84;" horiz-adv-x="1259" arabic-form="final" d="M191 1377q-104 32 -104 75q0 56 74.5 129.5t130.5 73.5q24 0 52 -26q25 -23 34 -48q-57 -14 -115 -27q-82 -24 -82 -57q0 -47 105 -47q26 0 74 19.5t74 19.5l19 -14q-15 -53 -46 -88q-17 -9 -144 -67q-87 -40 -138 -79q-15 -12 -29 -16q-18 7 -18 22q0 51 113 130z M977 732q-68 -178 -183 -388q-151 -275 -245 -321q-79 -39 -231 -39q-264 0 -264 36q55 47 262 148q230 112 297 157v41q0 132 -90 243q-57 69 -196 172q-144 106 -191 160q0 45 33.5 132.5t61.5 122.5q29 -17 169 -84q109 -53 159 -94q0 -30 -106 -46q122 -138 169 -274 q34 -95 63 -316q106 133 233 393q80 164 112 373q20 134 46 134q36 0 36 -70q0 -113 -10.5 -338.5t-10.5 -338.5q0 -252 167 -239v-296h-18q-135 0 -208 88q-68 81 -68 219q0 9 13 425z" />
<glyph unicode="&#xfedf;&#xfe88;" horiz-adv-x="1152" arabic-form="isolated" d="M207 897q-12 -53 -38 -78q-24 21 -79 101q-59 87 -59 110q0 30 47 132q45 95 69 126q27 -1 222 -233q189 -224 335 -555q110 146 110 320q0 44 -19 129t-19 129q0 25 53.5 108t77.5 99q24 -18 102.5 -128.5t89.5 -141.5l-26 -12q-25 0 -69 9q0 -348 -263 -601 q35 -100 35 -171q0 -157 -175 -228q-125 -50 -311 -50q-109 0 -109 42q0 16 91 255q212 72 335 155q-192 319 -400 483zM644 341q-121 -68 -296 -143q42 -11 130 -11q45 0 118 14q92 17 92 40q0 43 -44 100zM254 -489q-104 27 -104 75q0 57 74 130t131 73q21 0 49 -26 t37 -48q-58 -14 -115 -28q-83 -23 -83 -56q0 -48 128 -48q23 0 65 17.5t65 17.5l15 -9q-19 -70 -46 -97q-49 -15 -144 -51q-56 -35 -169 -97q-15 5 -15 20q0 48 112 127z" />
<glyph unicode="&#xfee0;&#xfe88;" horiz-adv-x="1259" arabic-form="final" d="M164 1303q31 -12 78 -50q53 -42 77 -54q44 -20 133 -61q25 -11 68 -41q-1 -28 -106 -45q231 -252 271 -650q105 133 233 393q82 167 112 373q5 39 10 77q12 56 36 56q35 0 35 -77q0 -115 -10 -344.5t-10 -344.5q0 -253 167 -239v-296h-18q-277 0 -277 318q0 68 17 439 q-84 -195 -187 -388q-150 -279 -233 -329q-62 -37 -242 -37q-263 0 -264 37q50 44 260 147q234 115 299 158q0 308 -454 623q-32 22 -62 53q1 42 25 149q25 115 42 133zM254 -489q-104 27 -104 75q0 57 74 130t131 73q21 0 49 -26t37 -48q-58 -14 -115 -28q-83 -23 -83 -56 q0 -48 128 -48q23 0 65 17.5t65 17.5l15 -9q-19 -70 -46 -97q-49 -15 -144 -51q-56 -35 -169 -97q-15 5 -15 20q0 48 112 127z" />
<glyph unicode="&#xfedf;&#xfe8e;" horiz-adv-x="1152" arabic-form="isolated" d="M207 897q-12 -53 -38 -78q-24 21 -79 101q-59 87 -59 110q0 30 47 132q45 95 69 126q27 -1 222 -233q189 -224 335 -555q110 146 110 320q0 44 -19 129t-19 129q0 25 53.5 108t77.5 99q24 -18 102.5 -128.5t89.5 -141.5l-26 -12q-25 0 -69 9q0 -348 -263 -601 q35 -100 35 -171q0 -157 -175 -228q-125 -50 -311 -50q-109 0 -109 42q0 16 91 255q212 72 335 155q-192 319 -400 483zM644 341q-121 -68 -296 -143q42 -11 130 -11q45 0 118 14q92 17 92 40q0 43 -44 100z" />
<glyph unicode="&#xfee0;&#xfe8e;" horiz-adv-x="1259" arabic-form="final" d="M164 1303q31 -12 78 -50q53 -42 77 -54q44 -20 133 -61q25 -11 68 -41q-1 -28 -106 -45q231 -252 271 -650q105 133 233 393q82 167 112 373q5 39 10 77q12 56 36 56q35 0 35 -77q0 -115 -10 -344.5t-10 -344.5q0 -253 167 -239v-296h-18q-277 0 -277 318q0 68 17 439 q-84 -195 -187 -388q-150 -279 -233 -329q-62 -37 -242 -37q-263 0 -264 37q50 44 260 147q234 115 299 158q0 308 -454 623q-32 22 -62 53q1 42 25 149q25 115 42 133z" />
<glyph unicode="&#x671;" horiz-adv-x="500" arabic-form="isolated" />
<glyph unicode="&#x671;" horiz-adv-x="500" arabic-form="final" />
<glyph unicode="&#x67e;" horiz-adv-x="1707" arabic-form="isolated" d="M1467 855q67 -11 124 -156q49 -126 49 -216q0 -344 -287 -472q-193 -86 -588 -86q-315 0 -462 60q-232 95 -232 362q0 70 21 175q27 136 65 136q24 0 24 -54q0 -24 -5 -64t-5 -45q0 -269 637 -269q211 0 397 22q311 36 311 120q0 41 -72 119l-106 106q9 34 58.5 135 t70.5 127zM871 -574l127 -141l-125 -135l-124 139zM756 -316l118 -129l117 127l128 -138l-128 -136l-115 127l-120 -127l-127 138z" />
<glyph unicode="&#x67e;" horiz-adv-x="1941" arabic-form="final" d="M1632 237q-135 -206 -416 -315q-242 -94 -521 -94q-274 0 -413 73q-189 100 -189 348q0 73 20 171q27 130 69 130q21 0 21 -58q0 -23 -3.5 -60t-3.5 -40q0 -273 522 -273q587 0 921 319q52 50 83 69q26 2 26 -26q0 -16 -15.5 -50.5t-15.5 -50.5q0 -84 225 -84v-296h-43 q-216 0 -267 237zM871 -574l127 -141l-125 -135l-124 139zM756 -316l118 -129l117 127l128 -138l-128 -136l-115 127l-120 -127l-127 138z" />
<glyph unicode="&#x67e;" horiz-adv-x="576" arabic-form="initial" d="M271 -384l127 -141l-125 -135l-124 139zM156 -126l118 -129l117 127l128 -138l-128 -136l-115 127l-120 -127l-127 138zM290 820q132 -138 132 -384q0 -436 -391 -436h-50v296q328 0 328 74q0 33 -77 114q-84 89 -94 116q16 43 67.5 117.5t84.5 102.5z" />
<glyph unicode="&#x67e;" horiz-adv-x="576" arabic-form="medial" d="M-89 296q180 0 248 48q44 30 62 112q21 92 55 131q38 -35 51 -121.5t56 -118.5q69 -51 263 -51v-296q-163 0 -237 40q-94 51 -131 195q-42 -147 -130 -196q-72 -39 -237 -39v296zM271 -384l127 -141l-125 -135l-124 139zM156 -126l118 -129l117 127l128 -138l-128 -136 l-115 127l-120 -127l-127 138z" />
<glyph unicode="&#x6a4;" horiz-adv-x="500" arabic-form="isolated" />
<glyph unicode="&#x6a4;" horiz-adv-x="500" arabic-form="final" />
<glyph unicode="&#x6a4;" horiz-adv-x="500" arabic-form="initial" />
<glyph unicode="&#x6a4;" horiz-adv-x="500" arabic-form="medial" />
<glyph unicode="&#x686;" horiz-adv-x="1493" arabic-form="isolated" d="M807 501q-317 54 -403 54q-71 0 -127 -45q-51 -43 -102 -87q-24 -2 -24 31q0 99 103 217q107 123 208 123q64 0 153 -17q76 -15 152 -29.5t465 -38.5l30 -2q136 -9 150 -28l-70 -148q-24 -44 -65 -53q-29 -6 -157 -6q-287 0 -494 -137q-238 -157 -238 -430 q0 -221 192 -325q151 -82 392 -82q63 0 187.5 17.5t184.5 17.5q23 0 23 -24q0 -57 -261 -99q-203 -33 -321 -33q-262 0 -450 110q-227 133 -227 377q0 462 699 637zM811 -64l127 -141l-125 -135l-124 139zM696 194l118 -129l117 127l128 -138l-128 -136l-115 127l-120 -127 l-127 138z" />
<glyph unicode="&#x686;" horiz-adv-x="1493" arabic-form="final" d="M796 497q-300 57 -407 57q-52 0 -111 -49q-46 -42 -93 -84q-23 -1 -23 32q0 108 100 222q105 120 220 120q89 0 250 -33q179 -37 253 -42q106 -6 211 -11q172 -13 187 -34q-63 -156 -76 -170q-35 -36 -173 -37q-74 0 -76 -1q-44 -7 -44 -46q0 -129 335 -129q9 0 144 4 v-296h-177q-236 0 -317 114q-69 96 -62 341q-221 -39 -371 -175q-169 -151 -169 -363q0 -226 180 -333q146 -87 388 -87q179 0 359 34q22 4 22 -23q0 -55 -255 -100q-206 -36 -326 -36q-247 0 -434 116q-218 136 -218 369q0 259 221 433q175 138 462 207zM731 -114l127 -141 l-125 -135l-124 139zM616 144l118 -129l117 127l128 -138l-128 -136l-115 127l-120 -127l-127 138z" />
<glyph unicode="&#x686;" horiz-adv-x="1365" arabic-form="initial" d="M763 451q-126 45 -253 91q-190 66 -237 66q-48 0 -94 -45q-64 -63 -78 -71q-22 -4 -22 23q0 90 94 201q98 116 189 116q60 0 208 -57q353 -136 654 -180q28 -2 75 -24q-57 -111 -60 -116q-47 -86 -68 -90q-9 3 -57 3q-125 0 -362 -133q-294 -165 -358 -187 q-141 -48 -413 -48v296q245 4 400 32q190 34 382 123zM591 -384l127 -141l-125 -135l-124 139zM476 -126l118 -129l117 127l128 -138l-128 -136l-115 127l-120 -127l-127 138z" />
<glyph unicode="&#x686;" horiz-adv-x="1365" arabic-form="medial" d="M771 511q-423 128 -498 128q-49 0 -99 -43q-42 -38 -83 -75q-22 -2 -22 23q0 97 97 207q101 114 199 114q105 0 274 -54q224 -72 271 -82q61 -13 185.5 -22t185.5 -22l8 -13q-48 -146 -105 -211q-33 -7 -90 -2q-79 7 -91 7q-51 0 -51 -52q0 -88 230 -111q26 -2 293 -7 v-296q-146 2 -293 4q-148 12 -218 75q-85 78 -85 256q0 27 2 56q-284 -220 -325 -247q-126 -83 -259 -111q-127 -26 -416 -33v296q307 0 457 33q188 41 433 182zM591 -384l127 -141l-125 -135l-124 139zM476 -126l118 -129l117 127l128 -138l-128 -136l-115 127l-120 -127 l-127 138z" />
<glyph unicode="&#x698;" horiz-adv-x="747" arabic-form="isolated" d="M450 492q200 -163 200 -483q0 -163 -88 -377q-105 -254 -239 -254q-100 0 -214 12q-164 17 -200 49q43 36 231 136q196 105 282 171q137 106 137 203q0 88 -255 302q39 84 63 128q46 81 83 113zM381 1256l127 -141l-125 -135l-124 139zM266 974l118 -129l117 127 l128 -138l-128 -136l-115 127l-120 -127l-127 138z" />
<glyph unicode="&#x698;" horiz-adv-x="747" arabic-form="final" d="M632 39q6 -32 6 -73q0 -124 -71 -309q-79 -207 -171 -252q-46 -23 -118 -23q-86 0 -200 15q-146 20 -182 51q40 30 235.5 128t285.5 165q140 105 140 204q0 69 -97 171q-78 72 -155 144q2 22 66 118q58 87 87 119q62 -67 123 -133q67 -68 165 -68v-296q-78 0 -114 39z M381 1256l127 -141l-125 -135l-124 139zM266 974l118 -129l117 127l128 -138l-128 -136l-115 127l-120 -127l-127 138z" />
<glyph unicode="&#x6a9;" horiz-adv-x="1941" arabic-form="isolated" d="M871 296q336 0 336 67q0 43 -121.5 235t-121.5 211q0 45 28 119t58 102q451 163 914 312v-193l-408 -132q-234 -79 -401 -153q64 -112 129 -223q67 -135 67 -245q0 -15 -9 -44q-65 -212 -173 -287q-86 -59 -257 -59q-37 0 -128.5 3t-145.5 3q40 -2 115 -12 q-57 -3 -128 -3q-217 0 -363 71q-192 94 -192 287q0 72 25 181q31 138 73 138q32 0 32 -37q0 -16 -6 -49t-6 -49q0 -247 692 -247z" />
<glyph unicode="&#x6a9;" horiz-adv-x="1941" arabic-form="final" d="M871 296q336 0 336 67q0 43 -121.5 235.5t-121.5 210.5q0 45 28 119.5t58 101.5q451 163 914 312v-193l-408 -132q-234 -79 -401 -153q143 -257 168 -295q122 -192 222 -240q61 -29 201 -34q-26 1 210 1v-296h-138q-192 0 -299.5 52.5t-222.5 203.5q-60 -151 -161 -209 q-81 -45 -219 -45q-41 0 -134 5t-144 5q40 -2 115 -12q-57 -3 -128 -3q-217 0 -363 71q-192 93 -192 287q0 72 25 181q31 138 73 138q32 0 32 -37q0 -16 -6 -49t-6 -49q0 -247 692 -247z" />
<glyph unicode="&#x6a9;" horiz-adv-x="1067" arabic-form="initial" d="M-19 0v296q336 0 336 67q0 44 -121.5 235.5t-121.5 210.5q0 45 28 119t58 102q451 163 914 312v-193l-408 -132q-234 -79 -401 -153q106 -191 126 -237q59 -134 59 -260q0 -118 -98.5 -233.5t-213.5 -130.5q-23 -3 -157 -3z" />
<glyph unicode="&#x6a9;" horiz-adv-x="1067" arabic-form="medial" d="M1074 1342v-193l-408 -132q-234 -79 -401 -153q143 -257 168 -295q122 -192 222 -240q67 -32 249 -36l-34 1q92 2 276 2v-296h-218q-192 0 -299.5 52.5t-222.5 203.5q-97 -256 -332 -256h-143v296l105 -2q281 -6 281 69q0 43 -121.5 235.5t-121.5 210.5q0 46 27 118 q28 76 59 103q451 163 914 312z" />
<glyph unicode="&#x6af;" horiz-adv-x="1941" arabic-form="isolated" d="M871 296q336 0 336 67q0 43 -121.5 235t-121.5 211q0 45 28 119t58 102q451 163 914 312v-193l-408 -132q-234 -79 -401 -153q64 -112 129 -223q67 -135 67 -245q0 -15 -9 -44q-65 -212 -173 -287q-86 -59 -257 -59q-37 0 -128.5 3t-145.5 3q40 -2 115 -12 q-57 -3 -128 -3q-217 0 -363 71q-192 94 -192 287q0 72 25 181q31 138 73 138q32 0 32 -37q0 -16 -6 -49t-6 -49q0 -247 692 -247zM1956 1527l16 -14q-3 -50 -4 -52q-6 -28 -33 -37q-220 -78 -439 -155q-311 -109 -426 -129l-6 5q-5 26 -6 73q17 23 431 165.5t467 143.5z " />
<glyph unicode="&#x6af;" horiz-adv-x="1941" arabic-form="final" d="M871 296q336 0 336 67q0 43 -121.5 235.5t-121.5 210.5q0 45 28 119.5t58 101.5q451 163 914 312v-193l-408 -132q-234 -79 -401 -153q143 -257 168 -295q122 -192 222 -240q61 -29 201 -34q-26 1 210 1v-296h-138q-192 0 -299.5 52.5t-222.5 203.5q-60 -151 -161 -209 q-81 -45 -219 -45q-41 0 -134 5t-144 5q40 -2 115 -12q-57 -3 -128 -3q-217 0 -363 71q-192 93 -192 287q0 72 25 181q31 138 73 138q32 0 32 -37q0 -16 -6 -49t-6 -49q0 -247 692 -247zM1956 1527l16 -14q-3 -50 -4 -52q-6 -28 -33 -37q-220 -78 -439 -155 q-311 -109 -426 -129l-6 5q-5 26 -6 73q17 23 431 165.5t467 143.5z" />
<glyph unicode="&#x6af;" horiz-adv-x="1067" arabic-form="initial" d="M-19 0v296q336 0 336 67q0 44 -121.5 235.5t-121.5 210.5q0 45 28 119t58 102q451 163 914 312v-193l-408 -132q-234 -79 -401 -153q106 -191 126 -237q59 -134 59 -260q0 -118 -98.5 -233.5t-213.5 -130.5q-23 -3 -157 -3zM1066 1527l16 -14q-3 -50 -4 -52 q-6 -28 -33 -37q-220 -78 -439 -155q-311 -109 -426 -129l-6 5q-5 26 -6 73q17 23 431 165.5t467 143.5z" />
<glyph unicode="&#x6af;" horiz-adv-x="1067" arabic-form="medial" d="M1074 1342v-193l-408 -132q-234 -79 -401 -153q191 -347 225 -392q87 -120 219 -151q106 -25 447 -25v-296h-228q-192 0 -299.5 52.5t-222.5 203.5q-97 -256 -332 -256h-153v296q191 0 205 1q191 11 191 66q0 43 -121.5 235.5t-121.5 210.5q0 46 27 118q28 76 59 103 q451 163 914 312zM1066 1527l16 -14q-3 -50 -4 -52q-6 -28 -33 -37q-220 -78 -439 -155q-311 -109 -426 -129l-6 5q-5 26 -6 73q17 23 431 165.5t467 143.5z" />
<glyph unicode="&#x6cc;" horiz-adv-x="1707" arabic-form="isolated" d="M1342 956q116 0 203.5 -81.5t87.5 -197.5l-6 -13q-41 4 -160 36q-99 27 -202 27q-108 0 -206 -67q-109 -74 -109 -176q0 -27 38 -34l216 -38q88 -13 175 -25q100 -19 147 -61q62 -54 62 -162q0 -332 -285 -468q-205 -98 -583 -98q-637 0 -637 449q0 95 44 275 q51 212 106 212q26 0 26 -29q0 -45 -23.5 -132.5t-23.5 -132.5q0 -230 239 -314q147 -52 432 -52q626 0 626 176q0 48 -174 64q-263 25 -324 40q-174 45 -174 161q0 110 127 375.5t378 265.5z" />
<glyph unicode="&#x6cc;" horiz-adv-x="1600" arabic-form="final" d="M1600 0q-498 12 -508 12q-184 0 -184 -63q0 -59 232 -59q37 0 86.5 1.5t54.5 1.5q126 0 166 -12q86 -25 86 -119q0 -248 -315 -338q-180 -51 -517 -51q-271 0 -418 61q-218 92 -218 323q0 86 35 247q41 193 87 193q31 0 31 -32q0 -31 -18 -91.5t-18 -92.5 q0 -233 266 -320q160 -52 458 -52q152 0 297 18q227 28 227 86q0 26 -92 26q-9 0 -84.5 -4.5t-130.5 -4.5q-326 0 -326 144q0 65 66 165q105 159 331 218q151 39 406 39v-296z" />
<glyph unicode="&#xfe70;" horiz-adv-x="583" arabic-form="isolated" d="M545 1573q-34 -11 -212 -94q-156 -73 -201 -73h-100q8 4 212 97q153 70 200 70h101zM583 1462q-34 -11 -212 -94q-156 -73 -201 -73h-100q8 4 212 97q153 70 200 70h101z" />
<glyph unicode="&#xfe72;" horiz-adv-x="576" arabic-form="isolated" d="M576 1482q0 -45 -74 -78l58 -52h-44q-33 0 -69 25q-147 -82 -213 -82v83q-46 -20 -98 -20h-66q48 20 180 86l54 29v-96q32 12 90 40l-28 25q-36 32 -36 66q0 37 38 67l120 95q0 -25 44 -94t44 -94zM507 1492q0 56 -56 56q-51 0 -51 -41q0 -15 54 -59q53 31 53 44z" />
<glyph unicode="&#xfe74;" horiz-adv-x="583" arabic-form="isolated" d="M545 -230q-34 -11 -212 -94q-156 -73 -201 -73h-100q8 4 212 97q153 70 200 70h101zM583 -341q-34 -11 -212 -94q-156 -73 -201 -73h-100q8 4 212 97q153 70 200 70h101z" />
<glyph unicode="&#xfe76;" horiz-adv-x="583" arabic-form="isolated" d="M583 1462q-34 -11 -212 -94q-156 -73 -201 -73h-100q8 4 212 97q153 70 200 70h101z" />
<glyph unicode="&#xfe78;" horiz-adv-x="511" arabic-form="isolated" d="M511 1482q0 -45 -74 -78l58 -52h-44q-33 0 -70 26q-11 -4 -99 -49q-67 -34 -120 -34h-92q108 41 257 123l-26 24q-36 33 -36 66q0 37 38 67l120 95q0 -25 44 -94t44 -94zM442 1492q0 56 -56 56q-51 0 -51 -41q0 -15 54 -59q53 31 53 44z" />
<glyph unicode="&#xfe7a;" horiz-adv-x="583" arabic-form="isolated" d="M583 -230q-34 -11 -212 -94q-156 -73 -201 -73h-100q8 4 212 97q153 70 200 70h101z" />
<glyph unicode="&#xfe7c;" horiz-adv-x="551" arabic-form="isolated" d="M551 1441q-47 -11 -183 -81q-126 -65 -148 -65q-42 0 -94 77q-21 31 -56 72h59q27 0 61.5 -32t44.5 -32q48 0 48 39q0 67 -64 105h61q29 0 49 -31q36 -54 48 -54q45 0 45 48q0 52 -52 80l51 4q43 3 72 -47q38 -68 58 -83z" />
<glyph unicode="&#xfe7e;" horiz-adv-x="326" arabic-form="isolated" d="M326 1412q0 -50 -38.5 -83.5t-89.5 -33.5q-48 0 -86 29q-42 31 -42 78q0 50 64 116l84 86q0 -40 54 -99t54 -93zM260 1404q0 25 -66 94l-38 -42q-20 -22 -20 -44q0 -56 60 -56q21 0 42.5 14t21.5 34z" />
<glyph unicode="&#x621;" horiz-adv-x="917" arabic-form="isolated" d="M284 299q-46 48 -92 95q-55 65 -55 113q0 96 127 208q124 109 222 109q60 0 124 -43q71 -48 71 -104q0 -23 -29 -23q-28 0 -84 8.5t-84 8.5q-50 0 -117 -18q-86 -23 -86 -56q0 -43 73 -105t117 -62q50 0 144 38.5t143 38.5q23 0 23 -23q0 -19 -27 -71q-25 -48 -42 -67 q-285 -114 -521 -256q-66 -40 -81 -40q-25 0 -25 34q0 61 199 215z" />
<glyph unicode="&#x622;" horiz-adv-x="576" arabic-form="isolated" d="M336 1480q-45 0 -131.5 20.5t-130.5 20.5q-42 0 -123 -55q-17 6 -17 23q0 52 67.5 115.5t120.5 63.5q52 0 153.5 -22.5t153.5 -22.5t152.5 30t147.5 30q30 0 30 -21q0 -60 -180 -125q-160 -57 -243 -57zM166 1144q105 84 146 115q116 87 141 89l11 -18l-86 -1102 q-4 -60 -8 -121q-11 -93 -41 -93l-29 26q-56 396 -134 1104z" />
<glyph unicode="&#x622;" horiz-adv-x="512" arabic-form="final" d="M289 1516q-46 0 -135.5 20.5t-134.5 20.5q-33 0 -123 -56q-17 6 -17 23q0 53 67.5 116t120.5 63q52 0 153.5 -22.5t153.5 -22.5q53 0 153.5 30t146.5 30q21 0 30 -20q0 -58 -177 -124q-157 -58 -238 -58zM631 0h-188q-179 0 -251 152q-50 108 -50 317q0 13 4 169 q5 204 -7 533q155 162 185 162q26 0 26 -118q0 -115 -13.5 -345.5t-13.5 -345.5q0 -169 76 -208q41 -21 232 -21v-295z" />
<glyph unicode="&#x623;" horiz-adv-x="576" arabic-form="isolated" d="M220 1385q-104 26 -104 75q0 54 75.5 128t129.5 74q21 0 49 -26t37 -48q-13 -9 -116 -29q-81 -16 -81 -55q0 -47 105 -47q28 0 74 16q57 20 74 23l19 -13q-18 -58 -46 -89q-106 -53 -311 -162q-18 7 -18 22q0 51 113 131zM167 1059q89 68 134 100q99 69 143 79l10 -17 l-78 -1035q-4 -60 -8 -121q-11 -93 -41 -93q-42 27 -101 522q-29 282 -59 565z" />
<glyph unicode="&#x623;" horiz-adv-x="512" arabic-form="final" d="M187 1377q-104 26 -104 75q0 54 75.5 128t129.5 74q21 0 49 -25.5t37 -47.5q0 -16 -98.5 -28t-98.5 -57q0 -47 105 -47q28 0 74 16q57 20 74 23l19 -13q-17 -53 -45 -87q-67 -27 -196 -89q-37 -27 -116 -75q-18 7 -18 22q0 51 113 131zM611 0h-155q-301 0 -301 414v651 q151 157 182 157q25 0 25 -80q0 -107 -12.5 -320.5t-12.5 -320.5q0 -152 66 -187q36 -19 208 -19v-295z" />
<glyph unicode="&#x624;" horiz-adv-x="789" arabic-form="isolated" d="M588 4l-124 -2q-383 -6 -383 186q0 153 83 334q99 213 231 213q152 0 233 -222q61 -165 61 -352q0 -207 -93 -469q-114 -324 -275 -324q-109 0 -251 17q-155 19 -155 43q0 21 167 93q177 77 317 190q189 153 189 293zM543 288q-86 188 -214 188q-42 0 -82.5 -34 t-40.5 -75q0 -79 337 -79zM254 1012q-104 26 -104 75q0 53 76 127.5t129 74.5q21 0 49 -26t37 -48q-13 -9 -117 -29q-80 -16 -80 -55q0 -47 105 -47q27 0 76.5 17.5t75.5 17.5l15 -9q-12 -35 -46 -98q-54 -17 -159 -59q-49 -31 -153 -88l-15 19q0 39 111 128z" />
<glyph unicode="&#x624;" horiz-adv-x="917" arabic-form="final" d="M594 4q-227 0 -303 14q-199 38 -199 173q0 147 83 331q97 216 222 216q220 0 296 -442h226v-296h-239q-15 -164 -102 -370q-108 -257 -227 -257q-163 0 -287 17q-141 19 -141 44q0 22 155 88q182 78 323 189q193 152 193 293zM550 297q-90 177 -215 177q-41 0 -80 -32.5 t-39 -72.5q0 -72 228 -72h106zM254 1012q-104 26 -104 75q0 53 76 127.5t129 74.5q21 0 49 -26t37 -48q-13 -9 -117 -29q-80 -16 -80 -55q0 -47 105 -47q27 0 76.5 17.5t75.5 17.5l15 -9q-12 -35 -46 -98q-54 -17 -159 -59q-49 -31 -153 -88l-15 19q0 39 111 128z" />
<glyph unicode="&#x625;" horiz-adv-x="576" arabic-form="isolated" d="M167 1144q105 84 146 115q117 89 140 89l11 -18l-85 -1102l-8 -122q-11 -92 -42 -92q-34 0 -58 187q-12 117 -23 234q0 1 -81 709zM254 -489q-104 27 -104 75q0 57 74 130t131 73q21 0 49 -26t37 -48q-58 -14 -115 -28q-83 -23 -83 -56q0 -48 128 -48q23 0 65 17.5 t65 17.5l15 -9q-19 -70 -46 -97q-49 -15 -144 -51q-56 -35 -169 -97q-15 5 -15 20q0 48 112 127z" />
<glyph unicode="&#x625;" horiz-adv-x="512" arabic-form="final" d="M622 0h-178q-306 0 -306 498q0 69 6 186t6 156q0 -2 -11 331q155 162 185 162q26 0 26 -118q0 -115 -13.5 -345.5t-13.5 -345.5q0 -166 72 -206q42 -23 227 -23v-295zM254 -489q-104 27 -104 75q0 57 74 130t131 73q21 0 49 -26t37 -48q-58 -14 -115 -28q-83 -23 -83 -56 q0 -48 128 -48q23 0 65 17.5t65 17.5l15 -9q-19 -70 -46 -97q-49 -15 -144 -51q-56 -35 -169 -97q-15 5 -15 20q0 48 112 127z" />
<glyph unicode="&#x626;" horiz-adv-x="1707" arabic-form="isolated" d="M566 1094q-104 26 -104 75q0 60 72.5 131t132.5 71q21 0 49 -26t37 -48q-13 -9 -117 -28q-81 -16 -81 -56q0 -47 106 -47q27 0 76.5 17.5t75.5 17.5l15 -9q-12 -35 -46 -98q-58 -18 -169 -63q-46 -31 -143 -84l-16 19q0 40 112 128zM1342 956q116 0 203.5 -81.5 t87.5 -197.5l-6 -13q-41 4 -160 36q-99 27 -202 27q-108 0 -206 -67q-109 -74 -109 -176q0 -27 38 -34l216 -38q88 -13 175 -25q100 -19 147 -61q62 -54 62 -162q0 -332 -285 -468q-205 -98 -583 -98q-637 0 -637 449q0 95 44 275q51 212 106 212q26 0 26 -29 q0 -45 -23.5 -132.5t-23.5 -132.5q0 -230 239 -314q147 -52 432 -52q626 0 626 176q0 48 -174 64q-263 25 -324 40q-174 45 -174 161q0 110 127 375.5t378 265.5z" />
<glyph unicode="&#x626;" horiz-adv-x="1600" arabic-form="final" d="M617 655q-104 27 -104 75q0 55 75 129t130 74q21 0 49 -26t37 -48q-58 -14 -115 -28q-83 -23 -83 -56q0 -48 128 -48q23 0 65 17.5t65 17.5l15 -9q-19 -70 -46 -97q-49 -15 -144 -51q-56 -35 -169 -97q-15 5 -15 20q0 48 112 127zM1600 0q-498 12 -508 12 q-184 0 -184 -63q0 -59 232 -59q37 0 86.5 1.5t54.5 1.5q126 0 166 -12q86 -25 86 -119q0 -248 -315 -338q-180 -51 -517 -51q-271 0 -418 61q-218 92 -218 323q0 86 35 247q41 193 87 193q31 0 31 -32q0 -31 -18 -91.5t-18 -92.5q0 -233 266 -320q160 -52 458 -52 q152 0 297 18q227 28 227 86q0 26 -92 26q-9 0 -84.5 -4.5t-130.5 -4.5q-326 0 -326 144q0 65 66 165q105 159 331 218q151 39 406 39v-296z" />
<glyph unicode="&#x626;" horiz-adv-x="576" arabic-form="initial" d="M181 993q-104 31 -104 75q0 60 72.5 131t132.5 71q21 0 49 -25.5t37 -47.5q-58 -14 -115 -27q-83 -24 -83 -57q0 -48 128 -48q23 0 65 17.5t65 17.5l15 -9q-19 -70 -46 -97q-74 -20 -161 -65q-75 -42 -151 -83l-16 20q0 48 112 127zM290 820q132 -138 132 -384 q0 -436 -391 -436h-50v296q328 0 328 74q0 33 -77 114q-84 89 -94 116q16 43 67.5 117.5t84.5 102.5z" />
<glyph unicode="&#x626;" horiz-adv-x="576" arabic-form="medial" d="M205 958q-104 26 -104 75q0 60 72.5 131t132.5 71q21 0 49 -25.5t37 -47.5q-58 -14 -116 -27q-82 -23 -82 -58q0 -47 128 -47q23 0 65 17.5t65 17.5l15 -9q-15 -55 -46 -98q-18 -11 -106 -38q-48 -15 -106 -49l-100 -60l-16 19q0 40 112 128zM-99 296q176 0 233 32 q72 42 115 199q12 43 27 60q38 -35 51 -121.5t56 -118.5q69 -51 263 -51v-296q-163 0 -237 40q-94 51 -131 195q-42 -148 -135 -197q-73 -38 -242 -38v296z" />
<glyph unicode="&#x627;" horiz-adv-x="576" arabic-form="isolated" d="M167 1144q105 84 146 115q117 89 140 89l11 -18l-85 -1102l-8 -122q-11 -92 -42 -92q-34 0 -58 187q-12 117 -23 234q0 1 -81 709z" />
<glyph unicode="&#x627;" horiz-adv-x="512" arabic-form="final" d="M622 0h-178q-306 0 -306 498q0 69 6 186t6 156q0 -2 -11 331q155 162 185 162q26 0 26 -118q0 -115 -13.5 -345.5t-13.5 -345.5q0 -166 72 -206q42 -23 227 -23v-295z" />
<glyph unicode="&#x628;" horiz-adv-x="1707" arabic-form="isolated" d="M1467 854q67 -10 124 -155q49 -125 49 -217q0 -344 -287 -472q-194 -86 -588 -86q-313 0 -461 61q-233 95 -233 360q0 70 21 176q27 135 65 135q24 0 24 -54q0 -24 -5 -64t-5 -45q0 -174 249 -235q135 -34 388 -34q212 0 397 22q311 36 311 121q0 41 -72 119l-106 106 q12 38 60 137q50 104 69 125zM894 -301l138 -138l-137 -139l-138 139z" />
<glyph unicode="&#x628;" horiz-adv-x="1941" arabic-form="final" d="M1632 237q-135 -206 -416 -315q-242 -94 -521 -94q-274 0 -413 73q-189 100 -189 348q0 73 20 171q27 130 69 130q21 0 21 -58q0 -23 -3.5 -60t-3.5 -40q0 -273 522 -273q587 0 921 319q52 50 83 69q26 2 26 -26q0 -16 -15.5 -50.5t-15.5 -50.5q0 -84 225 -84v-296h-43 q-216 0 -267 237zM905 -301l135 -136l-136 -139l-135 136z" />
<glyph unicode="&#x628;" horiz-adv-x="576" arabic-form="initial" d="M290 820q132 -138 132 -384q0 -436 -391 -436h-50v296q328 0 328 74q0 33 -77 114q-84 89 -94 116q16 43 67.5 117.5t84.5 102.5zM232 -173l137 -139l-137 -138l-135 139z" />
<glyph unicode="&#x628;" horiz-adv-x="576" arabic-form="medial" d="M-79 296q173 0 239 48q43 32 62 113q21 92 54 130q38 -35 51 -124q12 -84 56 -116q72 -51 273 -51v-296q-166 0 -242 39q-98 50 -136 196q-41 -143 -126 -193q-72 -42 -231 -42v296zM282 -300l133 -139l-135 -138l-136 136z" />
<glyph unicode="&#x629;" horiz-adv-x="917" arabic-form="isolated" d="M336 772q113 0 287 -137q188 -148 188 -285q0 -172 -106 -298q-113 -134 -281 -134q-316 0 -316 290q0 106 73 321q82 243 155 243zM278 542q-61 -89 -61 -193q0 -84 105 -124q76 -29 177 -29q60 0 134 24q94 30 94 75q0 43 -196 138q-124 60 -253 109zM180 1246 l120 -129l117 128l127 -136l-126 -139l-119 128l-116 -128l-127 137z" />
<glyph unicode="&#x629;" horiz-adv-x="879" arabic-form="final" d="M475 719l-13 111q46 109 144 199q30 -58 51 -244q27 -238 41 -303q34 -155 102 -179q20 -7 79 -7v-296h-58q-137 0 -203 86q-46 61 -80 214q-53 -87 -98 -130q-71 1 -187 46q-136 53 -136 109q0 140 119 243q43 37 239 151zM252 452q75 -45 274 -86l-37 242 q-156 -87 -237 -156zM170 1446l120 -129l117 128l127 -136l-126 -139l-119 128l-116 -128l-127 137z" />
<glyph unicode="&#x62a;" horiz-adv-x="1707" arabic-form="isolated" d="M702 1169l127 -128l126 128l137 -138l-135 -138l-128 127l-125 -129l-137 137zM1464 855q82 -56 130 -165q43 -99 43 -207q0 -344 -287 -472q-193 -86 -588 -86q-314 0 -462 60q-232 95 -232 362q0 70 21 175q27 136 65 136q24 0 24 -54q0 -24 -5 -64t-5 -45 q0 -269 637 -269q211 0 397 22q311 36 311 120q0 42 -72 119l-106 106q47 134 129 262z" />
<glyph unicode="&#x62a;" horiz-adv-x="1941" arabic-form="final" d="M1632 237q-135 -206 -416 -315q-242 -94 -521 -94q-274 0 -413 73q-189 100 -189 348q0 73 20 171q27 130 69 130q21 0 21 -58q0 -23 -3.5 -60t-3.5 -40q0 -273 522 -273q587 0 921 319q52 50 83 69q26 2 26 -26q0 -16 -15.5 -50.5t-15.5 -50.5q0 -84 225 -84v-296h-43 q-216 0 -267 237zM702 1169l127 -128l126 128l137 -138l-135 -138l-128 127l-125 -129l-137 137z" />
<glyph unicode="&#x62a;" horiz-adv-x="576" arabic-form="initial" d="M154 1176l117 -131l120 129l129 -142l-129 -138l-118 128l-118 -128l-128 140zM290 820q132 -138 132 -384q0 -436 -391 -436h-50v296q328 0 328 74q0 33 -77 114q-84 89 -94 116q16 43 67.5 117.5t84.5 102.5z" />
<glyph unicode="&#x62a;" horiz-adv-x="576" arabic-form="medial" d="M-89 296q180 0 248 48q44 30 62 112q21 92 55 131q38 -35 51 -121.5t56 -118.5q69 -51 263 -51v-296q-163 0 -237 40q-94 51 -131 195q-42 -147 -130 -196q-72 -39 -237 -39v296zM154 1176l117 -131l120 129l129 -142l-129 -138l-118 128l-118 -128l-128 140z" />
<glyph unicode="&#x62b;" horiz-adv-x="1707" arabic-form="isolated" d="M702 1169l127 -128l126 128l137 -138l-135 -138l-128 127l-125 -129l-137 137zM1464 855q82 -56 130 -165q43 -99 43 -207q0 -344 -287 -472q-193 -86 -588 -86q-314 0 -462 60q-232 95 -232 362q0 70 21 175q27 136 65 136q24 0 24 -54q0 -24 -5 -64t-5 -45 q0 -269 637 -269q211 0 397 22q311 36 311 120q0 42 -72 119l-106 106q47 134 129 262zM949 1250l-125 -129l-137 137l135 141l127 -128v-21z" />
<glyph unicode="&#x62b;" horiz-adv-x="1941" arabic-form="final" d="M1632 237q-135 -206 -416 -315q-242 -94 -521 -94q-274 0 -413 73q-189 100 -189 348q0 73 20 171q27 130 69 130q21 0 21 -58q0 -23 -3.5 -60t-3.5 -40q0 -273 522 -273q587 0 921 319q52 50 83 69q26 2 26 -26q0 -16 -15.5 -50.5t-15.5 -50.5q0 -84 225 -84v-296h-43 q-216 0 -267 237zM702 1169l127 -128l126 128l137 -138l-135 -138l-128 127l-125 -129l-137 137zM949 1250l-125 -129l-137 137l135 141l127 -128v-21z" />
<glyph unicode="&#x62b;" horiz-adv-x="576" arabic-form="initial" d="M154 1176l117 -131l120 129l129 -142l-129 -138l-118 128l-118 -128l-128 140zM290 820q132 -138 132 -384q0 -436 -391 -436h-50v296q328 0 328 74q0 33 -77 114q-84 89 -94 116q16 43 67.5 117.5t84.5 102.5zM393 1262l-118 -128l-128 140l127 142l117 -131z" />
<glyph unicode="&#x62b;" horiz-adv-x="576" arabic-form="medial" d="M-89 296q180 0 248 48q44 30 62 112q21 92 55 131q39 -36 51 -125q12 -84 58 -115q72 -51 281 -51v-296q-169 0 -244 36q-106 50 -144 199q-42 -147 -130 -196q-72 -39 -237 -39v296zM154 1176l117 -131l120 129l129 -142l-129 -138l-118 128l-118 -128l-128 140z M393 1262l-118 -128l-128 140l127 142l117 -131z" />
<glyph unicode="&#x62c;" horiz-adv-x="1493" arabic-form="isolated" d="M807 501q-317 54 -403 54q-71 0 -127 -45q-51 -43 -102 -87q-24 -2 -24 31q0 99 103 217q107 123 208 123q64 0 153 -17q76 -15 152 -29.5t465 -38.5l30 -2q136 -9 150 -28l-70 -148q-24 -44 -65 -53q-29 -6 -157 -6q-287 0 -494 -137q-238 -157 -238 -430 q0 -221 192 -325q151 -82 392 -82q63 0 187.5 17.5t184.5 17.5q23 0 23 -24q0 -57 -261 -99q-203 -33 -321 -33q-262 0 -450 110q-227 133 -227 377q0 462 699 637zM824 56l136 -138l-135 -139l-136 138z" />
<glyph unicode="&#x62c;" horiz-adv-x="1493" arabic-form="final" d="M796 497q-300 57 -407 57q-52 0 -111 -49q-46 -42 -93 -84q-23 -1 -23 32q0 108 100 222q105 120 220 120q89 0 250 -33q179 -37 253 -42q106 -6 211 -11q172 -13 187 -34q-63 -156 -76 -170q-35 -36 -173 -37q-74 0 -76 -1q-44 -7 -44 -46q0 -129 335 -129q9 0 144 4 v-296h-177q-236 0 -317 114q-69 96 -62 341q-221 -39 -371 -175q-169 -151 -169 -363q0 -226 180 -333q146 -87 388 -87q179 0 359 34q22 4 22 -23q0 -55 -255 -100q-206 -36 -326 -36q-247 0 -434 116q-218 136 -218 369q0 259 221 433q175 138 462 207zM766 55l139 -138 l-136 -139l-135 138z" />
<glyph unicode="&#x62c;" horiz-adv-x="1365" arabic-form="initial" d="M763 451q-126 45 -253 91q-190 66 -237 66q-48 0 -94 -45q-64 -63 -78 -71q-22 -4 -22 23q0 90 94 201q98 116 189 116q60 0 208 -57q353 -136 654 -180q28 -2 75 -24q-57 -111 -60 -116q-47 -86 -68 -90q-9 3 -57 3q-125 0 -362 -133q-294 -165 -358 -187 q-141 -48 -413 -48v296q245 4 400 32q190 34 382 123zM680 -303l138 -139l-137 -137l-137 137z" />
<glyph unicode="&#x62c;" horiz-adv-x="1365" arabic-form="medial" d="M771 511q-423 128 -498 128q-49 0 -99 -43q-42 -38 -83 -75q-22 -2 -22 23q0 97 97 207q101 114 199 114q105 0 274 -54q224 -72 271 -82q61 -13 185.5 -22t185.5 -22l8 -13q-48 -146 -105 -211q-33 -7 -90 -2q-79 7 -91 7q-51 0 -51 -52q0 -88 230 -111q26 -2 293 -7 v-296q-146 2 -293 4q-148 12 -218 75q-85 78 -85 256q0 27 2 56q-275 -213 -312 -238q-126 -86 -258 -116.5t-400 -36.5v296q293 0 447 37q174 41 413 178zM688 -303l135 -138l-134 -139l-136 138z" />
<glyph unicode="&#x62d;" horiz-adv-x="1493" arabic-form="isolated" d="M807 501q-317 54 -403 54q-71 0 -127 -45q-51 -43 -102 -87q-24 -2 -24 31q0 99 103 217q107 123 208 123q64 0 153 -17q76 -15 152 -29.5t465 -38.5l30 -2q136 -9 150 -28l-70 -148q-24 -44 -65 -53q-29 -6 -157 -6q-287 0 -494 -137q-238 -157 -238 -430 q0 -221 192 -325q151 -82 392 -82q63 0 187.5 17.5t184.5 17.5q23 0 23 -24q0 -57 -261 -99q-203 -33 -321 -33q-262 0 -450 110q-227 133 -227 377q0 462 699 637z" />
<glyph unicode="&#x62d;" horiz-adv-x="1493" arabic-form="final" d="M796 497q-300 57 -407 57q-52 0 -111 -49q-46 -42 -93 -84q-23 -1 -23 32q0 108 100 222q105 120 220 120q89 0 250 -33q179 -37 253 -42q106 -6 211 -11q172 -13 187 -34q-63 -156 -76 -170q-35 -36 -173 -37q-74 0 -76 -1q-44 -7 -44 -46q0 -129 335 -129q9 0 144 4 v-296h-177q-236 0 -317 114q-69 96 -62 341q-221 -39 -371 -175q-169 -151 -169 -363q0 -226 180 -333q146 -87 388 -87q179 0 359 34q22 4 22 -23q0 -55 -255 -100q-206 -36 -326 -36q-247 0 -434 116q-218 136 -218 369q0 259 221 433q175 138 462 207z" />
<glyph unicode="&#x62d;" horiz-adv-x="1365" arabic-form="initial" d="M763 451q-126 45 -253 91q-190 66 -237 66q-48 0 -94 -45q-64 -63 -78 -71q-22 -4 -22 23q0 90 94 201q98 116 189 116q60 0 208 -57q353 -136 654 -180q28 -2 75 -24q-57 -111 -60 -116q-47 -86 -68 -90q-9 3 -57 3q-125 0 -362 -133q-294 -165 -358 -187 q-141 -48 -413 -48v296q245 4 400 32q190 34 382 123z" />
<glyph unicode="&#x62d;" horiz-adv-x="1365" arabic-form="medial" d="M771 511q-423 128 -498 128q-49 0 -99 -43q-42 -38 -83 -75q-22 -2 -22 23q0 97 97 207q101 114 199 114q105 0 274 -54q224 -72 271 -82q61 -13 185.5 -22t185.5 -22l8 -13q-48 -146 -105 -211q-33 -7 -90 -2q-79 7 -91 7q-51 0 -51 -52q0 -86 219 -110q33 -3 284 -8 v-296q-261 3 -287 5q-142 14 -208 78q-81 78 -81 252q0 27 2 56q-275 -213 -308 -236q-127 -86 -257 -117q-133 -32 -395 -38v296q283 0 442 39q174 42 408 176z" />
<glyph unicode="&#x62e;" horiz-adv-x="1493" arabic-form="isolated" d="M817 1267l138 -140l-136 -138l-137 140zM807 501q-317 54 -403 54q-71 0 -127 -45q-51 -43 -102 -87q-24 -2 -24 31q0 99 103 217q107 123 208 123q64 0 153 -17q76 -15 152 -29.5t465 -38.5l30 -2q136 -9 150 -28l-70 -148q-24 -44 -65 -53q-29 -6 -157 -6 q-287 0 -494 -137q-238 -157 -238 -430q0 -221 192 -325q151 -82 392 -82q63 0 187.5 17.5t184.5 17.5q23 0 23 -24q0 -57 -261 -99q-203 -33 -321 -33q-262 0 -450 110q-227 133 -227 377q0 462 699 637z" />
<glyph unicode="&#x62e;" horiz-adv-x="1493" arabic-form="final" d="M836 1264l139 -138l-137 -140l-135 140zM796 497q-300 57 -407 57q-52 0 -111 -49q-46 -42 -93 -84q-23 -1 -23 32q0 108 100 222q105 120 220 120q89 0 250 -33q179 -37 253 -42q106 -6 211 -11q172 -13 187 -34q-63 -156 -76 -170q-35 -36 -173 -37q-74 0 -76 -1 q-44 -7 -44 -46q0 -129 335 -129q9 0 144 4v-296h-177q-236 0 -317 114q-69 96 -62 341q-221 -39 -371 -175q-169 -151 -169 -363q0 -226 180 -333q146 -87 388 -87q179 0 359 34q22 4 22 -23q0 -55 -255 -100q-206 -36 -326 -36q-247 0 -434 116q-218 136 -218 369 q0 259 221 433q175 138 462 207z" />
<glyph unicode="&#x62e;" horiz-adv-x="1365" arabic-form="initial" d="M611 1190l136 -136l-134 -139l-135 139zM763 451q-126 45 -253 91q-190 66 -237 66q-48 0 -94 -45q-64 -63 -78 -71q-22 -4 -22 23q0 90 94 201q98 116 189 116q60 0 208 -57q353 -136 654 -180q28 -2 75 -24q-57 -111 -60 -116q-47 -86 -68 -90q-9 3 -57 3 q-125 0 -362 -133q-294 -165 -358 -187q-141 -48 -413 -48v296q245 4 400 32q190 34 382 123z" />
<glyph unicode="&#x62e;" horiz-adv-x="1365" arabic-form="medial" d="M697 1235l133 -136l-131 -139l-138 134zM771 511q-423 128 -498 128q-49 0 -99 -43q-42 -38 -83 -75q-22 -2 -22 23q0 97 97 207q101 114 199 114q105 0 274 -54q224 -72 271 -82q61 -13 185.5 -22t185.5 -22l8 -13q-48 -146 -105 -211q-33 -7 -90 -2q-79 7 -91 7 q-51 0 -51 -52q0 -85 215 -109q31 -3 278 -9v-296q-250 3 -284 7q-140 14 -204 78q-78 78 -78 250q0 27 2 56q-275 -213 -312 -238q-126 -86 -258 -116.5t-400 -36.5v296q293 0 447 37q174 41 413 178z" />
<glyph unicode="&#x62f;" arabic-form="isolated" d="M445 862q50 0 192 -126q270 -239 270 -493q0 -244 -114 -340q-104 -89 -352 -89q-342 0 -342 233q0 59 14 141q19 109 48 109q35 -27 44 -83q9 -51 49 -69q63 -28 251 -28q76 0 180 23q137 30 137 74q0 58 -179 197q-176 136 -242 136q-9 0 -25 -8t-25 -8q-27 0 -27 26 q0 39 48 156q45 109 73 149z" />
<glyph unicode="&#x62f;" horiz-adv-x="1152" arabic-form="final" d="M782 431q-55 139 -156 418q52 104 129 168q70 -206 140 -411q121 -310 211 -310h46v-296h-44q-112 0 -194 125q-40 60 -103 223q-192 -345 -504 -345q-219 0 -219 210q0 69 20 173q26 135 63 135q18 -8 17 -40q0 -14 -4 -41t-4 -34q0 -70 76 -105q58 -28 137 -28 q222 0 389 158z" />
<glyph unicode="&#x630;" arabic-form="isolated" d="M367 1181l135 -138l-135 -138l-134 138zM445 862q50 0 192 -126q270 -239 270 -493q0 -244 -114 -340q-104 -89 -352 -89q-342 0 -342 233q0 59 14 141q19 109 48 109q35 -27 44 -83q9 -51 49 -69q63 -28 251 -28q76 0 180 23q137 30 137 74q0 58 -179 197 q-176 136 -242 136q-9 0 -25 -8t-25 -8q-27 0 -27 26q0 39 48 156q45 109 73 149z" />
<glyph unicode="&#x630;" horiz-adv-x="1152" arabic-form="final" d="M641 1302l133 -141l-134 -136l-134 138zM782 431q-55 139 -156 418q52 104 129 168q70 -206 140 -411q121 -310 211 -310h46v-296h-44q-112 0 -194 125q-40 60 -103 223q-192 -345 -504 -345q-219 0 -219 210q0 69 20 173q26 135 63 135q18 -8 17 -40q0 -14 -4 -41 t-4 -34q0 -70 76 -105q58 -28 137 -28q222 0 389 158z" />
<glyph unicode="&#x631;" horiz-adv-x="747" arabic-form="isolated" d="M450 492q200 -163 200 -483q0 -163 -88 -377q-105 -254 -239 -254q-100 0 -214 12q-164 17 -200 49q43 36 231 136q196 105 282 171q137 106 137 203q0 88 -255 302q39 84 63 128q46 81 83 113z" />
<glyph unicode="&#x631;" horiz-adv-x="747" arabic-form="final" d="M632 39q6 -32 6 -73q0 -124 -71 -309q-79 -207 -171 -252q-46 -23 -118 -23q-86 0 -200 15q-146 20 -182 51q40 30 235.5 128t285.5 165q140 105 140 204q0 69 -97 171q-78 72 -155 144q2 22 66 118q58 87 87 119q62 -67 123 -133q67 -68 165 -68v-296q-78 0 -114 39z " />
<glyph unicode="&#x632;" horiz-adv-x="747" arabic-form="isolated" d="M468 1070l138 -139l-138 -138l-135 140zM450 500q25 -2 112 -138q87 -139 87 -323q0 -173 -85 -390q-102 -263 -241 -263q-102 0 -216 12q-162 17 -198 50q43 35 232 136q195 104 281 171q137 106 137 203q0 88 -255 302q84 172 146 240z" />
<glyph unicode="&#x632;" horiz-adv-x="747" arabic-form="final" d="M463 1081l136 -139l-136 -137l-135 140zM632 39q6 -32 6 -73q0 -124 -71 -309q-79 -207 -171 -252q-46 -23 -118 -23q-86 0 -200 15q-146 20 -182 51q40 30 235.5 128t285.5 165q140 105 140 204q0 69 -97 171q-78 72 -155 144q2 22 66 118q58 87 87 119q62 -67 123 -133 q67 -68 165 -68v-296q-78 0 -114 39z" />
<glyph unicode="&#x633;" horiz-adv-x="2048" arabic-form="isolated" d="M1258 46q8 -36 8 -117q0 -274 -191 -423q-174 -135 -456 -135q-568 0 -568 440q0 93 32 232q41 177 96 177q21 0 21 -29q0 -42 -21.5 -123.5t-21.5 -123.5q0 -269 468 -269q191 0 344 44q226 65 226 205q0 61 -100 193q-75 90 -149 180q31 58 62 117q38 69 74 108 l138 -130q101 -88 150 -88q61 0 92 82q39 105 52 116q26 -26 47 -88q20 -57 47 -77q42 -34 140 -34q37 0 76 22q44 24 44 58q0 39 -90 184q27 51 45 78q32 49 59 65q38 -2 64 -135q20 -103 20 -173q0 -147 -52 -255q-67 -138 -198 -138q-114 0 -174 135q-51 -137 -166 -137 q-44 0 -118 39z" />
<glyph unicode="&#x633;" horiz-adv-x="2048" arabic-form="final" d="M1245 62q14 -90 14 -117q0 -301 -203 -450q-179 -132 -491 -132q-224 0 -365 103q-158 117 -158 333q0 91 34 237q42 181 96 181q17 -9 17 -29q0 -39 -20 -114t-20 -114q0 -290 460 -290q188 0 345 44q231 65 231 201q0 62 -100 193l-150 180q42 82 140 234 q210 -218 286 -218q57 0 86 41q14 20 34 83q16 54 38 69q19 -15 35 -69q18 -62 34 -84q30 -40 90 -40q55 0 84 40q17 23 35 82q17 55 33 70q17 -12 38 -72q23 -64 51 -91q45 -43 129 -37v-296h-20q-83 0 -157 123q-51 -119 -156 -119q-92 0 -170 123q-50 -123 -152 -123 q-81 0 -148 58z" />
<glyph unicode="&#x633;" horiz-adv-x="1152" arabic-form="initial" d="M-18 296q150 0 194 25q27 15 37 69q11 63 54 105q17 -15 33 -70q18 -60 38 -84q35 -40 105 -40q65 0 96 41q17 22 36 85q16 54 38 70q15 -10 33 -65q20 -60 47 -87q45 -43 133 -43q130 0 130 80q0 29 -88 181q18 69 97 144q46 -1 70 -166q16 -113 16 -222 q0 -108 -63 -206q-72 -109 -174 -109q-105 0 -185 125q-77 -127 -180 -127q-102 0 -188 126q-54 -77 -122 -105q-56 -23 -157 -23v296z" />
<glyph unicode="&#x633;" arabic-form="medial" d="M1094 296v-296h-102q-98 0 -172 117q-50 -114 -142 -114q-102 0 -171 120q-45 -118 -150 -118q-101 0 -161 123q-51 -128 -151 -128h-134v296l107 -1q5 1 4 0q0 -1 -3 -1h-11q64 2 93 35q16 19 33.5 77.5t40.5 88.5q20 -15 36 -68q18 -62 32 -83q28 -40 84 -40 q53 0 82 40q15 22 35 84q18 54 37 69q21 -23 38 -78q17 -60 31 -79q27 -36 83 -36q53 0 81 40q16 22 35 83q17 54 34 70q37 -27 45.5 -86.5t41.5 -80.5q56 -34 224 -34z" />
<glyph unicode="&#x634;" horiz-adv-x="2048" arabic-form="isolated" d="M1516 1318l139 -138l-137 -138l-140 140zM1389 1036l130 -124l130 126l140 -135l-137 -135l-131 127l-134 -130l-139 136zM1258 46q8 -36 8 -117q0 -274 -191 -423q-174 -135 -456 -135q-568 0 -568 440q0 93 32 232q41 177 96 177q21 0 21 -29q0 -42 -21.5 -123.5 t-21.5 -123.5q0 -269 468 -269q191 0 344 44q226 65 226 205q0 61 -100 193q-75 90 -149 180q31 58 62 117q38 69 74 108l138 -130q101 -88 150 -88q61 0 92 82q39 105 52 116q26 -26 47 -88q20 -57 47 -77q42 -34 140 -34q37 0 76 22q44 24 44 58q0 39 -90 184q27 51 45 78 q32 49 59 65q38 -2 64 -135q20 -103 20 -173q0 -147 -52 -255q-67 -138 -198 -138q-114 0 -174 135q-51 -137 -166 -137q-44 0 -118 39z" />
<glyph unicode="&#x634;" horiz-adv-x="2048" arabic-form="final" d="M1550 1261l137 -137l-137 -138l-140 136zM1421 982l130 -128l129 127l138 -138l-138 -135l-129 130l-132 -130l-138 139zM1245 62q14 -90 14 -117q0 -301 -203 -450q-179 -132 -491 -132q-224 0 -365 103q-158 117 -158 333q0 91 34 237q42 181 96 181q17 -9 17 -29 q0 -39 -20 -114t-20 -114q0 -290 460 -290q188 0 345 44q231 65 231 201q0 62 -100 193l-150 180q42 82 140 234q210 -218 286 -218q57 0 86 41q14 20 34 83q16 54 38 69q19 -15 35 -69q18 -62 34 -84q30 -40 90 -40q55 0 84 40q17 23 35 82q17 55 33 70q25 -17 39 -74 q14 -62 38 -85q40 -40 141 -40v-297h-20q-83 0 -157 123q-51 -119 -156 -119q-92 0 -170 123q-50 -123 -152 -123q-81 0 -148 58z" />
<glyph unicode="&#x634;" horiz-adv-x="1152" arabic-form="initial" d="M636 1314l134 -138l-135 -139l-135 139zM510 1037l126 -126l124 127l137 -136l-134 -138l-125 126l-126 -126l-137 136zM-18 296q150 0 194 25q27 15 37 69q11 63 54 105q17 -15 33 -70q18 -60 38 -84q35 -40 105 -40q65 0 96 41q17 22 36 85q16 54 38 70q15 -10 33 -65 q20 -60 47 -87q45 -43 133 -43q130 0 130 80q0 29 -88 181q18 69 97 144q46 -1 70 -166q16 -113 16 -222q0 -108 -63 -206q-72 -109 -174 -109q-105 0 -185 125q-77 -127 -180 -127q-102 0 -188 126q-54 -77 -122 -105q-56 -23 -157 -23v296z" />
<glyph unicode="&#x634;" arabic-form="medial" d="M484 1257l133 -138l-135 -138l-131 136zM358 982l128 -126l124 128l136 -139l-136 -138l-126 130l-127 -130l-135 136zM1104 296v-296h-112q-98 0 -172 117q-50 -114 -142 -114q-102 0 -171 120q-45 -118 -150 -118q-101 0 -161 123q-51 -128 -151 -128h-134v296l111 -1 q0 -1 -4 -1h-10q64 2 93 35q16 19 33.5 77.5t40.5 88.5q20 -16 36 -69q18 -62 32 -82q28 -40 84 -40q53 0 82 40q15 22 35 84q18 54 37 69q21 -23 38 -78q17 -60 31 -79q27 -36 83 -36q53 0 81 40q16 22 35 83q17 54 34 70q33 -24 44 -88q11 -60 48 -82q60 -35 229 -31z" />
<glyph unicode="&#x635;" horiz-adv-x="2283" arabic-form="isolated" d="M1317 343q134 161 300 285q213 158 368 158q98 0 157 -64t59 -163q0 -230 -228 -398q-211 -155 -449 -155q-121 0 -243 46l11 -117q0 -299 -209 -443q-178 -122 -491 -122q-524 0 -524 485q0 76 36 209q44 158 93 158q24 0 24 -28q0 -43 -21 -126t-21 -126 q0 -267 459 -267q197 0 352 44q232 66 232 210q0 51 -103 185q-7 9 -147 178q61 119 62 120q38 69 76 112q34 -24 102 -92q63 -63 105 -89zM1812 559q-111 0 -232 -78q-103 -68 -181 -170q51 -20 217 -20q133 0 245 16q188 28 188 91q0 60 -90 113q-81 48 -147 48z" />
<glyph unicode="&#x635;" horiz-adv-x="2283" arabic-form="final" d="M1317 341q139 166 296 285q208 158 364 158q101 0 162.5 -60.5t61.5 -161.5q0 -112 -74 -230q24 -29 73 -35q10 -1 84 -1v-296h-83q-136 0 -221 167q-189 -164 -471 -164q-109 0 -228 49q11 -62 11 -147q0 -265 -206 -410q-181 -128 -457 -128q-243 0 -388 91 q-176 110 -176 339q0 98 32 240q41 183 100 183q24 0 24 -29q0 -42 -20.5 -123t-20.5 -123q0 -153 170 -223q122 -50 302 -50q191 0 344 46q224 67 224 209q0 60 -99 188q-73 88 -147 176q47 97 60 122q39 71 76 111q49 -49 99 -97q59 -56 108 -86zM1812 559 q-210 0 -413 -248q81 -23 248 -23q123 0 231 18q171 29 171 93q0 61 -90 113q-80 47 -147 47z" />
<glyph unicode="&#x635;" horiz-adv-x="1365" arabic-form="initial" d="M343 309q420 471 717 471q106 0 166 -62t60 -169q0 -168 -199 -358t-539 -190q-240 0 -349 115q-40 -67 -90 -93q-46 -23 -128 -23v296q93 0 133 37q21 21 41 81t51 84q9 -11 50 -107q27 -61 87 -82zM875 553q-204 0 -433 -262q235 -7 242 -7q127 0 254 20q187 29 187 87 q0 71 -92 120q-79 42 -158 42z" />
<glyph unicode="&#x635;" horiz-adv-x="1365" arabic-form="medial" d="M-109 296q163 0 210 24q28 15 40 69q14 64 65 109q27 -55 54 -109q37 -66 83 -80q420 471 717 471q106 0 166 -62t60 -169q0 -95 -81 -218q37 -32 116 -36q-2 -2 -3 0h3l8 1h12h104v-296h-135q-172 0 -254 164q-205 -164 -512 -164q-235 0 -345 116q-52 -88 -132 -108 q-33 -8 -176 -8v296zM875 553q-204 0 -433 -262q235 -7 242 -7q127 0 254 20q187 29 187 87q0 71 -92 120q-79 42 -158 42z" />
<glyph unicode="&#x636;" horiz-adv-x="2283" arabic-form="isolated" d="M1439 1152l133 -135l-133 -136l-133 135zM1317 343q134 161 300 285q213 158 368 158q98 0 157 -64t59 -163q0 -230 -228 -398q-211 -155 -449 -155q-121 0 -243 46l11 -117q0 -299 -209 -443q-178 -122 -491 -122q-524 0 -524 485q0 76 36 209q44 158 93 158 q24 0 24 -28q0 -43 -21 -126t-21 -126q0 -267 459 -267q197 0 352 44q232 66 232 210q0 50 -103 184q-15 19 -147 179q61 119 62 120q38 69 76 112q50 -48 99 -96q60 -57 108 -85zM1812 559q-111 0 -232 -78q-103 -68 -181 -170q51 -20 217 -20q133 0 245 16q188 28 188 91 q0 60 -90 113q-81 48 -147 48z" />
<glyph unicode="&#x636;" horiz-adv-x="2283" arabic-form="final" d="M1436 1148l133 -134l-133 -137l-133 135zM1317 341q139 166 296 285q208 158 364 158q101 0 162.5 -60.5t61.5 -161.5q0 -112 -74 -230q24 -29 73 -35q10 -1 84 -1v-296h-83q-136 0 -221 167q-189 -164 -471 -164q-109 0 -228 49q11 -62 11 -147q0 -265 -206 -410 q-181 -128 -457 -128q-243 0 -388 91q-176 110 -176 339q0 98 32 240q41 183 100 183q24 0 24 -29q0 -42 -20.5 -123t-20.5 -123q0 -153 170 -223q122 -50 302 -50q191 0 344 46q224 67 224 209q0 60 -99 188q-73 88 -147 176q47 97 60 122q39 71 76 111q49 -49 99 -97 q59 -56 108 -86zM1812 559q-210 0 -413 -248q81 -23 248 -23q123 0 231 18q171 29 171 93q0 61 -90 113q-80 47 -147 47z" />
<glyph unicode="&#x636;" horiz-adv-x="1365" arabic-form="initial" d="M484 880l-138 138l138 138l139 -138zM343 309q420 471 717 471q106 0 166 -62t60 -169q0 -168 -199 -358t-539 -190q-240 0 -349 115q-40 -67 -90 -93q-46 -23 -128 -23v296q93 0 133 37q21 21 41 81t51 84q9 -11 50 -107q27 -61 87 -82zM875 553q-204 0 -433 -262 q235 -7 242 -7q127 0 254 20q187 29 187 87q0 71 -92 120q-79 42 -158 42z" />
<glyph unicode="&#x636;" horiz-adv-x="1365" arabic-form="medial" d="M496 1153l140 -138l-143 -138l-136 139zM-99 296q155 0 201 25q26 14 39 69q15 63 65 108q27 -55 54 -109q37 -66 83 -80q420 471 717 471q106 0 166 -62t60 -169q0 -95 -81 -218q37 -32 116 -36q-2 -2 -3 0h3l8 1h12h104v-296h-135q-172 0 -254 164q-205 -164 -512 -164 q-235 0 -345 116q-51 -87 -127 -107q-34 -9 -171 -9v296zM875 553q-204 0 -433 -262q235 -7 242 -7q127 0 254 20q187 29 187 87q0 71 -92 120q-79 42 -158 42z" />
<glyph unicode="&#x637;" horiz-adv-x="1600" arabic-form="isolated" d="M471 202q36 111 36 244q0 120 -36 277q-36 136 -71 272q33 54 85 117q68 84 97 86q26 -43 76 -156q55 -122 57 -152l-13 -13q-36 8 -76 25q4 -113 4 -136q0 -219 -71 -468q397 366 731 366q82 0 144 -41q72 -47 72 -124q0 -262 -325 -433q-273 -144 -559 -144 q-115 0 -203 42q-69 33 -211 127q-164 108 -167 138l18 8q338 -35 412 -35zM1107 481q-129 0 -294 -92q-136 -77 -251 -187h127q627 0 627 135q0 68 -74 109q-61 35 -135 35z" />
<glyph unicode="&#x637;" horiz-adv-x="1600" arabic-form="final" d="M475 284q30 80 30 235q0 121 -35 279q-34 136 -69 273q19 38 83 112q68 80 98 93q83 -147 135 -307l-16 -18q-28 8 -69 25q0 -332 -70 -593q412 362 725 362q89 0 148 -36q70 -44 70 -128q0 -119 -107 -253q61 -32 202 -32v-296h-32q-204 0 -314 193q-274 -193 -642 -193 q-86 0 -151.5 24.5t-232.5 131.5q-181 115 -184 150l25 11q67 0 202.5 -16.5t203.5 -16.5zM1097 565q-121 0 -285 -96q-130 -76 -246 -185l151 -2q599 -8 599 142q0 67 -79 108q-66 33 -140 33z" />
<glyph unicode="&#x637;" horiz-adv-x="1259" arabic-form="initial" d="M247 388q412 355 699 355q84 0 148 -49q69 -52 69 -134q0 -90 -97 -218q-158 -208 -411 -285q-186 -57 -505 -57h-169v296h177q28 111 28 251q0 109 -51.5 295.5t-51.5 220.5q0 30 75 114q66 73 104 100l23 -24q8 -34 61 -151q49 -106 50 -137l-16 -16q-24 1 -67 26 q0 -315 -66 -587zM776 558q-121 0 -275 -85q-128 -71 -237 -174q26 -5 53 -5h79q579 0 579 131q0 59 -73 99q-62 34 -126 34z" />
<glyph unicode="&#x637;" horiz-adv-x="1259" arabic-form="medial" d="M396 965l-16 -16q-24 1 -67 26q0 -315 -66 -587q410 354 699 354q87 0 148 -48q66 -53 66 -138q0 -94 -103 -228q48 -31 138 -35l-17 1h-2q0 1 12 1l31 1h119v-296h-158q-84 0 -158 58q-66 52 -105 134q-236 -192 -672 -192h-344v296h257q28 111 28 251 q0 109 -51.5 295.5t-51.5 220.5q0 26 77.5 118t101.5 96l23 -24q7 -35 61 -151q49 -106 50 -137zM776 558q-121 0 -275 -85q-128 -71 -237 -174q26 -5 53 -5h79q579 0 579 131q0 59 -73 99q-62 34 -126 34z" />
<glyph unicode="&#x638;" horiz-adv-x="1600" arabic-form="isolated" d="M471 202q36 111 36 244q0 120 -36 277q-36 136 -71 272q33 53 84 116q69 85 98 87q26 -42 76 -155q55 -123 57 -153l-13 -13q-37 8 -76 25q4 -113 4 -136q0 -219 -71 -468q397 366 731 366q82 0 144 -41q72 -47 72 -124q0 -262 -325 -433q-273 -144 -559 -144 q-115 0 -203 42q-69 33 -211 127q-165 108 -167 138l18 8q71 0 205 -16q144 -17 207 -19zM1107 481q-129 0 -294 -92q-136 -77 -251 -187h127q627 0 627 135q0 68 -74 109q-61 35 -135 35zM1071 1147l139 -138l-139 -136l-138 136z" />
<glyph unicode="&#x638;" horiz-adv-x="1600" arabic-form="final" d="M475 284q30 80 30 235q0 121 -35 279q-34 136 -69 273q19 38 83 112q68 80 98 93q83 -147 135 -307l-16 -18q-28 8 -69 25q0 -332 -70 -593q412 362 725 362q89 0 148 -36q70 -44 70 -128q0 -119 -107 -253q51 -30 202 -32v-296h-32q-204 0 -314 193q-274 -193 -642 -193 q-88 0 -151 24q-67 25 -233 132q-181 115 -184 150l25 11q73 0 203 -15q142 -16 203 -18zM1097 565q-121 0 -285 -96q-130 -76 -246 -185l151 -2q599 -8 599 142q0 67 -79 108q-66 33 -140 33zM931 1091l137 136l139 -136l-138 -139z" />
<glyph unicode="&#x638;" horiz-adv-x="1259" arabic-form="initial" d="M247 388q412 355 699 355q84 0 148 -49q69 -52 69 -134q0 -90 -97 -218q-158 -208 -411 -285q-186 -57 -505 -57h-169v296h177q28 111 28 251q0 109 -51.5 295.5t-51.5 220.5q0 30 75 114q66 73 104 100l23 -24q8 -34 61 -151q49 -106 50 -137l-16 -16q-24 1 -67 26 q0 -315 -66 -587zM776 558q-121 0 -275 -85q-128 -71 -237 -174q26 -5 53 -5h79q579 0 579 131q0 59 -73 99q-62 34 -126 34zM738 1228l138 -140l-138 -139l-134 139z" />
<glyph unicode="&#x638;" horiz-adv-x="1259" arabic-form="medial" d="M396 965l-16 -16q-24 1 -67 26q0 -315 -66 -587q410 354 699 354q87 0 148 -48q66 -53 66 -138q0 -94 -103 -228q47 -31 132 -34q-12 0 -12 1h2h6l28 1h115v-296h-148q-84 0 -158 58q-66 52 -105 134q-236 -192 -672 -192h-314v296h227q28 111 28 251q0 109 -51.5 295.5 t-51.5 220.5q0 26 77.5 118t101.5 96l23 -24q7 -35 61 -151q49 -106 50 -137zM776 558q-121 0 -275 -85q-128 -71 -237 -174q26 -5 53 -5h79q579 0 579 131q0 59 -73 99q-62 34 -126 34zM737 947l-137 140l137 139l136 -139z" />
<glyph unicode="&#x639;" horiz-adv-x="1365" arabic-form="isolated" d="M586 340q-155 63 -155 176q0 61 81 225q147 296 377 296q111 0 205 -77q100 -83 100 -193q0 -15 -20 -21q-222 72 -319 72q-85 0 -168 -31q-108 -40 -108 -109q0 -160 431 -160q58 0 142 3t99 3q26 0 47 -14q-79 -241 -135 -241q-63 0 -189.5 11.5t-189.5 11.5 q-188 0 -309 -98q-132 -107 -132 -290q0 -205 151 -318q136 -101 348 -101q71 0 211.5 18.5t209.5 18.5q35 0 35 -28q0 -59 -267 -96q-194 -26 -340 -26q-245 0 -407 91q-201 113 -201 339q0 202 157 350q133 126 346 188z" />
<glyph unicode="&#x639;" horiz-adv-x="1259" arabic-form="final" d="M724 438q-27 28 -99 77q-69 46 -97 81q5 75 128 129q103 44 190 44q96 0 162 -29q90 -39 90 -123q0 -96 -212 -198q146 -123 373 -123v-296h-63q-129 0 -208 52q-63 41 -117 134q-50 93 -99 186q-411 -144 -411 -460q0 -234 190 -352q157 -98 406 -98q32 0 95.5 6t95.5 6 q37 0 37 -26q0 -38 -184 -59q-125 -15 -223 -15q-273 0 -459 100q-234 126 -234 375q0 386 639 589z" />
<glyph unicode="&#x639;" horiz-adv-x="917" arabic-form="initial" d="M125 296q-62 51 -62 124q0 138 128 287q134 156 279 156q108 0 195 -82q75 -71 116 -184q-9 -17 -29 -17q-53 0 -161.5 25t-163.5 25q-254 0 -254 -121q0 -107 154 -161q110 -38 245 -38q143 0 247 11l17 -16q0 -28 -53 -134.5t-73 -119t-65 -12.5q-187 0 -294 46 q-121 -85 -370 -85v296h144z" />
<glyph unicode="&#x639;" horiz-adv-x="683" arabic-form="medial" d="M262 420q-28 28 -112 85q-76 51 -107 88q2 27 82 101t241 74q93 0 159 -31q88 -40 88 -122q0 -68 -74 -123q-38 -28 -134 -72q58 -59 171 -94q100 -30 196 -30v-296h-22q-178 0 -264 55.5t-153 217.5q-108 -273 -299 -273h-133v296l100 -1q141 -1 261 125z" />
<glyph unicode="&#x63a;" horiz-adv-x="1365" arabic-form="isolated" d="M869 1374l136 -138l-136 -138l-131 140zM586 340q-155 63 -155 176q0 61 81 225q147 296 377 296q111 0 205 -77q100 -83 100 -193q0 -15 -20 -21q-222 72 -319 72q-85 0 -168 -31q-108 -40 -108 -109q0 -160 431 -160q58 0 142 3t99 3q26 0 47 -14q-79 -241 -135 -241 q-63 0 -189.5 11.5t-189.5 11.5q-188 0 -309 -98q-132 -107 -132 -290q0 -205 151 -318q136 -101 348 -101q71 0 211.5 18.5t209.5 18.5q35 0 35 -28q0 -59 -267 -96q-194 -26 -340 -26q-245 0 -407 91q-201 113 -201 339q0 202 157 350q133 126 346 188z" />
<glyph unicode="&#x63a;" horiz-adv-x="1259" arabic-form="final" d="M816 1261l138 -138l-135 -140l-137 139zM724 438q-27 28 -99 77q-69 46 -97 81q5 75 128 129q103 44 190 44q96 0 162 -29q90 -39 90 -123q0 -96 -212 -198q146 -123 373 -123v-296h-63q-129 0 -208 52q-63 41 -117 134q-50 93 -99 186q-411 -144 -411 -460 q0 -234 190 -352q157 -98 406 -98q32 0 95.5 6t95.5 6q37 0 37 -26q0 -38 -184 -59q-125 -15 -223 -15q-273 0 -459 100q-234 126 -234 375q0 386 639 589z" />
<glyph unicode="&#x63a;" horiz-adv-x="917" arabic-form="initial" d="M450 1263l138 -138l-136 -136l-137 136zM125 296q-62 51 -62 124q0 138 128 287q134 156 279 156q108 0 195 -82q75 -71 116 -184q-9 -17 -29 -17q-53 0 -161.5 25t-163.5 25q-254 0 -254 -121q0 -107 154 -161q110 -38 245 -38q143 0 247 11l17 -16q0 -28 -53 -134.5 t-73 -119t-65 -12.5q-187 0 -294 46q-121 -85 -370 -85v296h144z" />
<glyph unicode="&#x63a;" horiz-adv-x="683" arabic-form="medial" d="M332 984l-136 138l135 138l135 -139zM262 420q-28 28 -112 85q-76 50 -107 88q2 27 82.5 101t240.5 74q93 0 159 -31q88 -40 88 -122q0 -68 -74 -123q-38 -28 -134 -72q57 -59 161 -94q94 -31 186 -30v-296h-22q-167 0 -250.5 58.5t-146.5 214.5q-108 -273 -299 -273 h-123v296l90 -1q141 -2 261 125z" />
<glyph unicode="&#x641;" horiz-adv-x="1707" arabic-form="isolated" d="M1191 1241l139 138l140 -138l-140 -138zM1517 426q-138 -7 -226 -7q-124 0 -168 21q-72 34 -72 143q0 141 65 273q80 160 205 160q164 0 245 -186q61 -139 61 -324q0 -320 -311 -441q-201 -78 -589 -78q-308 0 -450 57q-226 91 -226 352q0 81 24 192q31 146 77 146 q31 0 31 -30q0 -24 -8.5 -70t-8.5 -70q0 -196 250 -253q111 -26 403 -26q698 0 698 141zM1454 652q-69 134 -185 134q-39 0 -70 -21q-36 -24 -36 -61q0 -57 163 -57h51q44 0 77 5z" />
<glyph unicode="&#x641;" horiz-adv-x="1941" arabic-form="final" d="M1623 1257l140 -141l-141 -134l-138 139zM1411 251q-120 114 -120 191q0 101 127.5 221t229.5 120q100 0 161 -82q56 -75 56 -178q0 -116 -84 -227h162v-296h-24q-165 0 -328 106q-392 -274 -950 -274q-260 0 -396 79q-175 102 -175 344q0 70 20 169q26 129 64 130 q19 -8 19 -53q0 -20 -4.5 -55.5t-4.5 -43.5q0 -279 514 -279q388 0 733 128zM1598 325q173 75 173 123q0 55 -73 91q-62 30 -123 30q-48 0 -109 -24q-74 -28 -74 -67t84 -92q62 -39 122 -61z" />
<glyph unicode="&#x641;" horiz-adv-x="683" arabic-form="initial" d="M323 1379l133 -138l-133 -136l-136 138zM507 423q-89 -8 -206 -8t-165 21q-76 34 -76 136q0 155 56 281q73 163 207 163q153 0 233 -191q60 -144 60 -319q0 -248 -151 -381q-142 -125 -394 -125h-90v296q215 0 299 10q227 26 227 117zM448 654q-23 54 -71 91 q-52 40 -107 40q-39 0 -70 -22q-34 -25 -34 -62q0 -54 189 -54q62 0 93 7z" />
<glyph unicode="&#x641;" horiz-adv-x="683" arabic-form="medial" d="M369 981l-138 138l138 138l133 -137zM135 296q-79 94 -79 138q0 112 116 229t229 117q93 0 151 -81q52 -73 52 -170q0 -125 -83 -233h232v-296h-124q-158 0 -298 114q-138 -114 -285 -114h-115v296h204zM336 325q176 54 176 118q0 52 -72 92q-63 35 -120 35 q-44 0 -101 -26q-68 -30 -68 -66q0 -34 75 -88q55 -40 110 -65z" />
<glyph unicode="&#x642;" horiz-adv-x="1493" arabic-form="isolated" d="M963 1367l127 -126l123 127l136 -138l-135 -138l-125 126l-124 -128l-135 140zM1288 228q-251 7 -305 17q-204 37 -204 170q0 152 83 333q98 214 228 214q163 0 242 -235q55 -165 55 -372q0 -755 -645 -755q-296 0 -440 75q-197 104 -197 372q0 87 34 229q41 176 93 176 q23 0 23 -30q0 -31 -14.5 -91t-14.5 -91q0 -334 502 -334q560 0 560 322zM1237 514q-92 186 -210 186q-46 0 -85 -33.5t-39 -78.5q0 -34 109 -56q84 -18 143 -18h82z" />
<glyph unicode="&#x642;" horiz-adv-x="1493" arabic-form="final" d="M917 1305l127 -129l128 128l134 -141l-133 -135l-127 128l-126 -130l-135 139zM1228 4q-222 0 -304 15q-202 38 -202 169q0 150 83 334q98 216 226 216q225 0 295 -442h167v-296h-177q-30 -321 -188 -471q-162 -153 -483 -153q-238 0 -382 99q-167 115 -167 342 q0 85 35 231q43 177 95 177q22 0 22 -31q0 -39 -22 -117.5t-22 -119.5q0 -278 457 -278q210 0 360 62q207 84 207 263zM1181 300q-90 174 -212 174q-44 0 -82.5 -32t-38.5 -75q0 -67 215 -67h118z" />
<glyph unicode="&#x642;" horiz-adv-x="683" arabic-form="initial" d="M69 1243l133 139l126 -129l125 128l137 -140l-135 -136l-126 126l-127 -128zM507 423q-89 -8 -206 -8t-165 21q-76 34 -76 136q0 155 56 281q73 163 207 163q153 0 233 -191q60 -144 60 -319q0 -248 -151 -381q-142 -125 -394 -125h-90v296q215 0 299 10q227 26 227 117z M448 654q-23 54 -71 91q-52 40 -107 40q-39 0 -70 -22q-34 -25 -34 -62q0 -54 189 -54q62 0 93 7z" />
<glyph unicode="&#x642;" horiz-adv-x="683" arabic-form="medial" d="M469 978l-128 132l-124 -129l-134 135l131 142l126 -130l127 127l137 -138zM135 296q-79 94 -79 138q0 112 116 229t229 117q93 0 151 -81q52 -73 52 -170q0 -125 -83 -233h232v-296h-124q-158 0 -298 114q-138 -114 -285 -114h-125v296h214zM336 325q176 54 176 118 q0 52 -72 92q-63 35 -120 35q-44 0 -101 -26q-68 -30 -68 -66q0 -34 75 -88q55 -40 110 -65z" />
<glyph unicode="&#x643;" horiz-adv-x="1941" arabic-form="isolated" d="M871 296q336 0 336 67q0 43 -121.5 235t-121.5 211q0 45 28 119t58 102q451 163 914 312v-193l-408 -132q-234 -79 -401 -153q64 -112 129 -223q67 -135 67 -245q0 -15 -9 -44q-65 -212 -173 -287q-86 -59 -257 -59q-37 0 -128.5 3t-145.5 3q40 -2 115 -12 q-57 -3 -128 -3q-217 0 -363 71q-192 94 -192 287q0 72 25 181q31 138 73 138q32 0 32 -37q0 -16 -6 -49t-6 -49q0 -247 692 -247zM519 699q-104 26 -104 75q0 53 76 127.5t129 74.5q21 0 49 -26t37 -48q-13 -9 -117 -29q-80 -16 -80 -55q0 -47 105 -47q27 0 76.5 17.5 t75.5 17.5l15 -9q-12 -35 -46 -98q-54 -17 -159 -59q-49 -31 -153 -88l-15 19q0 39 111 128z" />
<glyph unicode="&#x643;" horiz-adv-x="1941" arabic-form="final" d="M871 296q336 0 336 67q0 43 -121.5 235.5t-121.5 210.5q0 45 28 119.5t58 101.5q451 163 914 312v-193l-408 -132q-234 -79 -401 -153q143 -257 168 -295q122 -192 222 -240q61 -29 201 -34q-26 1 210 1v-296h-138q-192 0 -299.5 52.5t-222.5 203.5q-60 -151 -161 -209 q-81 -45 -219 -45q-41 0 -134 5t-144 5q40 -2 115 -12q-57 -3 -128 -3q-217 0 -363 71q-192 93 -192 287q0 72 25 181q31 138 73 138q32 0 32 -37q0 -16 -6 -49t-6 -49q0 -247 692 -247zM519 699q-104 26 -104 75q0 53 76 127.5t129 74.5q21 0 49 -26t37 -48 q-13 -9 -117 -29q-80 -16 -80 -55q0 -47 105 -47q27 0 76.5 17.5t75.5 17.5l15 -9q-12 -35 -46 -98q-54 -17 -159 -59q-49 -31 -153 -88l-15 19q0 39 111 128z" />
<glyph unicode="&#x643;" horiz-adv-x="1067" arabic-form="initial" d="M-19 0v296q336 0 336 67q0 44 -121.5 235.5t-121.5 210.5q0 45 28 119t58 102q451 163 914 312v-193l-408 -132q-234 -79 -401 -153q106 -191 126 -237q59 -134 59 -260q0 -118 -98.5 -233.5t-213.5 -130.5q-23 -3 -157 -3z" />
<glyph unicode="&#x643;" horiz-adv-x="1067" arabic-form="medial" d="M1074 1342v-193l-408 -132q-234 -79 -401 -153q143 -257 168 -295q122 -192 222 -240q67 -32 249 -36l-34 1q92 2 276 2v-296h-218q-192 0 -299.5 52.5t-222.5 203.5q-97 -256 -332 -256h-143v296l105 -2q281 -6 281 69q0 43 -121.5 235.5t-121.5 210.5q0 46 27 118 q28 76 59 103q451 163 914 312z" />
<glyph unicode="&#x644;" horiz-adv-x="1493" arabic-form="isolated" d="M1305 995l-14 -683q-7 -326 -34 -468q-45 -227 -174 -337q-152 -130 -450 -130q-232 0 -372 87q-170 106 -170 324q0 89 29 233q37 181 85 181q18 -9 18 -31q0 -33 -11 -98t-11 -98q0 -171 158 -249q119 -59 310 -59q158 0 307 54q201 74 201 206q0 231 -60 780 q-4 40 -31 163q-22 101 -22 164q0 35 81 141q78 103 115 124l20 -15q79 -186 119 -296l-14 -19q-30 0 -80 26z" />
<glyph unicode="&#x644;" horiz-adv-x="1493" arabic-form="final" d="M1113 1074q0 24 97.5 123t121.5 99q31 0 31 -46q0 -128 -14.5 -386t-14.5 -387q0 -181 159 -181v-296h-30q-84 0 -161 70q0 -386 -150 -539q-152 -156 -537 -156q-216 0 -355 101q-155 114 -155 323q0 93 27 231q35 179 85 179q29 0 29 -30q0 -33 -13 -97.5t-13 -97.5 q0 -318 449 -318q163 0 316 50q208 67 208 192q0 128 -10 280q-5 74 -42 448q-28 285 -28 438z" />
<glyph unicode="&#x644;" horiz-adv-x="469" arabic-form="initial" d="M-19 296q108 0 159 17q87 30 87 116q0 140 -39 332q-36 164 -73 328q11 29 83 115.5t92 87.5q27 -38 79 -155q52 -121 57 -161l-12 -12q-27 6 -68 20q5 -175 5 -162v-218q0 -528 -207 -588q-56 -16 -163 -16v296z" />
<glyph unicode="&#x644;" horiz-adv-x="576" arabic-form="medial" d="M190 1169q110 106 184 158q27 0 27 -63q0 -122 -13.5 -366.5t-13.5 -366.5q0 -162 58 -203q44 -32 214 -32v-296h-154q-116 0 -209 139q-91 -139 -248 -139h-114v296q155 0 189 13q79 30 84 150q7 180 7 483q0 160 -11 227z" />
<glyph unicode="&#x645;" arabic-form="isolated" d="M378 421q-34 92 -34 115q0 65 71 155q75 95 137 95q101 0 250 -106q156 -112 156 -208q0 -107 -54 -211q-64 -123 -160 -123q-65 0 -194 13t-194 13q-52 0 -79 -30q-16 -42 -16 -170q0 -69 6 -207.5t6 -207.5q0 -84 -18 -196q-24 -152 -64 -152q-34 0 -45 113 q-1 8 -6 140q-26 697 -26 719q0 110 77 182t187 66zM457 416q301 -38 381 -38q23 0 22 21q-145 163 -357 163q-70 0 -70 -40q0 -26 24 -106z" />
<glyph unicode="&#x645;" horiz-adv-x="1152" arabic-form="final" d="M552 462q0 80 17 121q64 -33 185 -119q117 -83 183 -115q107 -52 215 -53v-296q-63 0 -116 21q21 -68 21 -125q0 -89 -49 -145t-137 -56q-150 0 -237 173q-61 121 -83 306q-142 0 -190 -17q-93 -33 -93 -148q0 -72 8.5 -217t8.5 -217q0 -204 -70 -204q-23 0 -35 46 q-47 185 -47 654q0 391 419 391zM629 280v-43q0 -112 57 -207q67 -110 171 -110q41 0 72.5 25t31.5 65q0 13 -12 52q-169 100 -320 218z" />
<glyph unicode="&#x645;" horiz-adv-x="789" arabic-form="initial" d="M-19 296q149 0 178 34q14 17 21 129q7 118 41 174q54 88 188 88q143 0 230 -197q71 -159 71 -324q0 -92 -60 -165q-64 -78 -154 -78q-142 0 -274 279q-59 -236 -241 -236v296zM410 610q-87 0 -87 -105q0 -86 68 -210q74 -138 150 -138t76 102q0 104 -53 216 q-64 135 -154 135z" />
<glyph unicode="&#x645;" arabic-form="medial" d="M-79 296q156 0 201 17q61 23 84 143q30 162 51 201q55 102 201 102q96 0 178 -106q5 -7 125 -205q70 -116 133 -131q97 -23 200 -21v-296h-135q-135 0 -207 161q-46 -87 -81 -124q-56 -59 -129 -59q-162 0 -279 228q-73 -126 -134 -164q-65 -40 -208 -42v296zM469 623 q-39 0 -66.5 -26.5t-27.5 -65.5q0 -103 69 -208q76 -117 172 -117q67 0 67 72q0 90 -63 210q-71 135 -151 135z" />
<glyph unicode="&#x646;" horiz-adv-x="1365" arabic-form="isolated" d="M706 951l137 -138l-137 -138l-134 137zM1102 753q30 -5 107 -157q80 -157 80 -391q0 -607 -633 -607q-573 0 -573 444q0 90 35 233q43 177 97 177q21 0 21 -25q0 -37 -22 -114.5t-22 -115.5q0 -294 455 -294q185 0 337 44q224 64 224 200q0 87 -96 196q-131 148 -145 173 q37 83 59 124q41 79 76 113z" />
<glyph unicode="&#x646;" horiz-adv-x="1493" arabic-form="final" d="M688 773l137 -141l-136 -139l-138 139zM1294 58q17 -61 17 -162q0 -243 -188 -390q-174 -135 -423 -135q-590 0 -590 434q0 99 32 239q41 181 101 181q17 -8 17 -28q0 -43 -20 -126t-20 -126q0 -267 469 -267q182 0 328 42q217 62 217 195q0 70 -94 195q-2 1 -148 176 q31 63 61 126q39 73 77 115q77 -78 155 -157q84 -74 208 -74v-296q-135 3 -199 58z" />
<glyph unicode="&#x646;" horiz-adv-x="576" arabic-form="initial" d="M275 1260l139 -138l-136 -135l-137 137zM290 820q132 -138 132 -384q0 -436 -391 -436h-50v296q328 0 328 74q0 33 -77 114q-84 89 -94 116q16 43 67.5 117.5t84.5 102.5z" />
<glyph unicode="&#x646;" horiz-adv-x="576" arabic-form="medial" d="M277 1262l135 -137l-136 -137l-134 138zM-99 296q176 0 233 32q72 42 115 199q12 43 27 60q38 -35 51 -121.5t56 -118.5q69 -51 263 -51v-296q-163 0 -237 40q-94 51 -131 195q-42 -148 -135 -197q-73 -38 -242 -38v296z" />
<glyph unicode="&#x647;" horiz-adv-x="917" arabic-form="isolated" d="M336 772q113 0 287 -137q188 -148 188 -285q0 -172 -106 -298q-113 -134 -281 -134q-316 0 -316 290q0 106 73 321q82 243 155 243zM278 542q-61 -89 -61 -193q0 -84 105 -124q76 -29 177 -29q60 0 134 24q94 30 94 75q0 43 -196 138q-124 60 -253 109z" />
<glyph unicode="&#x647;" horiz-adv-x="879" arabic-form="final" d="M475 719l-13 111q46 109 144 199q30 -58 51 -244q27 -238 41 -303q34 -155 102 -179q20 -7 79 -7v-296h-58q-137 0 -203 86q-46 61 -80 214q-53 -87 -98 -130q-71 1 -187 46q-136 53 -136 109q0 140 119 243q43 37 239 151zM252 452q75 -45 274 -86l-37 242 q-156 -87 -237 -156z" />
<glyph unicode="&#x647;" horiz-adv-x="1152" arabic-form="initial" d="M263 675q-36 10 -93 45q13 58 46 155q40 118 61 135q231 -105 471 -296q308 -246 308 -418q0 -101 -50 -191q-60 -105 -153 -105q-62 0 -387 152q-205 -156 -416 -153l-69 1v296h209q-115 81 -115 155q0 123 188 224zM461 347q107 42 107 92q0 62 -68 115q-64 50 -129 50 q-82 0 -135 -43q-11 -28 -11 -63q59 -70 236 -151zM662 478q-6 -127 -63 -199q245 -101 300 -101q48 0 48 68q0 71 -285 232z" />
<glyph unicode="&#x647;" horiz-adv-x="789" arabic-form="medial" d="M107 296q50 172 163 305q135 160 291 160q60 0 99 -45.5t39 -106.5q0 -156 -190 -313h380v-296h-367q186 -116 186 -243q0 -85 -53.5 -138.5t-139.5 -53.5q-165 0 -283 139q-103 122 -133 296h-208v296h216zM194 296h199q103 97 103 161q0 73 -78 73q-138 0 -224 -234z M182 0q30 -110 116.5 -176t200.5 -66q71 0 89 52q-54 91 -230 190h-176z" />
<glyph unicode="&#x648;" horiz-adv-x="789" arabic-form="isolated" d="M588 4l-124 -2q-383 -6 -383 186q0 153 83 334q99 213 231 213q152 0 233 -222q61 -165 61 -352q0 -207 -93 -469q-114 -324 -275 -324q-109 0 -251 17q-155 19 -155 43q0 21 167 93q177 77 317 190q189 153 189 293zM543 288q-86 188 -214 188q-42 0 -82.5 -34 t-40.5 -75q0 -79 337 -79z" />
<glyph unicode="&#x648;" horiz-adv-x="917" arabic-form="final" d="M594 4q-227 0 -303 14q-199 38 -199 173q0 147 83 331q97 216 222 216q220 0 296 -442h226v-296h-239q-15 -164 -102 -370q-108 -257 -227 -257q-163 0 -287 17q-141 19 -141 44q0 22 155 88q182 78 323 189q193 152 193 293zM550 297q-90 177 -215 177q-41 0 -80 -32.5 t-39 -72.5q0 -72 228 -72h106z" />
<glyph unicode="&#x649;" horiz-adv-x="1707" arabic-form="isolated" d="M1342 956q116 0 203.5 -81.5t87.5 -197.5l-6 -13q-41 4 -160 36q-99 27 -202 27q-108 0 -206 -67q-109 -74 -109 -176q0 -27 38 -34l216 -38q88 -13 175 -25q100 -19 147 -61q62 -54 62 -162q0 -332 -285 -468q-205 -98 -583 -98q-637 0 -637 449q0 95 44 275 q51 212 106 212q26 0 26 -29q0 -45 -23.5 -132.5t-23.5 -132.5q0 -230 239 -314q147 -52 432 -52q626 0 626 176q0 48 -174 64q-263 25 -324 40q-174 45 -174 161q0 110 127 375.5t378 265.5z" />
<glyph unicode="&#x649;" horiz-adv-x="1600" arabic-form="final" d="M1600 0q-498 12 -508 12q-184 0 -184 -63q0 -59 232 -59q37 0 86.5 1.5t54.5 1.5q126 0 166 -12q86 -25 86 -119q0 -248 -315 -338q-180 -51 -517 -51q-271 0 -418 61q-218 92 -218 323q0 86 35 247q41 193 87 193q31 0 31 -32q0 -31 -18 -91.5t-18 -92.5 q0 -233 266 -320q160 -52 458 -52q152 0 297 18q227 28 227 86q0 26 -92 26q-9 0 -84.5 -4.5t-130.5 -4.5q-326 0 -326 144q0 65 66 165q105 159 331 218q151 39 406 39v-296z" />
<glyph unicode="&#x64a;" horiz-adv-x="1707" arabic-form="isolated" d="M1342 956q116 0 203.5 -81.5t87.5 -197.5l-6 -13q-41 4 -160 36q-99 27 -202 27q-108 0 -206 -67q-109 -74 -109 -176q0 -27 38 -34l216 -38q88 -13 175 -25q100 -19 147 -61q62 -54 62 -162q0 -332 -285 -468q-205 -98 -583 -98q-637 0 -637 449q0 95 44 275 q51 212 106 212q26 0 26 -29q0 -45 -23.5 -132.5t-23.5 -132.5q0 -230 239 -314q147 -52 432 -52q626 0 626 176q0 48 -174 64q-263 25 -324 40q-174 45 -174 161q0 110 127 375.5t378 265.5zM622 -566l117 -131l120 129l129 -142l-129 -138l-118 128l-118 -128l-128 140z " />
<glyph unicode="&#x64a;" horiz-adv-x="1600" arabic-form="final" d="M1600 0q-498 12 -508 12q-184 0 -184 -63q0 -59 232 -59q37 0 86.5 1.5t54.5 1.5q126 0 166 -12q86 -25 86 -119q0 -248 -315 -338q-180 -51 -517 -51q-271 0 -418 61q-218 92 -218 323q0 86 35 247q41 193 87 193q31 0 31 -32q0 -31 -18 -91.5t-18 -92.5 q0 -233 266 -320q160 -52 458 -52q152 0 297 18q227 28 227 86q0 26 -92 26q-9 0 -84.5 -4.5t-130.5 -4.5q-326 0 -326 144q0 65 66 165q105 159 331 218q151 39 406 39v-296zM622 -786l117 -131l120 129l129 -142l-129 -138l-118 128l-118 -128l-128 140z" />
<glyph unicode="&#x64a;" horiz-adv-x="576" arabic-form="initial" d="M290 820q132 -138 132 -384q0 -436 -391 -436h-50v296q328 0 328 74q0 33 -77 114q-84 89 -94 116q16 43 67.5 117.5t84.5 102.5zM158 -118l120 -129l117 128l127 -136l-126 -139l-119 128l-116 -128l-127 137z" />
<glyph unicode="&#x64a;" horiz-adv-x="576" arabic-form="medial" d="M-89 296q180 0 248 48q44 30 62 112q21 92 55 131q39 -36 51 -125q12 -84 58 -115q72 -51 281 -51v-296q-169 0 -244 36q-106 50 -144 199q-42 -147 -130 -196q-72 -39 -237 -39v296zM162 -114l123 -132l124 128l121 -137l-121 -137l-124 129l-121 -127l-124 135z" />
<glyph unicode="&#xd;" horiz-adv-x="500" />
<glyph unicode=" "  horiz-adv-x="500" />
<glyph unicode="&#x09;" horiz-adv-x="500" />
<glyph unicode="&#xa0;" horiz-adv-x="500" />
<glyph unicode="!" horiz-adv-x="650" d="M400 478l-105 -106v480q0 63 -115 267q77 0 220 176v-817zM438 219q0 -36 -26.5 -63t-62.5 -27q-37 0 -64 26.5t-27 63.5q0 36 27 63t63 27q37 0 63.5 -26.5t26.5 -63.5z" />
<glyph unicode="&#x22;" horiz-adv-x="552" d="M483 1211q0 -65 -21 -201.5t-21 -210.5h-77q0 72 -19.5 208.5t-19.5 203.5q0 74 79 74q31 0 55 -21.5t24 -52.5zM226 1211q0 -66 -20 -202.5t-20 -209.5h-77q0 72 -19.5 208.5t-19.5 203.5q0 74 76 74q32 0 56 -21t24 -53z" />
<glyph unicode="#" horiz-adv-x="1365" d="M1273 477h-327l-87 -409h-104l87 409h-443l-85 -409h-104l85 409h-204v104h226l82 389h-308v104h329l88 411h104l-88 -411h440l86 411h104l-86 -411h205v-104h-225l-81 -389h306v-104zM944 970h-441l-82 -387h442z" />
<glyph unicode="$" horiz-adv-x="939" d="M881 505q0 -131 -107 -241q-89 -93 -227 -149v-168h-72v156l-63 -2q-125 -4 -296 68v352h67q42 -335 292 -352v540q-169 110 -215 152q-116 106 -116 224q0 120 108 221q97 91 223 121v164h72v-155h39q88 0 230 -49v-312h-69q-30 249 -200 291v-481q47 -36 109 -78 q116 -78 156 -123q69 -77 69 -179zM475 934v435q-78 -7 -128 -55q-53 -51 -53 -128q0 -135 181 -252zM724 398q0 149 -177 258v-479q177 44 177 221z" />
<glyph unicode="%" horiz-adv-x="1472" d="M1389 494q0 -151 -90 -264q-96 -121 -243 -121q-123 0 -199 89q-73 84 -73 209q0 153 89 268q96 124 245 124q126 0 201 -91q70 -86 70 -214zM1222 1464l-887 -1396h-85l887 1396h85zM689 1118q0 -150 -93 -263q-98 -119 -245 -119q-123 0 -198 90q-69 84 -69 210 q0 147 91 263q98 125 242 125q127 0 202 -91q70 -86 70 -215zM1273 394q0 115 -50 215q-62 124 -166 124q-79 0 -119 -68q-34 -57 -34 -141q0 -115 48 -218q60 -128 162 -128q159 0 159 216zM570 1026q0 112 -50 211q-61 121 -163 121q-155 0 -155 -215q0 -119 49 -218 q62 -125 168 -125q151 0 151 226z" />
<glyph unicode="&#x26;" horiz-adv-x="1301" d="M1318 411q-164 -311 -267 -311q-118 0 -342 278q-103 -130 -160 -181q-108 -97 -213 -97q-110 0 -189 88q-75 84 -75 196q0 201 334 456q-109 206 -109 322q0 134 143 211q118 64 265 64q90 0 152 -39q74 -46 74 -131q0 -81 -81 -156q-37 -34 -149 -105q-72 -45 -124 -83 q142 -229 213 -336q93 144 120 336h358v-51q-248 0 -444 -329q202 -271 293 -271q62 0 159 159zM765 1263q0 56 -38.5 88t-95.5 32q-74 0 -118 -48t-44 -122q0 -84 87 -249q104 95 134 132q75 90 75 167zM681 414q-166 224 -255 386q-164 -170 -164 -331q0 -87 44 -149 q49 -70 133 -70q110 0 242 164z" />
<glyph unicode="'" horiz-adv-x="320" d="M267 1342q0 -43 -12 -114l-54 -321h-39l-49 325q-12 80 -12 110q0 95 85 95q81 0 81 -95z" />
<glyph unicode="(" horiz-adv-x="653" d="M563 -531l-31 -45q-172 218 -238 349q-151 299 -151 665q0 349 152 652q73 147 235 350l33 -41q-231 -533 -231 -954q0 -339 77 -596q30 -99 154 -380z" />
<glyph unicode=")" horiz-adv-x="653" d="M520 425q0 -349 -152 -652q-70 -139 -233 -349l-34 41q228 546 228 954q0 341 -75 597q-34 116 -152 378l29 46q173 -221 238 -351q151 -300 151 -664z" />
<glyph unicode="*" horiz-adv-x="680" d="M640 931l-237 52q-3 -10 -9 -19l211 -123l-102 -102l-131 205q-12 -6 -20 -7l63 -237h-144l52 238q-7 2 -15 6l-131 -205l-102 102l211 123q-6 12 -8 19l-238 -52v144l237 -63q2 11 6 21l-204 130l102 102l122 -210q11 5 20 8l-52 237h144l-63 -236q13 -3 25 -9l122 210 l102 -102l-204 -130q6 -12 7 -21l236 63v-144zM375 1000q0 35 -35 35t-35 -35t35 -35t35 35z" />
<glyph unicode="+" horiz-adv-x="946" d="M835 452h-321v-323h-84v323h-325v83h325v328h84v-328h321v-83z" />
<glyph unicode="," horiz-adv-x="415" d="M301 204q0 -155 -175 -266q0 112 -28 127q12 4 37 19q36 29 36 58q-52 18 -52 79q0 37 25 62.5t62 25.5q95 0 95 -105z" />
<glyph unicode="-" horiz-adv-x="946" d="M835 452h-730v83h730v-83z" />
<glyph unicode="." horiz-adv-x="415" d="M297 219q0 -36 -26.5 -63t-62.5 -27q-37 0 -64 26.5t-27 63.5q0 36 27 63t63 27q37 0 63.5 -26.5t26.5 -63.5z" />
<glyph unicode="/" horiz-adv-x="569" d="M511 1425l-379 -1564h-83l376 1564h86z" />
<glyph unicode="0" horiz-adv-x="1131" d="M1054 875q0 -263 -142 -500q-165 -275 -413 -275q-119 0 -221 78q-95 72 -145 186q-55 125 -55 298q0 258 136 499q160 283 401 283q212 0 334 -186q105 -160 105 -383zM908 720q0 376 -199 536q-97 78 -183 78q-170 0 -251 -186q-59 -136 -59 -332q0 -202 92 -381 q112 -218 297 -218q166 0 245 180q58 133 58 323z" />
<glyph unicode="1" horiz-adv-x="1131" d="M876 129h-528v48h49q133 0 133 127v890q0 87 -76 87q-35 0 -166 -46v49l487 170v-40q-83 -23 -83 -116v-977q0 -144 135 -144h49v-48z" />
<glyph unicode="2" horiz-adv-x="1131" d="M1034 436l-72 -354h-47v12q0 35 -36 35h-781v48l292 352q299 360 362 517q37 92 37 154q0 79 -50 132.5t-129 53.5q-136 0 -230 -138q-80 -117 -92 -264h-69v304q240 149 450 149q129 0 215 -60q99 -68 99 -191q0 -128 -108 -267q-45 -58 -204 -215l-425 -420h564 q150 0 176 152h48z" />
<glyph unicode="3" horiz-adv-x="1131" d="M1020 598q0 -200 -183 -353q-173 -145 -377 -145q-131 0 -297 64v333h69q15 -139 99 -229q89 -97 225 -97q130 0 207 92q73 86 73 218q0 155 -84.5 238.5t-239.5 83.5h-165v47q144 15 268 123q133 116 133 255q0 70 -45 113t-116 43q-134 0 -218 -138q-70 -115 -75 -260 h-68v302q236 149 432 149q110 0 185 -49q88 -57 88 -161q0 -209 -419 -377q70 3 103 3q405 0 405 -255z" />
<glyph unicode="4" horiz-adv-x="1131" d="M1007 494h-204v-190q0 -127 126 -127h29v-48h-502v48h42q141 0 141 127v190h-576v46l393 496q190 240 297 411h50v-852h204v-101zM639 595v529q-138 -131 -250 -273l-202 -256h452z" />
<glyph unicode="5" horiz-adv-x="1131" d="M1025 637q0 -212 -167.5 -374.5t-380.5 -162.5q-143 0 -279 66v331h70q19 -134 89 -221q81 -101 208 -101q137 0 209 109q62 93 62 237q0 150 -69 257q-80 123 -223 123q-158 0 -257 -159h-59l31 666h595q60 0 61 51h47v-352h-47q0 151 -145 151h-454l-19 -399 q130 104 333 104q163 0 272 -80q123 -89 123 -246z" />
<glyph unicode="6" horiz-adv-x="1131" d="M1044 517q0 -177 -148 -300q-140 -117 -320 -117q-221 0 -344 181q-107 157 -107 389q0 286 152 512q172 255 445 255q113 0 235 -49v-344h-74q-2 130 -49 221q-61 118 -177 118q-114 0 -205 -117q-71 -92 -107 -221q-43 -155 -43 -282q0 -43 9 -127q167 195 376 195 q156 0 252 -78q105 -84 105 -236zM853 458q0 119 -57 201q-65 94 -179 94q-120 0 -188 -91q-62 -82 -62 -206q0 -120 60 -205q67 -97 182 -97q117 0 184 97q60 85 60 207z" />
<glyph unicode="7" horiz-adv-x="1131" d="M1048 1346q-233 -298 -340 -569q-115 -292 -125 -648h-181q11 227 57 383q77 262 332 581l131 164h-530q-86 0 -119.5 -33t-35.5 -120h-47v350h47v-7q0 -39 55 -39h756v-62z" />
<glyph unicode="8" horiz-adv-x="1131" d="M1067 490q0 -193 -269 -327q-126 -63 -290 -63q-159 0 -274 64q-141 79 -141 227q0 112 107 212q60 56 203 141q19 11 73 44q-17 10 -58 31q-120 62 -166 107q-72 70 -72 175q0 150 166 250q143 86 303 86q120 0 211 -47q114 -59 114 -168q0 -95 -115 -204 q-52 -49 -193 -149q26 -15 97 -52q144 -75 202 -125q102 -88 102 -202zM810 1189q0 95 -73 146q-65 46 -163 46t-167 -51q-77 -56 -77 -151q0 -98 104 -178q55 -43 188 -107q188 164 188 295zM894 431q0 137 -162 219q-87 44 -208 114q-118 -78 -170 -137q-79 -90 -79 -197 q0 -125 93 -200q87 -70 214 -70q125 0 215 72q97 77 97 199z" />
<glyph unicode="9" horiz-adv-x="1131" d="M1029 864q0 -194 -72 -365q-77 -184 -221 -295q-134 -104 -297 -104q-124 0 -237 51v341h72q2 -124 49 -218q60 -119 171 -119q186 0 283 239q73 179 73 396q0 34 -5 108q-184 -190 -386 -190q-149 0 -245 84q-101 88 -101 235q0 170 149 293q141 117 314 117 q224 0 347 -181q106 -156 106 -392zM787 1084q0 115 -59 203q-67 101 -177 101q-123 0 -191 -97q-60 -85 -60 -213q0 -122 62 -204q68 -91 186 -91q114 0 180 97q59 85 59 204z" />
<glyph unicode=":" horiz-adv-x="415" d="M297 490q0 -36 -26.5 -63t-62.5 -27q-37 0 -64 26.5t-27 63.5q0 36 27 63t63 27q37 0 63.5 -26.5t26.5 -63.5zM297 219q0 -36 -26.5 -63t-62.5 -27q-37 0 -64 26.5t-27 63.5q0 36 27 63t63 27q37 0 63.5 -26.5t26.5 -63.5z" />
<glyph unicode=";" horiz-adv-x="491" d="M369 949q0 -50 -35.5 -85.5t-85.5 -35.5t-85.5 35.5t-35.5 85.5q0 49 35 85t84 36q51 0 87 -35t36 -86zM458 163q0 -265 -334 -481v58q222 160 222 340q0 44 -31 97q-32 -48 -92 -48q-98 0 -98 98q0 57 49 92q43 31 103 31q84 0 132.5 -51t48.5 -136z" />
<glyph unicode="&#x3c;" horiz-adv-x="1365" d="M1222 270l-1080 456v97l1080 455v-118l-936 -385l936 -387v-118z" />
<glyph unicode="=" horiz-adv-x="946" d="M836 539h-731v86h731v-86zM836 362h-731v86h731v-86z" />
<glyph unicode="&#x3e;" horiz-adv-x="1365" d="M1222 724l-1080 -454v117l937 386l-937 387v118l1080 -457v-97z" />
<glyph unicode="?" horiz-adv-x="917" d="M887 1213q0 -110 -94 -223q-93 -96 -187 -191q-112 -117 -140 -218q-17 -61 -19 -144h-99q2 155 41 257q34 89 134 224q143 193 143 291q0 79 -50 124t-130 45q-143 0 -236 -130q-81 -114 -89 -265h-66v302q277 152 498 152q123 0 201 -49q93 -58 93 -175zM516 221 q0 -50 -35 -85.5t-85 -35.5t-85 35.5t-35 85.5q0 49 34.5 85t83.5 36q51 0 86.5 -35t35.5 -86z" />
<glyph unicode="@" horiz-adv-x="1877" d="M1837 293q-95 -277 -332 -443.5t-531 -166.5q-247 0 -448 113q-210 118 -318 332q-106 211 -106 454q0 409 269.5 688t677.5 279q315 0 509 -183q197 -188 197 -501q0 -397 -280 -628q-110 -91 -259 -91q-157 0 -157 140q0 40 25 155q-109 -132 -165 -182 q-115 -102 -217 -102q-95 0 -147 70q-47 62 -47 160q0 162 97 331q88 152 225 266q124 103 235 103q129 0 169 -141l31 115l131 19l-139 -469q-74 -250 -74 -316q0 -82 93 -82q184 0 315 241q112 206 112 406q0 291 -183 466q-181 172 -473 172q-249 0 -447.5 -131 t-305.5 -359q-111 -237 -111 -481q0 -215 103 -401q107 -195 290.5 -292.5t399.5 -97.5q271 0 493 152t314 405h54zM1197 886q0 155 -137 155q-152 0 -290 -247q-122 -219 -122 -388q0 -142 126 -142q102 0 218 134q93 108 142 226q63 152 63 262z" />
<glyph unicode="A" horiz-adv-x="1237" d="M1235 129h-359v48h23q17 0 17 33q0 10 -4 22l-120 348h-437q-69 -194 -69 -289q0 -114 118 -114h53v-48h-448v48q113 6 204 239l410 1045h59l354 -1022q38 -110 69 -162q58 -97 130 -100v-48zM770 641l-182 532l-210 -532h392z" />
<glyph unicode="B" horiz-adv-x="1109" d="M1039 579q0 -190 -164 -324q-154 -126 -348 -126h-469v48q88 1 120 35.5t32 123.5v866q0 89 -31.5 122.5t-120.5 35.5v48h605q146 0 219 -39q98 -54 98 -187q0 -206 -283 -373q160 -2 234 -38q108 -53 108 -192zM801 1048q0 124 -61 212q-69 101 -187 101q-99 0 -158 -48 v-465h195q211 0 211 200zM847 457q0 158 -96 251.5t-254 93.5h-102v-527q103 -81 215 -81q113 0 177 77q60 71 60 186z" />
<glyph unicode="C" horiz-adv-x="1259" d="M1206 373q-317 -273 -578 -273q-249 0 -405 183q-147 174 -147 427q0 396 338 620q161 107 388 107q198 0 374 -62v-302h-71q-13 146 -132 228q-107 73 -260 73q-221 0 -349 -168q-116 -153 -116 -381q0 -240 129 -403q140 -177 374 -177q221 0 455 189v-61z" />
<glyph unicode="D" horiz-adv-x="1451" d="M1377 903q0 -345 -221.5 -559.5t-567.5 -214.5h-524v48q88 1 120 35.5t32 123.5v866q0 89 -31.5 122.5t-120.5 35.5v48h786q527 0 527 -505zM1189 773q0 590 -498 590q-175 0 -290 -77v-999q160 -93 312 -93q230 0 360 180q116 160 116 399z" />
<glyph unicode="E" horiz-adv-x="981" d="M963 497l-82 -412h-50q-1 44 -38 44h-729v48q89 1 120.5 35t31.5 124v865q0 89 -31.5 123t-120.5 36v48h714q65 0 67 50h47v-382h-73q-4 284 -342 284h-76q-12 -109 -12 -195q0 -333 281 -333h98v-70l-367 -10v-575h106q336 0 385 320h71z" />
<glyph unicode="F" horiz-adv-x="875" d="M890 1072h-72q0 288 -344 288h-76q-11 -109 -11 -196q0 -181 57 -261q68 -96 239 -96h83v-69l-368 -8v-394q0 -154 152 -159v-48h-489v48q88 1 120 35.5t32 123.5v866q0 89 -31.5 122.5t-120.5 35.5v48h757q23 0 28 44h44v-380z" />
<glyph unicode="G" horiz-adv-x="1365" d="M1311 632q-49 -1 -77 -46q-24 -38 -24 -91v-412h-50q-5 176 -133 176q-58 0 -139 -56q-26 -18 -40 -26q-134 -77 -254 -77q-137 0 -263 86q-121 82 -184 209q-66 134 -66 302q0 202 96 374.5t268 271.5q164 94 370 94q160 0 363 -61v-303h-73q-17 144 -130 224 q-103 74 -253 74q-220 0 -350 -158q-121 -147 -121 -371q0 -235 119 -412q135 -201 360 -201q120 0 208 65q99 72 99 187q0 151 -189 151h-36v47h499v-47z" />
<glyph unicode="H" horiz-adv-x="1408" d="M1345 129h-489v48q88 1 120 36t32 123v461h-610v-461q0 -155 152 -159v-48h-489v48q88 1 120 35.5t32 123.5v866q0 89 -31.5 122.5t-120.5 35.5v48h489v-48q-89 -2 -120.5 -35.5t-31.5 -122.5v-343h610v343q0 89 -31.5 122.5t-120.5 35.5v48h489v-48q-89 -2 -120.5 -35.5 t-31.5 -122.5v-866q0 -90 31.5 -124t120.5 -35v-48z" />
<glyph unicode="I" horiz-adv-x="619" d="M562 129h-489v48q88 1 120 35.5t32 123.5v866q0 89 -31.5 122.5t-120.5 35.5v48h489v-48q-89 -2 -120.5 -35t-31.5 -123v-866q0 -154 152 -159v-48z" />
<glyph unicode="J" horiz-adv-x="597" d="M556 1360q-89 -2 -120.5 -36t-31.5 -123v-839q0 -337 -235 -579q-103 -106 -214 -106q-46 0 -105 18v317h70q6 -80 37 -138q41 -77 111 -77q151 0 151 332v1072q0 90 -31.5 123.5t-120.5 35.5v48h489v-48z" />
<glyph unicode="K" horiz-adv-x="1195" d="M1222 129h-323l-503 675v-468q0 -154 152 -159v-48h-489v48q88 1 120 35.5t32 123.5v865q0 90 -31.5 123.5t-120.5 35.5v48h489v-48q-89 -2 -120.5 -35.5t-31.5 -123.5v-404l247 242q164 161 164 254q0 64 -103 67v48h460v-48q-130 -16 -278 -159l-324 -313l351 -469 q181 -242 309 -242v-48z" />
<glyph unicode="L" horiz-adv-x="960" d="M965 495l-86 -413h-47q-1 47 -43 47h-724v48q88 1 120 35.5t32 123.5v865q0 89 -31.5 123t-120.5 36v48h491v-48q-91 -2 -122 -35t-31 -124v-1024h130q303 0 360 318h72z" />
<glyph unicode="M" horiz-adv-x="1813" d="M1800 129h-492v48q77 2 107 32t30 107q0 14 -2 34l-78 795q-171 -304 -244 -475l-251 -588h-45l-468 1164l-34 -359q-23 -243 -23 -385q0 -316 158 -325v-48h-452v48q85 20 138 146q24 57 58 206q43 185 63 402l25 266q1 11 1 41q0 71 -32 97q-27 23 -100 25v48h327 l429 -1058l246 581q138 327 183 477h357v-48q-80 -2 -114 -24q-42 -28 -42 -104q0 -13 1 -23l76 -798q12 -130 34 -168q36 -63 144 -66v-48z" />
<glyph unicode="N" horiz-adv-x="1387" d="M1376 1360q-183 -17 -183 -601v-676h-47l-863 1166v-372q0 -257 18 -389q40 -295 167 -311v-48h-434v48q182 28 182 689v345q0 84 -33 115.5t-117 33.5v48h328l727 -977v297q0 613 -182 632v48h437v-48z" />
<glyph unicode="O" horiz-adv-x="1493" d="M1418 829q0 -199 -111.5 -377.5t-289.5 -269.5q-161 -82 -337 -82q-258 0 -431 173t-173 431q0 294 214.5 513.5t507.5 219.5q335 0 523 -272q97 -140 97 -336zM1249 653q0 186 -76 347q-83 176 -233 262q-143 82 -267 82q-199 0 -317 -139q-111 -131 -111 -333 q0 -267 154 -466q168 -217 428 -217q189 0 309 140q113 132 113 324z" />
<glyph unicode="P" horiz-adv-x="981" d="M1011 1179q0 -165 -148.5 -309.5t-314.5 -144.5q-68 0 -152 37v-426q0 -154 152 -159v-48h-489v48q89 1 120.5 35t31.5 124v866q0 89 -31.5 122.5t-120.5 35.5v48h633q319 0 319 -229zM813 1052q0 126 -54 209q-63 98 -182 98q-93 0 -181 -64v-399q128 -96 229 -96 q188 0 188 252z" />
<glyph unicode="Q" horiz-adv-x="1493" d="M1482 -67q-92 -104 -128 -137q-90 -81 -162 -81q-85 0 -293 172q-231 192 -314 229q-29 13 -57 13q-78 0 -208 -132v62q47 66 100 111q-162 67 -252 217q-87 144 -87 324q0 392 364 624q160 102 362 102q344 0 525 -281q87 -135 87 -323q0 -259 -167.5 -460t-421.5 -252 q65 -16 226 -144q148 -118 213 -118q71 0 213 138v-64zM1255 662q0 181 -80 342q-84 171 -232 261q-139 85 -267 85q-195 0 -315 -142q-114 -135 -114 -333q0 -376 288 -584q133 -96 294 -96q190 0 311 141q115 133 115 326z" />
<glyph unicode="R" horiz-adv-x="1109" d="M1157 129h-240q-73 0 -128 86l-396 616v-495q0 -154 154 -159v-48h-491v48q88 1 120 35.5t32 123.5v866q0 89 -31.5 122.5t-120.5 35.5v48h636q283 0 283 -220q0 -245 -318 -427l223 -345q150 -232 277 -239v-48zM770 1046q0 119 -51 208q-61 107 -172 107 q-82 0 -154 -50v-417q117 -85 201 -85q176 0 176 237z" />
<glyph unicode="S" horiz-adv-x="917" d="M862 502q0 -168 -155 -289q-144 -113 -317 -113q-131 0 -294 63v360h71q0 -139 77 -242q86 -114 220 -114q106 0 173 62t67 168q0 109 -101 204q-40 37 -193 139q-128 85 -190 138q-93 80 -93 199q0 157 146 264q131 96 295 96q89 0 237 -51v-314h-73q-7 119 -70 203 q-72 94 -186 94q-84 0 -140 -50.5t-56 -134.5q0 -102 116 -206q45 -41 200 -144q137 -92 180 -135q86 -87 86 -197z" />
<glyph unicode="T" horiz-adv-x="1067" d="M1061 1073h-71q-3 287 -304 287h-54v-1024q0 -155 152 -159v-48h-489v48q88 1 120 35.5t32 123.5v1024h-69q-277 0 -286 -287h-70v380h44q13 -45 39 -45h874q34 0 34 45h48v-380z" />
<glyph unicode="U" horiz-adv-x="1387" d="M1366 1360q-187 -28 -187 -625q0 -213 -2 -238q-11 -140 -67 -223q-116 -174 -416 -174q-315 0 -436 179q-59 87 -59 212v710q0 89 -31.5 123t-120.5 36v48h489v-48q-89 -2 -120.5 -36t-31.5 -123v-702q0 -191 146 -283q84 -53 207 -53q256 0 334 180q38 88 38 269 q0 297 -14 414q-39 322 -170 334v48h441v-48z" />
<glyph unicode="V" horiz-adv-x="1259" d="M1259 1360q-109 -1 -207 -247l-408 -1028h-59l-360 1045q-79 228 -187 230v48h354v-48q-39 -1 -39 -29q0 -16 11 -48l317 -914l203 515q84 213 84 342q0 132 -158 134v48h449v-48z" />
<glyph unicode="W" horiz-adv-x="1984" d="M1983 1360q-109 -2 -219 -278l-400 -1000h-60l-290 845q-98 -176 -158 -327l-204 -518h-58l-337 994q-68 200 -130 252q-35 29 -71 32v48h349v-48q-37 -1 -37 -33q0 -8 4 -20l317 -938l167 420q73 184 73 350q0 212 -168 221v48h354v-48q-43 -1 -43 -32q0 -9 4 -21 l321 -938l204 517q94 238 94 339q0 80 -43 109q-35 24 -119 26v48h450v-48z" />
<glyph unicode="X" horiz-adv-x="1237" d="M1224 129h-398v48q40 2 40 31q0 9 -7 21l-288 481q-228 -298 -228 -432q0 -99 135 -101v-48h-475v48q131 11 294 239l245 343l-222 371q-132 220 -254 230v48h390v-48q-40 -2 -40 -25q0 -8 4 -15l240 -400q176 247 176 342q0 96 -152 98v48h479v-48q-138 -20 -292 -230 l-187 -255l319 -524q65 -106 144 -149q32 -17 77 -25v-48z" />
<glyph unicode="Y" horiz-adv-x="1195" d="M1236 1360q-109 -2 -239 -224l-303 -516v-284q0 -154 152 -159v-48h-489v48q88 1 120 35.5t32 123.5v284l-250 502q-49 99 -87 149q-66 88 -137 89v48h363v-48q-38 -1 -38 -27q0 -10 4 -18l314 -624q243 380 243 554q0 70 -49 96q-34 18 -114 19v48h478v-48z" />
<glyph unicode="Z" horiz-adv-x="1216" d="M1190 497l-82 -412h-48q-2 44 -24 44h-958v58l823 1173h-296q-189 0 -276 -50q-114 -65 -122 -237h-69v380h46q2 -45 38 -45h896v-59l-826 -1172h301q226 0 337 54q149 72 188 266h72z" />
<glyph unicode="[" horiz-adv-x="640" d="M539 -101h-325v1645h325v-62h-182v-1521h182v-62z" />
<glyph unicode="\" horiz-adv-x="1045" d="M932 92h-110l-709 1463h110z" />
<glyph unicode="]" horiz-adv-x="640" d="M419 -101h-284v62h141v1520h-141v61h284v-1643z" />
<glyph unicode="^" horiz-adv-x="960" d="M923 691h-92l-350 586l-350 -586h-94l431 717h30z" />
<glyph unicode="_" d="M1036 -256h-1048v102h1048v-102z" />
<glyph unicode="`" horiz-adv-x="683" d="M409 1214l-36 -21l-139 156q-66 74 -66 97q0 62 60 62q36 0 67 -63z" />
<glyph unicode="a" horiz-adv-x="960" d="M948 249q-152 -149 -248 -149q-86 0 -86 96v148q-238 -244 -375 -244q-79 0 -131 62q-50 59 -50 139q0 217 556 468v120q0 127 -124 127q-114 0 -191 -115q-64 -95 -77 -220h-67v240q230 152 433 152q97 0 137.5 -43t40.5 -141v-625q0 -45 41 -45q40 0 141 92v-62z M625 688q-144 -30 -261 -103q-154 -96 -154 -217q0 -62 38.5 -99t100.5 -37q145 0 219 166q55 123 57 290z" />
<glyph unicode="b" horiz-adv-x="1045" d="M1007 712q0 -127 -54 -252t-147 -208q-84 -75 -168 -101q-71 -22 -196 -22h-92q-82 0 -106 -5q-60 -12 -83 -58h-67q57 103 57 237v985q0 88 -67 88q-31 0 -85 -23v49l333 138v-41q-28 -16 -28 -53v-685q140 160 184 200q124 111 238 111q139 0 215 -115q66 -99 66 -245z M857 610q0 127 -45 215q-57 112 -173 112q-158 0 -261 -183q-87 -155 -87 -325q0 -64 13 -144q122 -75 260 -75q156 0 232 129q61 104 61 271z" />
<glyph unicode="c" horiz-adv-x="917" d="M842 374q-219 -274 -424 -274q-168 0 -274 134q-99 125 -99 297q0 215 140 375q146 168 358 168q125 0 271 -66v-261h-73q-3 116 -72 189q-71 77 -185 77q-142 0 -224 -128q-71 -110 -71 -260q0 -154 75 -265q86 -127 233 -127q149 0 345 211v-70z" />
<glyph unicode="d" horiz-adv-x="1067" d="M1048 201l-255 -100h-47v323q-124 -158 -175 -207q-122 -117 -236 -117q-138 0 -220 131q-71 113 -71 259q0 203 145 387q155 196 353 196q86 0 204 -53v269q0 85 -65 85q-34 0 -86 -21v55l346 132v-41q-43 -17 -43 -68v-1118q0 -83 71 -83q32 0 79 22v-51zM758 766 q0 68 -12 121q-139 115 -268 115q-139 0 -218 -154q-64 -125 -64 -278q0 -120 53 -219q64 -119 175 -119q147 0 249 201q85 168 85 333z" />
<glyph unicode="e" horiz-adv-x="896" d="M856 380q-223 -280 -435 -280q-161 0 -273 141q-104 131 -104 296q0 198 126 360q136 174 329 174q149 0 239 -108q83 -100 88 -253h-645q-2 -39 -2 -57q0 -160 81 -279q92 -135 245 -135q172 0 351 207v-66zM662 760q-11 105 -64 171q-61 77 -160 77q-98 0 -168 -77 q-65 -70 -80 -171h472z" />
<glyph unicode="f" horiz-adv-x="640" d="M695 1223h-72q-5 184 -123 184q-80 0 -121 -92q-32 -71 -32 -160q0 -187 173 -187h83v-47h-245v-588q0 -84 34.5 -119t118.5 -37v-48h-458v48q84 2 118.5 37t34.5 119v588h-153v47h44q80 0 118 135q44 156 130 261q108 132 248 132q37 0 102 -20v-253z" />
<glyph unicode="g" d="M1005 33q0 -175 -237 -279q-187 -82 -388 -82q-143 0 -258 45q-156 61 -156 182q0 123 193 213q122 57 297 91q-73 53 -73 111q0 69 135 175q-11 -1 -36 -5q-77 -12 -108 -12q-117 0 -196 60q-88 66 -88 179q0 150 148 259q137 101 291 101q65 0 185 -49q137 -56 215 -56 h71v-47h-204q24 -52 24 -95q0 -83 -60 -164q-38 -51 -126 -127q-119 -102 -119 -145q0 -58 192 -121q135 -45 190 -77q108 -64 108 -157zM663 769q0 97 -50 165q-56 77 -149 77q-100 0 -159 -74q-54 -67 -54 -170q0 -98 52 -167q57 -76 152 -76t154 77q54 70 54 168z M864 -24q0 62 -89 107q-17 8 -142 53l-115 41q-411 -104 -411 -261q0 -99 129 -148q92 -35 209 -35q143 0 262 51q157 67 157 192z" />
<glyph unicode="h" horiz-adv-x="1131" d="M1089 129h-349v48q44 2 44 54v597q0 130 -106 130q-151 0 -253 -224q-84 -184 -84 -355q0 -202 123 -202h40v-48h-454v48q83 2 117 37.5t34 118.5v987q0 59 -66 59q-37 0 -85 -19v48l344 137v-43q-41 -16 -41 -72v-688q234 332 420 332q163 0 163 -219v-522 q0 -85 34 -119.5t119 -36.5v-48z" />
<glyph unicode="i" horiz-adv-x="555" d="M384 1393q0 -40 -28 -67.5t-68 -27.5t-67.5 27.5t-27.5 67.5q0 39 27 67.5t66 28.5q41 0 69.5 -27.5t28.5 -68.5zM517 129h-458v48q84 2 118.5 37t34.5 119v547q0 63 -72 63q-26 0 -57 -13q-16 -7 -24 -9v51l256 101h49v-740q0 -84 34.5 -119t118.5 -37v-48z" />
<glyph unicode="j" horiz-adv-x="533" d="M378 1393q0 -39 -28 -67t-67 -28q-40 0 -67.5 27.5t-27.5 67.5q0 38 27.5 66.5t65.5 28.5q41 0 69 -27t28 -68zM358 204q0 -172 -103 -341q-117 -192 -278 -192q-50 0 -107 23v271h72q1 -77 26 -130q34 -71 101 -71t106 87q31 70 31 145v849q0 93 -71 93q-34 0 -81 -22 v51l259 104h45v-867z" />
<glyph unicode="k" d="M1049 129h-308l-386 489l-1 -308q0 -130 154 -133v-48h-457v48q84 2 118 37t34 119v936q0 107 -72 107q-29 0 -80 -16v48l344 137v-41q-40 -13 -40 -60v-826l229 195q75 64 75 122q0 62 -120 64v46h469v-46q-123 -2 -305 -153l-203 -168l197 -250q197 -250 352 -251v-48z " />
<glyph unicode="l" horiz-adv-x="555" d="M518 129h-459v48q84 2 119 37t35 119v951q0 92 -76 92q-32 0 -78 -16v48l349 137v-41q-43 -21 -43 -73v-1098q0 -84 34.5 -119t118.5 -37v-48z" />
<glyph unicode="m" horiz-adv-x="1643" d="M1607 129h-348v48q43 1 43 47v573q0 161 -106 161q-144 0 -235 -219q-71 -172 -71 -341q0 -110 28 -157q37 -62 136 -64v-48h-345v48q42 2 42 37v615q0 51 -24 86q-28 41 -76 41q-148 0 -238 -219q-70 -171 -70 -343q0 -109 27 -155q36 -62 135 -62v-48h-453v48 q82 2 116 37.5t34 118.5v524q0 83 -65 83q-32 0 -85 -22v50l255 102h47v-304q109 145 163 197q114 109 223 109q163 0 163 -233q0 -26 -1 -63q113 142 166 191q115 106 222 106q76 0 120 -51.5t44 -128.5v-560q0 -84 34.5 -119t118.5 -37v-48z" />
<glyph unicode="n" horiz-adv-x="1131" d="M1089 129h-348v48q42 2 42 49v618q0 115 -97 115q-157 0 -260 -226q-83 -183 -83 -362q0 -106 29 -145q35 -47 135 -49v-48h-455v48q84 2 118 37t34 119v511q0 99 -66 99q-24 0 -86 -25v50l260 106h42v-329q107 143 177 209q127 120 236 120q169 0 169 -217v-524 q0 -84 34.5 -119t118.5 -37v-48z" />
<glyph unicode="o" horiz-adv-x="1003" d="M958 637q0 -215 -144 -374q-149 -163 -362 -163q-192 0 -303 122q-107 118 -107 312q0 213 142 372q148 165 358 165q194 0 307 -121q109 -118 109 -313zM822 526q0 121 -53 232q-55 118 -151 182q-79 53 -161 53q-140 0 -214 -104q-66 -91 -66 -236q0 -168 103 -309 q113 -154 275 -154q127 0 202 108q65 95 65 228z" />
<glyph unicode="p" horiz-adv-x="1088" d="M1043 702q0 -219 -142 -403q-153 -199 -366 -199q-89 0 -197 47v-236q0 -85 35 -121t120 -37v-49h-457v49q83 1 117.5 37.5t34.5 120.5v956q0 75 -59 75q-21 0 -93 -26v50l257 105h45v-325q107 147 174 211q122 116 238 116q139 0 221 -120q72 -106 72 -251zM892 611 q0 129 -44 223q-58 124 -172 124q-159 0 -263 -209q-86 -173 -86 -348q0 -47 11 -126q140 -114 248 -114q150 0 236 158q70 129 70 292z" />
<glyph unicode="q" horiz-adv-x="1067" d="M1051 -298h-458v48q83 1 117 37.5t34 120.5v500q-126 -144 -193 -200q-129 -108 -247 -108q-128 0 -200 125q-60 104 -60 241q0 156 88 305q90 153 228 218q114 54 285 52l96 -1q138 -1 167 61h53q-63 -110 -63 -297v-896q0 -84 35 -120.5t118 -37.5v-48zM757 762 q0 57 -13 130q-134 78 -253 78q-145 0 -224 -144q-64 -117 -64 -275q0 -121 44 -209q57 -113 167 -113q157 0 259 197q84 163 84 336z" />
<glyph unicode="r" horiz-adv-x="811" d="M787 748h-71q-1 181 -105 181q-128 0 -205 -222q-59 -171 -59 -328q0 -125 51 -166q45 -36 173 -36v-48h-520v48q84 2 119 37t35 119v519q0 88 -65 88q-27 0 -89 -22v48l263 107h44v-325q189 323 350 323q33 0 79 -15v-308z" />
<glyph unicode="s" horiz-adv-x="747" d="M694 409q0 -132 -119 -224q-110 -85 -246 -85q-107 0 -247 60v277h68q7 -113 63 -188q64 -86 171 -86q75 0 125 46t50 120t-61 133q-28 27 -125 88l-128 81q-132 93 -132 193q0 117 109 188q94 61 218 61q91 0 196 -40v-262h-72q-1 97 -52 167q-57 78 -150 78 q-52 0 -85.5 -33.5t-33.5 -85.5q0 -63 62 -119q28 -26 115 -80q156 -98 177 -115q97 -80 97 -174z" />
<glyph unicode="t" horiz-adv-x="597" d="M579 923h-245v-642q0 -63 50 -63q49 0 146 80q11 9 17 13v-58q-170 -153 -271 -153q-94 0 -94 145v678h-153v45q87 0 124.5 35.5t37.5 122.5v151l205 83v-52q-63 -15 -63 -142q0 -137 66 -176q37 -22 97 -22h83v-45z" />
<glyph unicode="u" horiz-adv-x="1131" d="M1088 207l-276 -110h-49v332q-108 -147 -177 -212q-123 -117 -241 -117q-165 0 -165 234v547q0 87 -93 87q-20 0 -56 -6v47l343 61v-39q-42 -12 -42 -69v-619q0 -131 99 -131q152 0 257 224q86 184 86 356q0 178 -107 178q-19 0 -57 -8v47l348 61v-39q-44 -7 -44 -69 v-643q0 -93 69 -93q41 0 105 30v-49z" />
<glyph unicode="v" horiz-adv-x="981" d="M991 997q-114 -12 -215 -251l-281 -663h-53l-255 720q-68 193 -174 194v48h322v-48q-38 0 -38 -36q0 -20 10 -48l213 -600l126 313q63 156 63 252q0 117 -145 119v48h427v-48z" />
<glyph unicode="w" horiz-adv-x="1536" d="M1550 997q-81 -12 -146 -114q-35 -55 -85 -174l-262 -626h-60l-214 616q-48 -90 -73 -142l-35 -72q-24 -49 -34 -74l-134 -328h-60l-230 667q-38 111 -64 154q-53 89 -127 93v48h320v-48q-39 -1 -39 -31q0 -14 7 -34l214 -621l113 272q72 173 72 293q0 118 -142 121v48 h325v-48q-43 0 -43 -29q0 -13 10 -42l214 -615l124 302q66 161 66 267q0 117 -146 117v48h429v-48z" />
<glyph unicode="x" horiz-adv-x="1067" d="M1050 129h-358v48q33 0 33 21q0 18 -17 38l-202 293q-150 -177 -150 -266q0 -84 120 -86v-48h-445v48q126 11 310 234l135 164l-168 238q-128 181 -237 184v48h366v-48q-40 -1 -40 -28q0 -12 8 -24l169 -246q130 150 130 224q0 72 -99 74v48h405v-48q-101 -5 -229 -134 q-46 -47 -176 -211l202 -285q131 -185 243 -190v-48z" />
<glyph unicode="y" horiz-adv-x="960" d="M976 997q-64 -4 -98 -41q-43 -47 -89 -165l-343 -890q-79 -205 -298 -224l-162 191l54 43q79 -98 176 -98q106 0 159 107q17 34 67 162l16 41l-273 679q-38 95 -65 130q-49 64 -122 65v48h324v-48q-38 -2 -38 -24q0 -10 6 -25l248 -617l98 261q66 176 66 292 q0 113 -143 113v48h417v-48z" />
<glyph unicode="z" horiz-adv-x="917" d="M853 83h-47q-3 46 -82 46h-663v48l584 820h-188q-253 0 -266 -225h-66v318h48v-8q0 -37 52 -37h604v-49l-586 -819h214q319 0 329 256h67v-350z" />
<glyph unicode="{" horiz-adv-x="981" d="M832 -320q-152 27 -249 129q-103 107 -103 257q0 61 26 177q19 85 19 112q0 96 -72 163q-68 62 -166 73v38q239 52 239 219q0 47 -16 122q-27 126 -27 188q0 151 101 257q96 102 248 127v-40q-94 -14 -155 -73q-67 -64 -67 -155q0 -46 13 -115q30 -160 30 -210 q0 -224 -286 -336q283 -116 283 -350q0 -49 -27 -179q-17 -82 -17 -135q0 -180 226 -233v-36z" />
<glyph unicode="|" horiz-adv-x="1045" d="M577 -296h-109v1841h109v-1841z" />
<glyph unicode="}" horiz-adv-x="981" d="M695 593q-239 -52 -239 -220q0 -52 15 -122q28 -131 28 -187q0 -151 -101 -257q-96 -102 -248 -127v40q94 14 155 73q66 63 66 155q0 48 -12 114q-30 164 -30 211q0 223 285 336q-282 116 -282 349q0 55 26 180q18 87 18 135q0 180 -226 233v36q151 -28 249 -129 q103 -107 103 -257q0 -57 -27 -177q-18 -80 -18 -113q0 -97 73 -162q64 -58 165 -74v-37z" />
<glyph unicode="~" horiz-adv-x="1365" d="M1219 918q-3 -121 -65 -200q-68 -88 -185 -88q-84 0 -192 45l-182 76q-151 63 -219 63q-147 0 -182 -182h-47q4 118 62 197q66 91 178 91q96 0 381 -122q152 -65 219 -65q81 0 130 53q47 50 54 132h48z" />
<glyph unicode="&#xa1;" horiz-adv-x="650" d="M360 981q0 -36 -27 -63t-63 -27q-37 0 -63.5 26.5t-26.5 63.5q0 36 26.5 63t62.5 27q37 0 64 -26.5t27 -63.5zM438 81q-77 0 -220 -176v817l105 106v-480q0 -63 115 -267z" />
<glyph unicode="&#xa2;" horiz-adv-x="917" d="M842 554q-170 -209 -325 -258v-167h-72v153q-218 0 -333 181q-67 106 -67 248q0 185 110 339q114 161 290 199v159h72v-151q154 0 296 -62v-263h-69q-8 103 -66 175q-62 78 -161 88v-776q138 2 325 213v-78zM445 423v772q-123 -21 -194 -143q-63 -108 -63 -241 q0 -137 61 -243q71 -120 196 -145z" />
<glyph unicode="&#xa3;" horiz-adv-x="1195" d="M1196 431q-53 -142 -92 -205q-77 -126 -169 -126q-79 0 -253.5 64.5t-253.5 64.5q-125 0 -215 -152h-59q29 51 129 194q89 127 113 169q63 110 63 190q0 91 -64 169h-241v69h106q56 0 56 35q0 11 -11 39q-30 76 -30 137q0 158 158 264q141 94 307 94q108 0 303 -62v-302 h-72q-13 127 -87 213q-81 95 -204 95q-109 0 -179.5 -70.5t-70.5 -179.5q0 -125 97 -197q87 -66 216 -66h145v-69h-287q13 -30 13 -57q0 -74 -75 -190q-17 -26 -124 -168q36 10 65 10q56 0 232 -59q220 -74 260 -74q101 0 180 185z" />
<glyph unicode="&#xa4;" d="M995 382l-58 -55l-143 143q-134 -103 -270 -103q-76 0 -158 26q-91 29 -137 77l-146 -143l-56 55l144 145q-102 117 -102 282q0 157 102 283l-144 141l56 57l146 -142q118 102 285 102q162 0 280 -102l143 142l58 -57l-144 -141q103 -132 103 -281q0 -154 -103 -284z M874 808q0 96 -50.5 182.5t-133.5 131.5q-86 47 -178 47q-152 0 -257 -105t-105 -258q0 -150 105.5 -254.5t255.5 -104.5t256.5 105.5t106.5 255.5z" />
<glyph unicode="&#xa5;" horiz-adv-x="1195" d="M1236 1360q-109 -2 -239 -224l-262 -446h417v-72h-458v-145h458v-72h-458v-65q0 -154 152 -159v-48h-489v48q88 1 120 35.5t32 123.5v65h-401v72h401v145h-401v72h366l-215 432q-49 99 -87 149q-66 88 -137 89v48h363v-48q-38 -1 -38 -27q0 -10 4 -18l314 -624 q243 380 243 554q0 70 -49 96q-34 18 -114 19v48h478v-48z" />
<glyph unicode="&#xa6;" horiz-adv-x="410" d="M244 809h-83v742h83v-742zM244 -313h-83v742h83v-742z" />
<glyph unicode="&#xa7;" horiz-adv-x="853" d="M763 622q0 -206 -233 -314q116 -80 157 -125q73 -79 73 -178q0 -150 -137 -244q-123 -84 -279 -84q-115 0 -238 57v273h74q2 -111 55 -184q60 -83 167 -83q92 0 160.5 61.5t68.5 152.5q0 89 -84 162q-31 27 -160 105q-139 84 -196 141q-96 96 -96 212q0 215 255 317 q-114 73 -157 120q-72 78 -72 177q0 148 113 230q100 73 254 73q111 0 222 -44v-253h-70q-14 102 -66 167q-60 76 -156 76q-77 0 -130.5 -50t-53.5 -127q0 -83 76 -153q33 -30 146 -102q154 -98 209 -154q98 -101 98 -229zM659 564q0 90 -85 169q-47 43 -163 111 q-201 -50 -201 -215q0 -85 99 -171q50 -43 171 -116q179 89 179 222z" />
<glyph unicode="&#xa8;" horiz-adv-x="683" d="M626 1350q0 -42 -29.5 -71.5t-71.5 -29.5t-71.5 29.5t-29.5 71.5q0 41 29 71t70 30q43 0 73 -29t30 -72zM262 1351q0 -42 -29.5 -71.5t-71.5 -29.5t-71 29.5t-29 71.5q0 41 29 70.5t70 29.5q43 0 72.5 -28.5t29.5 -71.5z" />
<glyph unicode="&#xa9;" horiz-adv-x="1567" d="M1491 729q0 -296 -206 -501.5t-502 -205.5q-297 0 -502 205t-205 502t205.5 502.5t501.5 205.5q297 0 502.5 -205.5t205.5 -502.5zM1437 728q0 177 -90.5 332t-244.5 238.5t-319 83.5q-274 0 -464 -190t-190 -464t190 -464t464 -190q273 0 463.5 190.5t190.5 463.5z M1140 512q-128 -218 -349 -218q-189 0 -309 128q-117 125 -117 315q0 189 120 321q123 136 310 136q80 0 172 -37q37 -15 62 -15q39 0 40 55h30l19 -293h-29q-70 246 -284 246q-150 0 -234 -133q-71 -113 -71 -272q0 -168 75 -272q85 -118 247 -118q173 0 296 172z" />
<glyph unicode="&#xaa;" horiz-adv-x="640" d="M628 896q-100 -100 -164 -100q-57 0 -57 68v95q-154 -160 -245 -160q-54 0 -89 39.5t-35 93.5q0 138 369 310v68q0 95 -78 95q-80 0 -131 -74q-44 -63 -50 -148h-46v157q151 101 288 101q117 0 117 -93v-434q0 -38 24 -38q33 0 97 58v-38zM413 1183q-96 -20 -173 -67 q-101 -62 -101 -142q0 -90 91 -90q96 0 145 108q36 80 38 191z" />
<glyph unicode="&#xab;" horiz-adv-x="854" d="M804 129h-93l-340 400l340 393h87l-226 -393zM497 129h-89l-338 400l340 393h87l-226 -393z" />
<glyph unicode="&#xac;" horiz-adv-x="1365" d="M1222 490h-108v466h-972v108h1080v-574z" />
<glyph unicode="&#xad;" horiz-adv-x="1155" d="M1106 926h-1070v81h1070v-81z" />
<glyph unicode="&#xae;" horiz-adv-x="1567" d="M1491 729q0 -296 -206 -501.5t-502 -205.5q-297 0 -502 205t-205 502t205.5 502.5t501.5 205.5q297 0 502.5 -205.5t205.5 -502.5zM1437 728q0 177 -90.5 332t-244.5 238.5t-319 83.5q-274 0 -464 -190t-190 -464t190 -464t464 -190q273 0 463.5 190.5t190.5 463.5z M1190 304h-204l-81 114l-210 291h-71v-228q0 -110 47 -132q17 -8 81 -9v-36h-366v36q83 0 104 29q17 23 17 111v526q0 78 -21 103q-24 29 -100 28v32h254q129 0 181 -9q102 -18 157 -78q51 -56 51 -137q0 -94 -66 -152q-60 -53 -157 -62l165 -224q66 -89 91 -113 q57 -53 128 -54v-36zM899 957q0 168 -189 168q-45 0 -86 -17v-357q20 -1 30 -1q245 0 245 207z" />
<glyph unicode="&#xaf;" horiz-adv-x="683" d="M603 1297h-521v108h521v-108z" />
<glyph unicode="&#xb0;" horiz-adv-x="768" d="M713 1139q0 -127 -89 -216t-216 -89q-128 0 -216.5 88.5t-88.5 216.5t88.5 216.5t216.5 88.5q129 0 217 -88t88 -217zM649 1139q0 102 -69.5 171.5t-171.5 69.5q-101 0 -171 -70t-70 -171q0 -102 69.5 -171.5t171.5 -69.5q101 0 171 70t70 171z" />
<glyph unicode="&#xb1;" horiz-adv-x="946" d="M835 452h-321v-253h-84v253h-325v83h325v328h84v-328h321v-83zM835 46h-730v83h730v-83z" />
<glyph unicode="&#xb2;" horiz-adv-x="725" d="M640 989l-48 -239h-33q-1 27 -18 27h-476v37q177 197 239 277q161 208 161 316q0 93 -89 93q-131 0 -188 -222h-49v175q168 88 303 88q173 0 173 -151q0 -68 -60 -143q-27 -34 -113 -113l-254 -234h313q85 0 104 89h35z" />
<glyph unicode="&#xb3;" horiz-adv-x="725" d="M637 1038q0 -122 -113 -205q-103 -76 -229 -76q-89 0 -188 36v228h49q7 -86 55 -150q55 -72 136 -72q71 0 111 46t40 118q0 192 -267 200v37q87 14 148 64q70 58 70 140q0 92 -87 92q-75 0 -125 -76q-44 -66 -47 -146h-49v176q177 90 290 90q153 0 153 -121 q0 -84 -97 -148q-52 -34 -170 -80q152 0 205 -14q115 -30 115 -139z" />
<glyph unicode="&#xb4;" horiz-adv-x="683" d="M516 1449q0 -25 -35 -64l-169 -188l-42 29l128 238q24 44 57 44q24 0 42.5 -17.5t18.5 -41.5z" />
<glyph unicode="&#xb5;" horiz-adv-x="1045" d="M1029 329q-6 -97 -50 -159q-51 -73 -143 -73q-141 0 -161 195q-175 -191 -322 -191q-125 0 -183 122v-43q1 -34 1 -47q1 -97 7 -147q4 -34 19 -88q22 -81 22 -115q0 -38 -20 -66q-22 -31 -59 -31t-60 30q-22 27 -22 65q0 32 21 110q29 106 32 187q1 94 8 375l1 36v556 h135v-610q0 -225 167 -225q102 0 253 143v692h132v-636q0 -95 7 -129q17 -85 77 -85q69 0 95 134h43z" />
<glyph unicode="&#xb6;" horiz-adv-x="896" d="M899 1372q-95 -5 -118 -41q-17 -27 -17 -134v-1525h-58v1682h-187v-1682h-59v1011q-467 -10 -467 348q0 120 68 219q71 103 185 132q101 26 273 26h380v-36z" />
<glyph unicode="&#xb7;" horiz-adv-x="405" d="M326 768q0 -50 -35.5 -85t-85.5 -35q-49 0 -84.5 35.5t-35.5 84.5t34.5 85t83.5 36q51 0 87 -35t36 -86z" />
<glyph unicode="&#xb8;" horiz-adv-x="683" d="M543 -91q0 -66 -60 -106q-53 -36 -122 -36q-56 0 -144 25v55q81 -29 128 -29q86 0 86 72q0 78 -99 78h-54v184h54v-135q25 2 37 2q174 0 174 -110z" />
<glyph unicode="&#xb9;" horiz-adv-x="725" d="M551 766h-348v36h31q77 0 77 69v467q0 77 -54 77q-32 0 -89 -20v35l309 110v-30q-33 -6 -33 -51v-588q0 -69 70 -69h37v-36z" />
<glyph unicode="&#xba;" horiz-adv-x="661" d="M638 1149q0 -139 -97 -246t-235 -107q-127 0 -200.5 79t-73.5 206q0 140 94 246q97 110 235 110q130 0 205 -79q72 -78 72 -209zM548 1079q0 110 -64 203q-71 104 -177 104q-91 0 -141 -68q-45 -61 -45 -155q0 -111 67 -206q74 -104 181 -104q87 0 136 72q43 63 43 154z " />
<glyph unicode="&#xbb;" horiz-adv-x="854" d="M784 529l-338 -400h-89l226 400l-226 393h87zM483 529l-340 -400h-93l232 400l-226 393h87z" />
<glyph unicode="&#xbc;" horiz-adv-x="1749" d="M1664 329h-113v-104q0 -76 66 -76h23v-35h-331v35h30q79 0 79 76v104h-340v36l228 265q34 40 193 256h52v-489h113v-68zM1377 1542l-926 -1445h-88l928 1445h86zM558 766h-348v36h31q77 0 77 69v467q0 77 -54 77q-32 0 -89 -20v35l309 112v-32q-33 -6 -33 -51v-588 q0 -69 70 -69h37v-36zM1418 397v276q-109 -96 -257 -276h257z" />
<glyph unicode="&#xbd;" horiz-adv-x="1749" d="M1663 333l-48 -239h-33q-1 28 -17 28h-477v36q181 201 239 276q162 209 162 316q0 95 -90 95q-130 0 -188 -223h-49v180q168 84 304 84q173 0 173 -152q0 -76 -81 -168q-29 -33 -140 -131q-79 -70 -207 -191h313q88 0 104 89h35zM1377 1542l-926 -1448h-88l928 1448h86z M558 766h-348v36h31q77 0 77 70v466q0 77 -54 77q-31 0 -89 -20v35l309 112v-32q-33 -6 -33 -51v-587q0 -70 70 -70h37v-36z" />
<glyph unicode="&#xbe;" horiz-adv-x="1749" d="M1665 329h-114v-104q0 -76 66 -76h23v-35h-326v35h26q78 0 78 76v104h-340v36l219 253q114 132 202 268h52v-489h114v-68zM1400 1542l-924 -1445h-90l928 1445h86zM644 1038q0 -122 -113 -205q-104 -76 -229 -76q-90 0 -188 36v228h49q7 -86 55 -150q55 -72 136 -72 q71 0 111 46t40 118q0 192 -267 200v37q87 14 148 64q70 58 70 140q0 92 -87 92q-75 0 -125 -76q-44 -66 -47 -146h-49v176q177 90 290 90q153 0 153 -121q0 -129 -267 -228q153 0 205 -14q115 -31 115 -139zM1418 397v276q-111 -98 -257 -276h257z" />
<glyph unicode="&#xbf;" horiz-adv-x="917" d="M603 886q0 -50 -35 -85t-85 -35t-84.5 35t-34.5 85q0 49 34 84t83 35q51 0 86.5 -34t35.5 -85zM782 -180q-273 -151 -505 -151q-120 0 -197 51q-90 59 -90 174q0 96 68 190q38 53 141 151q124 118 168 192q63 105 64 243h100q-2 -155 -43 -261q-36 -93 -138 -227 q-142 -186 -142 -284q0 -79 49.5 -125.5t129.5 -46.5q144 0 239 130q84 115 90 266h66v-302z" />
<glyph unicode="&#xc0;" horiz-adv-x="1237" d="M1235 129h-359v48h23q17 0 17 33q0 10 -4 22l-120 348h-437q-69 -194 -69 -289q0 -114 118 -114h53v-48h-448v48q113 6 204 239l410 1045h59l354 -1022q38 -110 69 -162q58 -97 130 -100v-48zM770 641l-182 532l-210 -532h392zM725 1537l-36 -21l-139 156q-66 74 -66 97 q0 62 60 62q36 0 67 -63z" />
<glyph unicode="&#xd7;" horiz-adv-x="946" d="M802 219l-58 -57l-277 275l-277 -275l-59 57l275 278l-275 278l62 56l274 -276l277 276l58 -56l-279 -278z" />
<glyph unicode="&#xe0;" horiz-adv-x="960" d="M948 249q-152 -149 -248 -149q-86 0 -86 96v148q-238 -244 -375 -244q-79 0 -131 62q-50 59 -50 139q0 217 556 468v120q0 127 -124 127q-114 0 -191 -115q-64 -95 -77 -220h-67v240q230 152 433 152q97 0 137.5 -43t40.5 -141v-625q0 -45 41 -45q40 0 141 92v-62z M625 688q-144 -30 -261 -103q-154 -96 -154 -217q0 -62 38.5 -99t100.5 -37q145 0 219 166q55 123 57 290zM595 1214l-36 -21l-139 156q-66 74 -66 97q0 62 60 62q36 0 67 -63z" />
<glyph unicode="&#xe2;" horiz-adv-x="960" d="M948 249q-152 -149 -248 -149q-86 0 -86 96v148q-238 -244 -375 -244q-79 0 -131 62q-50 59 -50 139q0 217 556 468v120q0 127 -124 127q-114 0 -191 -115q-64 -95 -77 -220h-67v240q230 152 433 152q97 0 137.5 -43t40.5 -141v-625q0 -45 41 -45q40 0 141 92v-62z M625 688q-144 -30 -261 -103q-154 -96 -154 -217q0 -62 38.5 -99t100.5 -37q145 0 219 166q55 123 57 290zM754 1234h-66l-214 126l-211 -126h-68l279 242z" />
<glyph unicode="&#xe7;" horiz-adv-x="917" d="M846 370q-199 -247 -385 -268v-88q36 4 58 4q146 0 146 -111q0 -67 -63 -107q-55 -35 -126 -35q-60 0 -128 30v56q62 -31 118 -31q98 0 98 74q0 75 -111 75q-16 0 -41 -2v135q-160 0 -265 140q-95 127 -95 292q0 289 254 464q104 72 240 72q125 0 274 -66v-259h-72 q-3 114 -75 191t-185 77q-141 0 -222 -130q-70 -112 -70 -261q0 -151 74 -263q85 -128 228 -128q149 0 348 209v-70z" />
<glyph unicode="&#xe8;" horiz-adv-x="896" d="M856 380q-223 -280 -435 -280q-161 0 -273 141q-104 131 -104 296q0 198 126 360q136 174 329 174q149 0 239 -108q83 -100 88 -253h-645q-2 -39 -2 -57q0 -160 81 -279q92 -135 245 -135q172 0 351 207v-66zM662 760q-11 105 -64 171q-61 77 -160 77q-98 0 -168 -77 q-65 -70 -80 -171h472zM566 1214l-36 -21l-139 156q-66 74 -66 97q0 62 60 62q36 0 67 -63z" />
<glyph unicode="&#xe9;" horiz-adv-x="896" d="M856 380q-223 -280 -435 -280q-161 0 -273 141q-104 131 -104 296q0 198 126 360q136 174 329 174q149 0 239 -108q83 -100 88 -253h-645q-2 -39 -2 -57q0 -160 81 -279q92 -135 245 -135q172 0 351 207v-66zM662 760q-11 105 -64 171q-61 77 -160 77q-98 0 -168 -77 q-65 -70 -80 -171h472zM626 1449q0 -25 -35 -64l-169 -188l-42 29l128 238q24 44 57 44q24 0 42.5 -17.5t18.5 -41.5z" />
<glyph unicode="&#xea;" horiz-adv-x="896" d="M856 380q-223 -280 -435 -280q-161 0 -273 141q-104 131 -104 296q0 198 126 360q136 174 329 174q149 0 239 -108q83 -100 88 -253h-645q-2 -39 -2 -57q0 -160 81 -279q92 -135 245 -135q172 0 351 207v-66zM662 760q-11 105 -64 171q-61 77 -160 77q-98 0 -168 -77 q-65 -70 -80 -171h472zM746 1234h-66l-214 126l-211 -126h-68l279 242z" />
<glyph unicode="&#xeb;" horiz-adv-x="896" d="M856 380q-223 -280 -435 -280q-161 0 -273 141q-104 131 -104 296q0 198 126 360q136 174 329 174q149 0 239 -108q83 -100 88 -253h-645q-2 -39 -2 -57q0 -160 81 -279q92 -135 245 -135q172 0 351 207v-66zM662 760q-11 105 -64 171q-61 77 -160 77q-98 0 -168 -77 q-65 -70 -80 -171h472zM766 1350q0 -42 -29.5 -71.5t-71.5 -29.5t-71.5 29.5t-29.5 71.5q0 41 29 71t70 30q43 0 73 -29t30 -72zM402 1351q0 -42 -29.5 -71.5t-71.5 -29.5t-71 29.5t-29 71.5q0 41 29 70.5t70 29.5q43 0 72.5 -28.5t29.5 -71.5z" />
<glyph unicode="&#xee;" horiz-adv-x="555" d="M517 129h-458v48q84 2 118.5 37t34.5 119v547q0 63 -72 63q-26 0 -57 -13q-16 -7 -24 -9v51l256 101h49v-740q0 -84 34.5 -119t118.5 -37v-48zM541 1234h-66l-214 126l-211 -126h-68l279 242z" />
<glyph unicode="&#xef;" horiz-adv-x="555" d="M517 129h-458v48q84 2 118.5 37t34.5 119v547q0 63 -72 63q-26 0 -57 -13q-16 -7 -24 -9v51l256 101h49v-740q0 -84 34.5 -119t118.5 -37v-48zM559 1350q0 -42 -29.5 -71.5t-71.5 -29.5t-71.5 29.5t-29.5 71.5q0 41 29 71t70 30q43 0 73 -29t30 -72zM195 1351 q0 -42 -29.5 -71.5t-71.5 -29.5t-71 29.5t-29 71.5q0 41 29 70.5t70 29.5q43 0 72.5 -28.5t29.5 -71.5z" />
<glyph unicode="&#xf4;" horiz-adv-x="1003" d="M958 637q0 -215 -144 -374q-149 -163 -362 -163q-192 0 -303 122q-107 118 -107 312q0 213 142 372q148 165 358 165q194 0 307 -121q109 -118 109 -313zM822 526q0 121 -53 232q-55 118 -151 182q-79 53 -161 53q-140 0 -214 -104q-66 -91 -66 -236q0 -168 103 -309 q113 -154 275 -154q127 0 202 108q65 95 65 228zM785 1234h-66l-214 126l-211 -126h-68l279 242z" />
<glyph unicode="&#xf7;" horiz-adv-x="946" d="M549 772q0 -36 -23.5 -61.5t-59.5 -25.5q-35 0 -60.5 26t-25.5 61q0 36 25 59.5t61 23.5q35 0 59 -24t24 -59zM835 452h-730v83h730v-83zM549 215q0 -36 -23.5 -61t-59.5 -25q-35 0 -60.5 25.5t-25.5 60.5q0 36 25 60.5t61 24.5t59.5 -24.5t23.5 -60.5z" />
<glyph unicode="&#xf9;" horiz-adv-x="1131" d="M1088 207l-276 -110h-49v332q-108 -147 -177 -212q-123 -117 -241 -117q-165 0 -165 234v547q0 87 -93 87q-20 0 -56 -6v47l343 61v-39q-42 -12 -42 -69v-619q0 -131 99 -131q152 0 257 224q86 184 86 356q0 178 -107 178q-19 0 -57 -8v47l348 61v-39q-44 -7 -44 -69 v-643q0 -93 69 -93q41 0 105 30v-49zM627 1214l-36 -21l-139 156q-66 74 -66 97q0 62 60 62q36 0 67 -63z" />
<glyph unicode="&#xfb;" horiz-adv-x="1131" d="M1088 207l-276 -110h-49v332q-108 -147 -177 -212q-123 -117 -241 -117q-165 0 -165 234v547q0 87 -93 87q-20 0 -56 -6v47l343 61v-39q-42 -12 -42 -69v-619q0 -131 99 -131q152 0 257 224q86 184 86 356q0 178 -107 178q-19 0 -57 -8v47l348 61v-39q-44 -7 -44 -69 v-643q0 -93 69 -93q41 0 105 30v-49zM811 1234h-66l-214 126l-211 -126h-68l279 242z" />
<glyph unicode="&#xfc;" horiz-adv-x="1131" d="M1088 207l-276 -110h-49v332q-108 -147 -177 -212q-123 -117 -241 -117q-165 0 -165 234v547q0 87 -93 87q-20 0 -56 -6v47l343 61v-39q-42 -12 -42 -69v-619q0 -131 99 -131q152 0 257 224q86 184 86 356q0 178 -107 178q-19 0 -57 -8v47l348 61v-39q-44 -7 -44 -69 v-643q0 -93 69 -93q41 0 105 30v-49zM817 1350q0 -42 -29.5 -71.5t-71.5 -29.5t-71.5 29.5t-29.5 71.5q0 41 29 71t70 30q43 0 73 -29t30 -72zM453 1351q0 -42 -29.5 -71.5t-71.5 -29.5t-71 29.5t-29 71.5q0 41 29 70.5t70 29.5q43 0 72.5 -28.5t29.5 -71.5z" />
<glyph unicode="&#xff;" horiz-adv-x="960" d="M976 997q-64 -4 -98 -41q-43 -47 -89 -165l-343 -890q-79 -205 -298 -224l-162 191l54 43q79 -98 176 -98q106 0 159 107q17 34 67 162l16 41l-273 679q-38 95 -65 130q-49 64 -122 65v48h324v-48q-38 -2 -38 -24q0 -10 6 -25l248 -617l98 261q66 176 66 292 q0 113 -143 113v48h417v-48zM770 1350q0 -42 -29.5 -71.5t-71.5 -29.5t-71.5 29.5t-29.5 71.5q0 41 29 71t70 30q43 0 73 -29t30 -72zM406 1351q0 -42 -29.5 -71.5t-71.5 -29.5t-71 29.5t-29 71.5q0 41 29 70.5t70 29.5q43 0 72.5 -28.5t29.5 -71.5z" />
<glyph unicode="&#x131;" horiz-adv-x="555" d="M517 129h-458v48q84 2 118.5 37t34.5 119v547q0 63 -72 63q-26 0 -57 -13q-16 -7 -24 -9v51l256 101h49v-740q0 -84 34.5 -119t118.5 -37v-48z" />
<glyph unicode="&#x152;" horiz-adv-x="1771" d="M1735 463l-76 -381h-51l1 10q0 37 -44 37h-512q-33 0 -154 -14q-129 -15 -188 -15q-352 0 -536 275q-96 143 -96 328q0 315 246 540q201 184 501 184q41 0 104 -7q108 -12 168 -12h467q57 0 57 48h49v-383h-73q0 287 -313 287h-106q-12 -73 -12 -200q0 -165 61 -243 q70 -88 230 -88h89v-70l-368 -8v-574h112q311 0 368 286h76zM997 177v1077q-125 101 -294 101q-212 0 -338 -142q-120 -136 -120 -350q0 -187 85 -349q89 -172 245 -259.5t315 -87.5q66 0 107 10z" />
<glyph unicode="&#x153;" horiz-adv-x="1685" d="M1624 379q-239 -279 -439 -279q-198 0 -329 223q-165 -223 -401 -223q-187 0 -300 127q-108 121 -108 310q0 217 144 375q148 162 363 162q240 0 354 -208q154 208 349 208q154 0 243 -105q81 -97 88 -255h-644q-2 -34 -2 -49q0 -167 80 -287q92 -139 251 -139 q167 0 351 210v-70zM1423 763q-6 102 -63 171q-63 77 -161 77q-94 0 -165 -79q-64 -70 -83 -169h472zM819 527q0 165 -96 307q-108 159 -267 159q-134 0 -209 -104q-68 -93 -68 -231q0 -165 101 -308q111 -158 270 -158q133 0 205 105q64 92 64 230z" />
<glyph unicode="&#x160;" horiz-adv-x="917" d="M862 502q0 -168 -155 -289q-144 -113 -317 -113q-131 0 -294 63v360h71q0 -139 77 -242q86 -114 220 -114q106 0 173 62t67 168q0 109 -101 204q-40 37 -193 139q-128 85 -190 138q-93 80 -93 199q0 157 146 264q131 96 295 96q89 0 237 -51v-314h-73q-7 119 -70 203 q-72 94 -186 94q-84 0 -140 -50.5t-56 -134.5q0 -102 116 -206q45 -41 200 -144q137 -92 180 -135q86 -87 86 -197zM808 1800l-280 -242l-281 242h68l213 -132l214 132h66z" />
<glyph unicode="&#x161;" horiz-adv-x="747" d="M694 409q0 -132 -119 -224q-110 -85 -246 -85q-107 0 -247 60v277h68q7 -113 63 -188q64 -86 171 -86q75 0 125 46t50 120t-61 133q-28 27 -125 88l-128 81q-132 93 -132 193q0 117 109 188q94 61 218 61q91 0 196 -40v-262h-72q-1 97 -52 167q-57 78 -150 78 q-52 0 -85.5 -33.5t-33.5 -85.5q0 -63 62 -119q28 -26 115 -80q156 -98 177 -115q97 -80 97 -174zM671 1473l-280 -242l-281 242h68l213 -132l214 132h66z" />
<glyph unicode="&#x178;" horiz-adv-x="1195" d="M1236 1360q-109 -2 -239 -224l-303 -516v-284q0 -154 152 -159v-48h-489v48q88 1 120 35.5t32 123.5v284l-250 502q-49 99 -87 149q-66 88 -137 89v48h363v-48q-38 -1 -38 -27q0 -10 4 -18l314 -624q243 380 243 554q0 70 -49 96q-34 18 -114 19v48h478v-48zM919 1675 q0 -42 -29.5 -71.5t-71.5 -29.5t-71.5 29.5t-29.5 71.5q0 41 29 71t70 30q43 0 73 -29t30 -72zM555 1676q0 -42 -29.5 -71.5t-71.5 -29.5t-71 29.5t-29 71.5q0 41 29 70.5t70 29.5q43 0 72.5 -28.5t29.5 -71.5z" />
<glyph unicode="&#x192;" horiz-adv-x="1088" d="M1088 1431l-162 -174l-34 30q11 23 11 42q0 35 -25.5 60t-60.5 25q-91 0 -160 -116q-61 -102 -61 -200q0 -127 187 -127h95l-11 -47h-312l-181 -720q-43 -172 -109 -278q-61 -100 -196 -224h-69q131 114 194 232q60 114 87 290l107 700h-140l13 47q80 1 133 53 q29 28 84 123q89 152 161 223q139 136 287 136q105 0 162 -75z" />
<glyph unicode="&#x2c6;" horiz-adv-x="683" d="M620 1234h-66l-214 126l-211 -126h-68l279 242z" />
<glyph unicode="&#x2c7;" horiz-adv-x="683" d="M617 1473l-280 -242l-281 242h68l213 -132l214 132h66z" />
<glyph unicode="&#x60c;" horiz-adv-x="576" d="M286 4q-75 0 -114 65q-33 55 -33 135q0 100 78 261q87 179 170 179l18 -15q-53 -52 -102 -138q-55 -97 -55 -161q14 -21 64 -40q56 -22 76 -40q37 -34 37 -99q0 -62 -39 -104.5t-100 -42.5z" />
<glyph unicode="&#x61b;" horiz-adv-x="576" d="M286 696q-147 0 -147 201q0 101 78 261q86 178 170 178l18 -15q-53 -52 -102 -138q-55 -97 -55 -161q16 -19 68.5 -41.5t73.5 -42.5q35 -34 35 -95q0 -57 -41 -102t-98 -45zM283 296q58 0 100 -43.5t42 -101.5t-42 -102t-100 -44t-100.5 44t-42.5 102q0 59 42 102t101 43 z" />
<glyph unicode="&#x61f;" horiz-adv-x="683" d="M336 1341q120 0 192 -84q68 -79 68 -201q0 -43 -18 -124q-21 -98 -45 -99q-32 17 -46 55q40 103 40 190q0 71 -50 125t-121 54q-51 0 -88 -32t-37 -83q0 -41 149.5 -245t149.5 -294q0 -83 -52.5 -133.5t-135.5 -50.5q-46 0 -124 38q-86 42 -86 81q0 23 34 40 q36 -21 73 -41q46 -25 77 -25q64 0 64 59q0 35 -154 236t-154 294q0 106 80 175q76 65 184 65zM332 298q59 0 101 -43.5t42 -102.5t-42.5 -103t-100.5 -44q-57 0 -99.5 44.5t-42.5 102.5q0 57 43 101.5t99 44.5z" />
<glyph unicode="&#x621;" horiz-adv-x="917" d="M284 299q-46 48 -92 95q-55 65 -55 113q0 96 127 208q124 109 222 109q60 0 124 -43q71 -48 71 -104q0 -23 -29 -23q-28 0 -84 8.5t-84 8.5q-50 0 -117 -18q-86 -23 -86 -56q0 -43 73 -105t117 -62q50 0 144 38.5t143 38.5q23 0 23 -23q0 -19 -27 -71q-25 -48 -42 -67 q-285 -114 -521 -256q-66 -40 -81 -40q-25 0 -25 34q0 61 199 215z" />
<glyph unicode="&#x622;" horiz-adv-x="576" d="M336 1480q-45 0 -131.5 20.5t-130.5 20.5q-42 0 -123 -55q-17 6 -17 23q0 52 67.5 115.5t120.5 63.5q52 0 153.5 -22.5t153.5 -22.5t152.5 30t147.5 30q30 0 30 -21q0 -60 -180 -125q-160 -57 -243 -57zM166 1144q105 84 146 115q116 87 141 89l11 -18l-86 -1102 q-4 -60 -8 -121q-11 -93 -41 -93l-29 26q-56 396 -134 1104z" />
<glyph unicode="&#x623;" horiz-adv-x="576" d="M220 1385q-104 26 -104 75q0 54 75.5 128t129.5 74q21 0 49 -26t37 -48q-13 -9 -116 -29q-81 -16 -81 -55q0 -47 105 -47q28 0 74 16q57 20 74 23l19 -13q-18 -58 -46 -89q-106 -53 -311 -162q-18 7 -18 22q0 51 113 131zM167 1059q89 68 134 100q99 69 143 79l10 -17 l-78 -1035q-4 -60 -8 -121q-11 -93 -41 -93q-42 27 -101 522q-29 282 -59 565z" />
<glyph unicode="&#x624;" horiz-adv-x="789" d="M588 4l-124 -2q-383 -6 -383 186q0 153 83 334q99 213 231 213q152 0 233 -222q61 -165 61 -352q0 -207 -93 -469q-114 -324 -275 -324q-109 0 -251 17q-155 19 -155 43q0 21 167 93q177 77 317 190q189 153 189 293zM543 288q-86 188 -214 188q-42 0 -82.5 -34 t-40.5 -75q0 -79 337 -79zM254 1012q-104 26 -104 75q0 53 76 127.5t129 74.5q21 0 49 -26t37 -48q-13 -9 -117 -29q-80 -16 -80 -55q0 -47 105 -47q27 0 76.5 17.5t75.5 17.5l15 -9q-12 -35 -46 -98q-54 -17 -159 -59q-49 -31 -153 -88l-15 19q0 39 111 128z" />
<glyph unicode="&#x625;" horiz-adv-x="576" d="M167 1144q105 84 146 115q117 89 140 89l11 -18l-85 -1102l-8 -122q-11 -92 -42 -92q-34 0 -58 187q-12 117 -23 234q0 1 -81 709zM254 -489q-104 27 -104 75q0 57 74 130t131 73q21 0 49 -26t37 -48q-58 -14 -115 -28q-83 -23 -83 -56q0 -48 128 -48q23 0 65 17.5 t65 17.5l15 -9q-19 -70 -46 -97q-49 -15 -144 -51q-56 -35 -169 -97q-15 5 -15 20q0 48 112 127z" />
<glyph unicode="&#x626;" horiz-adv-x="1707" d="M566 1094q-104 26 -104 75q0 60 72.5 131t132.5 71q21 0 49 -26t37 -48q-13 -9 -117 -28q-81 -16 -81 -56q0 -47 106 -47q27 0 76.5 17.5t75.5 17.5l15 -9q-12 -35 -46 -98q-58 -18 -169 -63q-46 -31 -143 -84l-16 19q0 40 112 128zM1342 956q116 0 203.5 -81.5 t87.5 -197.5l-6 -13q-41 4 -160 36q-99 27 -202 27q-108 0 -206 -67q-109 -74 -109 -176q0 -27 38 -34l216 -38q88 -13 175 -25q100 -19 147 -61q62 -54 62 -162q0 -332 -285 -468q-205 -98 -583 -98q-637 0 -637 449q0 95 44 275q51 212 106 212q26 0 26 -29 q0 -45 -23.5 -132.5t-23.5 -132.5q0 -230 239 -314q147 -52 432 -52q626 0 626 176q0 48 -174 64q-263 25 -324 40q-174 45 -174 161q0 110 127 375.5t378 265.5z" />
<glyph unicode="&#x627;" horiz-adv-x="576" d="M167 1144q105 84 146 115q117 89 140 89l11 -18l-85 -1102l-8 -122q-11 -92 -42 -92q-34 0 -58 187q-12 117 -23 234q0 1 -81 709z" />
<glyph unicode="&#x628;" horiz-adv-x="1707" d="M1467 854q67 -10 124 -155q49 -125 49 -217q0 -344 -287 -472q-194 -86 -588 -86q-313 0 -461 61q-233 95 -233 360q0 70 21 176q27 135 65 135q24 0 24 -54q0 -24 -5 -64t-5 -45q0 -174 249 -235q135 -34 388 -34q212 0 397 22q311 36 311 121q0 41 -72 119l-106 106 q12 38 60 137q50 104 69 125zM894 -301l138 -138l-137 -139l-138 139z" />
<glyph unicode="&#x629;" horiz-adv-x="917" d="M336 772q113 0 287 -137q188 -148 188 -285q0 -172 -106 -298q-113 -134 -281 -134q-316 0 -316 290q0 106 73 321q82 243 155 243zM278 542q-61 -89 -61 -193q0 -84 105 -124q76 -29 177 -29q60 0 134 24q94 30 94 75q0 43 -196 138q-124 60 -253 109zM180 1246 l120 -129l117 128l127 -136l-126 -139l-119 128l-116 -128l-127 137z" />
<glyph unicode="&#x62a;" horiz-adv-x="1707" d="M702 1169l127 -128l126 128l137 -138l-135 -138l-128 127l-125 -129l-137 137zM1464 855q82 -56 130 -165q43 -99 43 -207q0 -344 -287 -472q-193 -86 -588 -86q-314 0 -462 60q-232 95 -232 362q0 70 21 175q27 136 65 136q24 0 24 -54q0 -24 -5 -64t-5 -45 q0 -269 637 -269q211 0 397 22q311 36 311 120q0 42 -72 119l-106 106q47 134 129 262z" />
<glyph unicode="&#x62b;" horiz-adv-x="1707" d="M702 1169l127 -128l126 128l137 -138l-135 -138l-128 127l-125 -129l-137 137zM1464 855q82 -56 130 -165q43 -99 43 -207q0 -344 -287 -472q-193 -86 -588 -86q-314 0 -462 60q-232 95 -232 362q0 70 21 175q27 136 65 136q24 0 24 -54q0 -24 -5 -64t-5 -45 q0 -269 637 -269q211 0 397 22q311 36 311 120q0 42 -72 119l-106 106q47 134 129 262zM949 1250l-125 -129l-137 137l135 141l127 -128v-21z" />
<glyph unicode="&#x62c;" horiz-adv-x="1493" d="M807 501q-317 54 -403 54q-71 0 -127 -45q-51 -43 -102 -87q-24 -2 -24 31q0 99 103 217q107 123 208 123q64 0 153 -17q76 -15 152 -29.5t465 -38.5l30 -2q136 -9 150 -28l-70 -148q-24 -44 -65 -53q-29 -6 -157 -6q-287 0 -494 -137q-238 -157 -238 -430 q0 -221 192 -325q151 -82 392 -82q63 0 187.5 17.5t184.5 17.5q23 0 23 -24q0 -57 -261 -99q-203 -33 -321 -33q-262 0 -450 110q-227 133 -227 377q0 462 699 637zM824 56l136 -138l-135 -139l-136 138z" />
<glyph unicode="&#x62d;" horiz-adv-x="1493" d="M807 501q-317 54 -403 54q-71 0 -127 -45q-51 -43 -102 -87q-24 -2 -24 31q0 99 103 217q107 123 208 123q64 0 153 -17q76 -15 152 -29.5t465 -38.5l30 -2q136 -9 150 -28l-70 -148q-24 -44 -65 -53q-29 -6 -157 -6q-287 0 -494 -137q-238 -157 -238 -430 q0 -221 192 -325q151 -82 392 -82q63 0 187.5 17.5t184.5 17.5q23 0 23 -24q0 -57 -261 -99q-203 -33 -321 -33q-262 0 -450 110q-227 133 -227 377q0 462 699 637z" />
<glyph unicode="&#x62e;" horiz-adv-x="1493" d="M817 1267l138 -140l-136 -138l-137 140zM807 501q-317 54 -403 54q-71 0 -127 -45q-51 -43 -102 -87q-24 -2 -24 31q0 99 103 217q107 123 208 123q64 0 153 -17q76 -15 152 -29.5t465 -38.5l30 -2q136 -9 150 -28l-70 -148q-24 -44 -65 -53q-29 -6 -157 -6 q-287 0 -494 -137q-238 -157 -238 -430q0 -221 192 -325q151 -82 392 -82q63 0 187.5 17.5t184.5 17.5q23 0 23 -24q0 -57 -261 -99q-203 -33 -321 -33q-262 0 -450 110q-227 133 -227 377q0 462 699 637z" />
<glyph unicode="&#x62f;" d="M445 862q50 0 192 -126q270 -239 270 -493q0 -244 -114 -340q-104 -89 -352 -89q-342 0 -342 233q0 59 14 141q19 109 48 109q35 -27 44 -83q9 -51 49 -69q63 -28 251 -28q76 0 180 23q137 30 137 74q0 58 -179 197q-176 136 -242 136q-9 0 -25 -8t-25 -8q-27 0 -27 26 q0 39 48 156q45 109 73 149z" />
<glyph unicode="&#x630;" d="M367 1181l135 -138l-135 -138l-134 138zM445 862q50 0 192 -126q270 -239 270 -493q0 -244 -114 -340q-104 -89 -352 -89q-342 0 -342 233q0 59 14 141q19 109 48 109q35 -27 44 -83q9 -51 49 -69q63 -28 251 -28q76 0 180 23q137 30 137 74q0 58 -179 197 q-176 136 -242 136q-9 0 -25 -8t-25 -8q-27 0 -27 26q0 39 48 156q45 109 73 149z" />
<glyph unicode="&#x631;" horiz-adv-x="747" d="M450 492q200 -163 200 -483q0 -163 -88 -377q-105 -254 -239 -254q-100 0 -214 12q-164 17 -200 49q43 36 231 136q196 105 282 171q137 106 137 203q0 88 -255 302q39 84 63 128q46 81 83 113z" />
<glyph unicode="&#x632;" horiz-adv-x="747" d="M468 1070l138 -139l-138 -138l-135 140zM450 500q25 -2 112 -138q87 -139 87 -323q0 -173 -85 -390q-102 -263 -241 -263q-102 0 -216 12q-162 17 -198 50q43 35 232 136q195 104 281 171q137 106 137 203q0 88 -255 302q84 172 146 240z" />
<glyph unicode="&#x633;" horiz-adv-x="2048" d="M1258 46q8 -36 8 -117q0 -274 -191 -423q-174 -135 -456 -135q-568 0 -568 440q0 93 32 232q41 177 96 177q21 0 21 -29q0 -42 -21.5 -123.5t-21.5 -123.5q0 -269 468 -269q191 0 344 44q226 65 226 205q0 61 -100 193q-75 90 -149 180q31 58 62 117q38 69 74 108 l138 -130q101 -88 150 -88q61 0 92 82q39 105 52 116q26 -26 47 -88q20 -57 47 -77q42 -34 140 -34q37 0 76 22q44 24 44 58q0 39 -90 184q27 51 45 78q32 49 59 65q38 -2 64 -135q20 -103 20 -173q0 -147 -52 -255q-67 -138 -198 -138q-114 0 -174 135q-51 -137 -166 -137 q-44 0 -118 39z" />
<glyph unicode="&#x634;" horiz-adv-x="2048" d="M1516 1318l139 -138l-137 -138l-140 140zM1389 1036l130 -124l130 126l140 -135l-137 -135l-131 127l-134 -130l-139 136zM1258 46q8 -36 8 -117q0 -274 -191 -423q-174 -135 -456 -135q-568 0 -568 440q0 93 32 232q41 177 96 177q21 0 21 -29q0 -42 -21.5 -123.5 t-21.5 -123.5q0 -269 468 -269q191 0 344 44q226 65 226 205q0 61 -100 193q-75 90 -149 180q31 58 62 117q38 69 74 108l138 -130q101 -88 150 -88q61 0 92 82q39 105 52 116q26 -26 47 -88q20 -57 47 -77q42 -34 140 -34q37 0 76 22q44 24 44 58q0 39 -90 184q27 51 45 78 q32 49 59 65q38 -2 64 -135q20 -103 20 -173q0 -147 -52 -255q-67 -138 -198 -138q-114 0 -174 135q-51 -137 -166 -137q-44 0 -118 39z" />
<glyph unicode="&#x635;" horiz-adv-x="2283" d="M1317 343q134 161 300 285q213 158 368 158q98 0 157 -64t59 -163q0 -230 -228 -398q-211 -155 -449 -155q-121 0 -243 46l11 -117q0 -299 -209 -443q-178 -122 -491 -122q-524 0 -524 485q0 76 36 209q44 158 93 158q24 0 24 -28q0 -43 -21 -126t-21 -126 q0 -267 459 -267q197 0 352 44q232 66 232 210q0 51 -103 185q-7 9 -147 178q61 119 62 120q38 69 76 112q34 -24 102 -92q63 -63 105 -89zM1812 559q-111 0 -232 -78q-103 -68 -181 -170q51 -20 217 -20q133 0 245 16q188 28 188 91q0 60 -90 113q-81 48 -147 48z" />
<glyph unicode="&#x636;" horiz-adv-x="2283" d="M1439 1152l133 -135l-133 -136l-133 135zM1317 343q134 161 300 285q213 158 368 158q98 0 157 -64t59 -163q0 -230 -228 -398q-211 -155 -449 -155q-121 0 -243 46l11 -117q0 -299 -209 -443q-178 -122 -491 -122q-524 0 -524 485q0 76 36 209q44 158 93 158 q24 0 24 -28q0 -43 -21 -126t-21 -126q0 -267 459 -267q197 0 352 44q232 66 232 210q0 50 -103 184q-15 19 -147 179q61 119 62 120q38 69 76 112q50 -48 99 -96q60 -57 108 -85zM1812 559q-111 0 -232 -78q-103 -68 -181 -170q51 -20 217 -20q133 0 245 16q188 28 188 91 q0 60 -90 113q-81 48 -147 48z" />
<glyph unicode="&#x637;" horiz-adv-x="1600" d="M471 202q36 111 36 244q0 120 -36 277q-36 136 -71 272q33 54 85 117q68 84 97 86q26 -43 76 -156q55 -122 57 -152l-13 -13q-36 8 -76 25q4 -113 4 -136q0 -219 -71 -468q397 366 731 366q82 0 144 -41q72 -47 72 -124q0 -262 -325 -433q-273 -144 -559 -144 q-115 0 -203 42q-69 33 -211 127q-164 108 -167 138l18 8q338 -35 412 -35zM1107 481q-129 0 -294 -92q-136 -77 -251 -187h127q627 0 627 135q0 68 -74 109q-61 35 -135 35z" />
<glyph unicode="&#x638;" horiz-adv-x="1600" d="M471 202q36 111 36 244q0 120 -36 277q-36 136 -71 272q33 53 84 116q69 85 98 87q26 -42 76 -155q55 -123 57 -153l-13 -13q-37 8 -76 25q4 -113 4 -136q0 -219 -71 -468q397 366 731 366q82 0 144 -41q72 -47 72 -124q0 -262 -325 -433q-273 -144 -559 -144 q-115 0 -203 42q-69 33 -211 127q-165 108 -167 138l18 8q71 0 205 -16q144 -17 207 -19zM1107 481q-129 0 -294 -92q-136 -77 -251 -187h127q627 0 627 135q0 68 -74 109q-61 35 -135 35zM1071 1147l139 -138l-139 -136l-138 136z" />
<glyph unicode="&#x639;" horiz-adv-x="1365" d="M586 340q-155 63 -155 176q0 61 81 225q147 296 377 296q111 0 205 -77q100 -83 100 -193q0 -15 -20 -21q-222 72 -319 72q-85 0 -168 -31q-108 -40 -108 -109q0 -160 431 -160q58 0 142 3t99 3q26 0 47 -14q-79 -241 -135 -241q-63 0 -189.5 11.5t-189.5 11.5 q-188 0 -309 -98q-132 -107 -132 -290q0 -205 151 -318q136 -101 348 -101q71 0 211.5 18.5t209.5 18.5q35 0 35 -28q0 -59 -267 -96q-194 -26 -340 -26q-245 0 -407 91q-201 113 -201 339q0 202 157 350q133 126 346 188z" />
<glyph unicode="&#x63a;" horiz-adv-x="1365" d="M869 1374l136 -138l-136 -138l-131 140zM586 340q-155 63 -155 176q0 61 81 225q147 296 377 296q111 0 205 -77q100 -83 100 -193q0 -15 -20 -21q-222 72 -319 72q-85 0 -168 -31q-108 -40 -108 -109q0 -160 431 -160q58 0 142 3t99 3q26 0 47 -14q-79 -241 -135 -241 q-63 0 -189.5 11.5t-189.5 11.5q-188 0 -309 -98q-132 -107 -132 -290q0 -205 151 -318q136 -101 348 -101q71 0 211.5 18.5t209.5 18.5q35 0 35 -28q0 -59 -267 -96q-194 -26 -340 -26q-245 0 -407 91q-201 113 -201 339q0 202 157 350q133 126 346 188z" />
<glyph unicode="&#x640;" horiz-adv-x="683" d="M-19 296h701v-296h-701v296z" />
<glyph unicode="&#x641;" horiz-adv-x="1707" d="M1191 1241l139 138l140 -138l-140 -138zM1517 426q-138 -7 -226 -7q-124 0 -168 21q-72 34 -72 143q0 141 65 273q80 160 205 160q164 0 245 -186q61 -139 61 -324q0 -320 -311 -441q-201 -78 -589 -78q-308 0 -450 57q-226 91 -226 352q0 81 24 192q31 146 77 146 q31 0 31 -30q0 -24 -8.5 -70t-8.5 -70q0 -196 250 -253q111 -26 403 -26q698 0 698 141zM1454 652q-69 134 -185 134q-39 0 -70 -21q-36 -24 -36 -61q0 -57 163 -57h51q44 0 77 5z" />
<glyph unicode="&#x642;" horiz-adv-x="1493" d="M963 1367l127 -126l123 127l136 -138l-135 -138l-125 126l-124 -128l-135 140zM1288 228q-251 7 -305 17q-204 37 -204 170q0 152 83 333q98 214 228 214q163 0 242 -235q55 -165 55 -372q0 -755 -645 -755q-296 0 -440 75q-197 104 -197 372q0 87 34 229q41 176 93 176 q23 0 23 -30q0 -31 -14.5 -91t-14.5 -91q0 -334 502 -334q560 0 560 322zM1237 514q-92 186 -210 186q-46 0 -85 -33.5t-39 -78.5q0 -34 109 -56q84 -18 143 -18h82z" />
<glyph unicode="&#x643;" horiz-adv-x="1941" d="M871 296q336 0 336 67q0 43 -121.5 235t-121.5 211q0 45 28 119t58 102q451 163 914 312v-193l-408 -132q-234 -79 -401 -153q64 -112 129 -223q67 -135 67 -245q0 -15 -9 -44q-65 -212 -173 -287q-86 -59 -257 -59q-37 0 -128.5 3t-145.5 3q40 -2 115 -12 q-57 -3 -128 -3q-217 0 -363 71q-192 94 -192 287q0 72 25 181q31 138 73 138q32 0 32 -37q0 -16 -6 -49t-6 -49q0 -247 692 -247zM519 699q-104 26 -104 75q0 53 76 127.5t129 74.5q21 0 49 -26t37 -48q-13 -9 -117 -29q-80 -16 -80 -55q0 -47 105 -47q27 0 76.5 17.5 t75.5 17.5l15 -9q-12 -35 -46 -98q-54 -17 -159 -59q-49 -31 -153 -88l-15 19q0 39 111 128z" />
<glyph unicode="&#x644;" horiz-adv-x="1493" d="M1305 995l-14 -683q-7 -326 -34 -468q-45 -227 -174 -337q-152 -130 -450 -130q-232 0 -372 87q-170 106 -170 324q0 89 29 233q37 181 85 181q18 -9 18 -31q0 -33 -11 -98t-11 -98q0 -171 158 -249q119 -59 310 -59q158 0 307 54q201 74 201 206q0 231 -60 780 q-4 40 -31 163q-22 101 -22 164q0 35 81 141q78 103 115 124l20 -15q79 -186 119 -296l-14 -19q-30 0 -80 26z" />
<glyph unicode="&#x645;" d="M378 421q-34 92 -34 115q0 65 71 155q75 95 137 95q101 0 250 -106q156 -112 156 -208q0 -107 -54 -211q-64 -123 -160 -123q-65 0 -194 13t-194 13q-52 0 -79 -30q-16 -42 -16 -170q0 -69 6 -207.5t6 -207.5q0 -84 -18 -196q-24 -152 -64 -152q-34 0 -45 113 q-1 8 -6 140q-26 697 -26 719q0 110 77 182t187 66zM457 416q301 -38 381 -38q23 0 22 21q-145 163 -357 163q-70 0 -70 -40q0 -26 24 -106z" />
<glyph unicode="&#x646;" horiz-adv-x="1365" d="M706 951l137 -138l-137 -138l-134 137zM1102 753q30 -5 107 -157q80 -157 80 -391q0 -607 -633 -607q-573 0 -573 444q0 90 35 233q43 177 97 177q21 0 21 -25q0 -37 -22 -114.5t-22 -115.5q0 -294 455 -294q185 0 337 44q224 64 224 200q0 87 -96 196q-131 148 -145 173 q37 83 59 124q41 79 76 113z" />
<glyph unicode="&#x647;" horiz-adv-x="917" d="M336 772q113 0 287 -137q188 -148 188 -285q0 -172 -106 -298q-113 -134 -281 -134q-316 0 -316 290q0 106 73 321q82 243 155 243zM278 542q-61 -89 -61 -193q0 -84 105 -124q76 -29 177 -29q60 0 134 24q94 30 94 75q0 43 -196 138q-124 60 -253 109z" />
<glyph unicode="&#x648;" horiz-adv-x="789" d="M588 4l-124 -2q-383 -6 -383 186q0 153 83 334q99 213 231 213q152 0 233 -222q61 -165 61 -352q0 -207 -93 -469q-114 -324 -275 -324q-109 0 -251 17q-155 19 -155 43q0 21 167 93q177 77 317 190q189 153 189 293zM543 288q-86 188 -214 188q-42 0 -82.5 -34 t-40.5 -75q0 -79 337 -79z" />
<glyph unicode="&#x649;" horiz-adv-x="1707" d="M1342 956q116 0 203.5 -81.5t87.5 -197.5l-6 -13q-41 4 -160 36q-99 27 -202 27q-108 0 -206 -67q-109 -74 -109 -176q0 -27 38 -34l216 -38q88 -13 175 -25q100 -19 147 -61q62 -54 62 -162q0 -332 -285 -468q-205 -98 -583 -98q-637 0 -637 449q0 95 44 275 q51 212 106 212q26 0 26 -29q0 -45 -23.5 -132.5t-23.5 -132.5q0 -230 239 -314q147 -52 432 -52q626 0 626 176q0 48 -174 64q-263 25 -324 40q-174 45 -174 161q0 110 127 375.5t378 265.5z" />
<glyph unicode="&#x64a;" horiz-adv-x="1707" d="M1342 956q116 0 203.5 -81.5t87.5 -197.5l-6 -13q-41 4 -160 36q-99 27 -202 27q-108 0 -206 -67q-109 -74 -109 -176q0 -27 38 -34l216 -38q88 -13 175 -25q100 -19 147 -61q62 -54 62 -162q0 -332 -285 -468q-205 -98 -583 -98q-637 0 -637 449q0 95 44 275 q51 212 106 212q26 0 26 -29q0 -45 -23.5 -132.5t-23.5 -132.5q0 -230 239 -314q147 -52 432 -52q626 0 626 176q0 48 -174 64q-263 25 -324 40q-174 45 -174 161q0 110 127 375.5t378 265.5zM622 -566l117 -131l120 129l129 -142l-129 -138l-118 128l-118 -128l-128 140z " />
<glyph unicode="&#x64b;" horiz-adv-x="583" d="M545 1948q-34 -11 -212 -94q-156 -73 -201 -73h-100q8 4 212 97q153 70 200 70h101zM583 1837q-34 -11 -212 -94q-156 -73 -201 -73h-100q8 4 212 97q153 70 200 70h101z" />
<glyph unicode="&#x64c;" horiz-adv-x="576" d="M576 1857q0 -45 -74 -78l58 -52h-44q-33 0 -69 25q-147 -82 -213 -82v83q-46 -20 -98 -20h-66q48 20 180 86l54 29v-96q32 12 90 40l-28 25q-36 32 -36 66q0 37 38 67l120 95q0 -25 44 -94t44 -94zM507 1867q0 56 -56 56q-51 0 -51 -41q0 -15 54 -59q53 31 53 44z" />
<glyph unicode="&#x64d;" horiz-adv-x="583" d="M545 -585q-34 -11 -212 -94q-156 -73 -201 -73h-100q8 4 212 97q153 70 200 70h101zM583 -696q-34 -11 -212 -94q-156 -73 -201 -73h-100q8 4 212 97q153 70 200 70h101z" />
<glyph unicode="&#x64e;" horiz-adv-x="583" d="M583 1837q-34 -11 -212 -94q-156 -73 -201 -73h-100q8 4 212 97q153 70 200 70h101z" />
<glyph unicode="&#x64f;" horiz-adv-x="511" d="M511 1857q0 -45 -74 -78l58 -52h-44q-33 0 -70 26q-11 -4 -99 -49q-67 -34 -120 -34h-92q108 41 257 123l-26 24q-36 33 -36 66q0 37 38 67l120 95q0 -25 44 -94t44 -94zM442 1867q0 56 -56 56q-51 0 -51 -41q0 -15 54 -59q53 31 53 44z" />
<glyph unicode="&#x650;" horiz-adv-x="583" d="M583 -585q-34 -11 -212 -94q-156 -73 -201 -73h-100q8 4 212 97q153 70 200 70h101z" />
<glyph unicode="&#x651;" horiz-adv-x="551" d="M551 1816q-47 -11 -183 -81q-126 -65 -148 -65q-42 0 -94 77q-21 31 -56 72h59q27 0 61.5 -32t44.5 -32q48 0 48 39q0 67 -64 105h61q29 0 49 -31q36 -54 48 -54q45 0 45 48q0 52 -52 80l51 4q43 3 72 -47q38 -68 58 -83z" />
<glyph unicode="&#x652;" horiz-adv-x="326" d="M326 1787q0 -50 -38.5 -83.5t-89.5 -33.5q-48 0 -86 29q-42 31 -42 78q0 50 64 116l84 86q0 -40 54 -99t54 -93zM260 1779q0 25 -66 94l-38 -42q-20 -22 -20 -44q0 -56 60 -56q21 0 42.5 14t21.5 34z" />
<glyph unicode="&#x660;" d="M526 773l210 -227l-209 -225l-213 224z" />
<glyph unicode="&#x661;" d="M502 1304q84 -115 133 -326q42 -182 42 -353v-187q0 -138 -21 -285q-22 -153 -48 -153q-24 0 -32 59q-5 113 -24 338q-45 365 -178 597q-12 21 -19 38q16 49 66 148q57 113 81 124z" />
<glyph unicode="&#x662;" d="M488 856q30 -176 30 -364q0 -492 -80 -492l-23 14q-5 28 -5 76q0 521 -241 936q38 96 61 146q52 112 80 130q38 -31 70 -88.5t57 -74.5q43 -30 134 -30q101 0 166 65q59 64 119 128q23 0 23 -50q0 -147 -78 -268q-89 -139 -228 -139q-53 0 -85 11z" />
<glyph unicode="&#x663;" d="M394 856q38 -164 38 -332q0 -153 -15 -299q-23 -225 -71 -225q-26 0 -26 100q0 534 -243 925q78 194 142 275l80 -122q47 -63 126 -63q60 0 93 33q21 20 45 74q26 58 46 81q16 -14 34 -66q21 -59 37 -81q30 -39 82 -39q60 0 106 68q33 60 67 119q23 2 23 -50 q0 -144 -47 -250q-62 -141 -188 -141q-87 0 -120 85q-57 -102 -152 -102q-28 0 -57 10z" />
<glyph unicode="&#x664;" d="M709 3q105 136 175 246q-468 62 -468 174q0 62 97 177q70 84 150 153q-84 16 -197 64q-145 62 -145 112q0 54 139 112q106 44 193 58q26 62 64 183l-12 10q-159 0 -363 -172q-210 -177 -210 -332q0 -127 245 -200q-216 -198 -216 -342q0 -175 548 -243z" />
<glyph unicode="&#x665;" d="M406 1025q223 0 361 -207q123 -182 123 -416q0 -278 -186 -366q-84 -40 -112 -40q-21 0 -66 16q-7 26 -38 74q-11 -5 -63 -47q-37 -30 -70 -30q-94 0 -157 76q-59 72 -59 168q0 384 193 707q39 65 74 65zM765 393q0 151 -119 251q-112 95 -266 95q-85 0 -85 -345 q0 -51 40 -86.5t92 -35.5q23 0 52 36q35 41 49 48q19 -11 51 -80q34 -18 43 -18q143 0 143 135z" />
<glyph unicode="&#x666;" d="M580 908q-102 -9 -155 -9q-307 0 -307 254q0 150 37 150q16 -32 54 -89q19 -21 112 -37q77 -13 126 -13q59 0 255 28q25 -11 25 -65q0 -66 -7 -198.5t-7 -198.5q0 -392 198 -436v-293q-336 0 -336 670q0 55 2 130q3 102 3 107z" />
<glyph unicode="&#x667;" d="M522 608q78 355 260 609q27 38 37 50q29 35 46 37q33 -46 85 -283q-11 -17 -30 -39q-163 -192 -247 -410q-76 -195 -109 -467q-5 -43 -9 -59q-11 -45 -30 -46l-23 17q-13 51 -57 275q-33 167 -74 272q-52 132 -132 242q-78 105 -155 210q4 57 30 148q29 97 56 137 q23 -2 149 -190q118 -176 203 -503z" />
<glyph unicode="&#x668;" d="M511 696q-78 -357 -260 -609q-27 -37 -37 -49q-29 -35 -46 -38l-14 10q-25 91 -71 273q11 17 30 39q296 350 356 877l6 62q9 43 32 43q20 -10 29 -36q3 -19 8 -53q57 -308 137 -493q85 -198 268 -433q-1 -51 -30.5 -148.5t-55.5 -137.5q-25 2 -151 191.5t-201 501.5z" />
<glyph unicode="&#x669;" d="M541 658l-179 -7q-201 -10 -201 145q0 161 71 318q88 193 227 193q167 0 200 -228q13 -226 26 -453q29 -267 183 -332v-294q-327 0 -327 658zM527 895q-22 164 -138 164q-117 0 -117 -101q0 -70 164 -70q63 0 91 7z" />
<glyph unicode="&#x66a;" horiz-adv-x="946" d="M319 1275q0 -46 -33 -81.5t-79 -35.5q-47 0 -82 35t-35 82q0 48 34.5 81.5t82.5 33.5q46 0 79 -34.5t33 -80.5zM770 1418l-510 -1325h-78l506 1325h82zM859 246q0 -46 -33 -81.5t-79 -35.5q-47 0 -82 35t-35 82q0 48 34.5 81.5t82.5 33.5q46 0 79 -34.5t33 -80.5z" />
<glyph unicode="&#x66d;" horiz-adv-x="815" d="M765 1190l-218 -161l82 -259l-221 158l-221 -158l82 259l-218 161h271l86 260l86 -260h271z" />
<glyph unicode="&#x670;" horiz-adv-x="239" d="M294 1084q-10 -13 -77 -13t-95 14q-39 20 -39 79v305q0 30 -61 129q41 0 116 86v-466q0 -87 100 -119q16 -4 56 -15z" />
<glyph unicode="&#x671;" horiz-adv-x="500" />
<glyph unicode="&#x674;" horiz-adv-x="368" d="M298 1638q-18 -10 -53 -40l-26 -32q-12 -15 -12 -20q0 -11 13 -23l46 -44q20 -19 20 -43q0 -25 -15 -40l-72 -70q-32 -31 -88 -31q-25 0 -41 8q26 5 48 31l26 30q19 22 19 34q0 8 -18 26l-37 37q-25 25 -25 47q0 24 26 49l61 58q27 26 89 26q17 0 39 -3z" />
<glyph unicode="&#x67e;" horiz-adv-x="1707" d="M1467 855q67 -11 124 -156q49 -126 49 -216q0 -344 -287 -472q-193 -86 -588 -86q-315 0 -462 60q-232 95 -232 362q0 70 21 175q27 136 65 136q24 0 24 -54q0 -24 -5 -64t-5 -45q0 -269 637 -269q211 0 397 22q311 36 311 120q0 41 -72 119l-106 106q9 34 58.5 135 t70.5 127zM871 -574l127 -141l-125 -135l-124 139zM756 -316l118 -129l117 127l128 -138l-128 -136l-115 127l-120 -127l-127 138z" />
<glyph unicode="&#x686;" horiz-adv-x="1493" d="M807 501q-317 54 -403 54q-71 0 -127 -45q-51 -43 -102 -87q-24 -2 -24 31q0 99 103 217q107 123 208 123q64 0 153 -17q76 -15 152 -29.5t465 -38.5l30 -2q136 -9 150 -28l-70 -148q-24 -44 -65 -53q-29 -6 -157 -6q-287 0 -494 -137q-238 -157 -238 -430 q0 -221 192 -325q151 -82 392 -82q63 0 187.5 17.5t184.5 17.5q23 0 23 -24q0 -57 -261 -99q-203 -33 -321 -33q-262 0 -450 110q-227 133 -227 377q0 462 699 637zM811 -64l127 -141l-125 -135l-124 139zM696 194l118 -129l117 127l128 -138l-128 -136l-115 127l-120 -127 l-127 138z" />
<glyph unicode="&#x698;" horiz-adv-x="747" d="M450 492q200 -163 200 -483q0 -163 -88 -377q-105 -254 -239 -254q-100 0 -214 12q-164 17 -200 49q43 36 231 136q196 105 282 171q137 106 137 203q0 88 -255 302q39 84 63 128q46 81 83 113zM381 1256l127 -141l-125 -135l-124 139zM266 974l118 -129l117 127 l128 -138l-128 -136l-115 127l-120 -127l-127 138z" />
<glyph unicode="&#x6a4;" horiz-adv-x="1707" d="M1191 1241l139 138l140 -138l-140 -138zM1517 426q-138 -7 -226 -7q-124 0 -168 21q-72 34 -72 143q0 141 65 273q80 160 205 160q164 0 245 -186q61 -139 61 -324q0 -320 -311 -441q-201 -78 -589 -78q-308 0 -450 57q-226 91 -226 352q0 81 24 192q31 146 77 146 q31 0 31 -30q0 -24 -8.5 -70t-8.5 -70q0 -196 250 -253q111 -26 403 -26q698 0 698 141zM1454 652q-69 134 -185 134q-39 0 -70 -21q-36 -24 -36 -61q0 -57 163 -57h51q44 0 77 5z" />
<glyph unicode="&#x6a9;" horiz-adv-x="1941" d="M871 296q336 0 336 67q0 43 -121.5 235t-121.5 211q0 45 28 119t58 102q451 163 914 312v-193l-408 -132q-234 -79 -401 -153q64 -112 129 -223q67 -135 67 -245q0 -15 -9 -44q-65 -212 -173 -287q-86 -59 -257 -59q-37 0 -128.5 3t-145.5 3q40 -2 115 -12 q-57 -3 -128 -3q-217 0 -363 71q-192 94 -192 287q0 72 25 181q31 138 73 138q32 0 32 -37q0 -16 -6 -49t-6 -49q0 -247 692 -247z" />
<glyph unicode="&#x6af;" horiz-adv-x="1941" d="M871 296q336 0 336 67q0 43 -121.5 235t-121.5 211q0 45 28 119t58 102q451 163 914 312v-193l-408 -132q-234 -79 -401 -153q64 -112 129 -223q67 -135 67 -245q0 -15 -9 -44q-65 -212 -173 -287q-86 -59 -257 -59q-37 0 -128.5 3t-145.5 3q40 -2 115 -12 q-57 -3 -128 -3q-217 0 -363 71q-192 94 -192 287q0 72 25 181q31 138 73 138q32 0 32 -37q0 -16 -6 -49t-6 -49q0 -247 692 -247zM1956 1527l16 -14q-3 -50 -4 -52q-6 -28 -33 -37q-220 -78 -439 -155q-311 -109 -426 -129l-6 5q-5 26 -6 73q17 23 431 165.5t467 143.5z " />
<glyph unicode="&#x6cc;" horiz-adv-x="1707" d="M1342 956q116 0 203.5 -81.5t87.5 -197.5l-6 -13q-41 4 -160 36q-99 27 -202 27q-108 0 -206 -67q-109 -74 -109 -176q0 -27 38 -34l216 -38q88 -13 175 -25q100 -19 147 -61q62 -54 62 -162q0 -332 -285 -468q-205 -98 -583 -98q-637 0 -637 449q0 95 44 275 q51 212 106 212q26 0 26 -29q0 -45 -23.5 -132.5t-23.5 -132.5q0 -230 239 -314q147 -52 432 -52q626 0 626 176q0 48 -174 64q-263 25 -324 40q-174 45 -174 161q0 110 127 375.5t378 265.5z" />
<glyph unicode="&#x6d5;" horiz-adv-x="917" d="M336 772q113 0 287 -137q188 -148 188 -285q0 -172 -106 -298q-113 -134 -281 -134q-316 0 -316 290q0 106 73 321q82 243 155 243zM278 542q-61 -89 -61 -193q0 -84 105 -124q76 -29 177 -29q60 0 134 24q94 30 94 75q0 43 -196 138q-124 60 -253 109z" />
<glyph unicode="&#x6e4;" horiz-adv-x="530" d="M485 1399q0 -104 -125 -104h-149q-57 0 -90 -58l-76 -108v156q0 104 125 104h145q62 0 94 58l76 108v-156z" />
<glyph unicode="&#x6f0;" d="M526 773l210 -227l-209 -225l-213 224z" />
<glyph unicode="&#x6f1;" d="M502 1304q84 -115 133 -326q42 -182 42 -353v-187q0 -138 -21 -285q-22 -153 -48 -153q-24 0 -32 59q-5 113 -24 338q-45 365 -178 597q-12 21 -19 38q16 49 66 148q57 113 81 124z" />
<glyph unicode="&#x6f2;" d="M488 856q30 -176 30 -364q0 -492 -80 -492l-23 14q-5 28 -5 76q0 521 -241 936q38 96 61 146q52 112 80 130q38 -31 70 -88.5t57 -74.5q43 -30 134 -30q101 0 166 65q59 64 119 128q23 0 23 -50q0 -147 -78 -268q-89 -139 -228 -139q-53 0 -85 11z" />
<glyph unicode="&#x6f3;" d="M394 856q38 -164 38 -332q0 -153 -15 -299q-23 -225 -71 -225q-26 0 -26 100q0 534 -243 925q78 194 142 275l80 -122q47 -63 126 -63q60 0 93 33q21 20 45 74q26 58 46 81q16 -14 34 -66q21 -59 37 -81q30 -39 82 -39q60 0 106 68q33 60 67 119q23 2 23 -50 q0 -144 -47 -250q-62 -141 -188 -141q-87 0 -120 85q-57 -102 -152 -102q-28 0 -57 10z" />
<glyph unicode="&#x6f4;" d="M709 3q105 136 175 246q-468 62 -468 174q0 62 97 177q70 84 150 153q-84 16 -197 64q-145 62 -145 112q0 54 139 112q106 44 193 58q26 62 64 183l-12 10q-159 0 -363 -172q-210 -177 -210 -332q0 -127 245 -200q-216 -198 -216 -342q0 -175 548 -243z" />
<glyph unicode="&#x6f5;" d="M406 1025q223 0 361 -207q123 -182 123 -416q0 -278 -186 -366q-84 -40 -112 -40q-21 0 -66 16q-7 26 -38 74q-11 -5 -63 -47q-37 -30 -70 -30q-94 0 -157 76q-59 72 -59 168q0 384 193 707q39 65 74 65zM765 393q0 151 -119 251q-112 95 -266 95q-85 0 -85 -345 q0 -51 40 -86.5t92 -35.5q23 0 52 36q35 41 49 48q19 -11 51 -80q34 -18 43 -18q143 0 143 135z" />
<glyph unicode="&#x6f6;" d="M580 908q-102 -9 -155 -9q-307 0 -307 254q0 150 37 150q16 -32 54 -89q19 -21 112 -37q77 -13 126 -13q59 0 255 28q25 -11 25 -65q0 -66 -7 -198.5t-7 -198.5q0 -392 198 -436v-293q-336 0 -336 670q0 55 2 130q3 102 3 107z" />
<glyph unicode="&#x6f7;" d="M522 608q78 355 260 609q27 38 37 50q29 35 46 37q33 -46 85 -283q-11 -17 -30 -39q-163 -192 -247 -410q-76 -195 -109 -467q-5 -43 -9 -59q-11 -45 -30 -46l-23 17q-13 51 -57 275q-33 167 -74 272q-52 132 -132 242q-78 105 -155 210q4 57 30 148q29 97 56 137 q23 -2 149 -190q118 -176 203 -503z" />
<glyph unicode="&#x6f8;" d="M511 696q-78 -357 -260 -609q-27 -37 -37 -49q-29 -35 -46 -38l-14 10q-25 91 -71 273q11 17 30 39q296 350 356 877l6 62q9 43 32 43q20 -10 29 -36q3 -19 8 -53q57 -308 137 -493q85 -198 268 -433q-1 -51 -30.5 -148.5t-55.5 -137.5q-25 2 -151 191.5t-201 501.5z" />
<glyph unicode="&#x6f9;" d="M541 658l-179 -7q-201 -10 -201 145q0 161 71 318q88 193 227 193q167 0 200 -228q13 -226 26 -453q29 -267 183 -332v-294q-327 0 -327 658zM527 895q-22 164 -138 164q-117 0 -117 -101q0 -70 164 -70q63 0 91 7z" />
<glyph unicode="&#x2000;" horiz-adv-x="1131" />
<glyph unicode="&#x2001;" horiz-adv-x="2263" />
<glyph unicode="&#x2002;" horiz-adv-x="1131" />
<glyph unicode="&#x2003;" horiz-adv-x="2263" />
<glyph unicode="&#x2004;" horiz-adv-x="754" />
<glyph unicode="&#x2005;" horiz-adv-x="565" />
<glyph unicode="&#x2006;" horiz-adv-x="377" />
<glyph unicode="&#x2007;" horiz-adv-x="377" />
<glyph unicode="&#x2008;" horiz-adv-x="282" />
<glyph unicode="&#x2009;" horiz-adv-x="452" />
<glyph unicode="&#x200a;" horiz-adv-x="125" />
<glyph unicode="&#x200c;" horiz-adv-x="45" d="M45 0h-45v1628h45v-1628z" />
<glyph unicode="&#x200d;" horiz-adv-x="45" d="M160 1496l-30 -30l-85 85v-1551h-45v1550l-84 -84l-30 30l107 107l-107 107l30 30l107 -107l107 107l30 -30l-107 -107z" />
<glyph unicode="&#x200e;" horiz-adv-x="45" d="M303 1604l-137 -138l-31 31l86 86h-176v-1583h-45v1628h217l-82 82l31 31z" />
<glyph unicode="&#x200f;" horiz-adv-x="45" d="M45 0h-45v1583h-176l86 -86l-31 -31l-137 138l137 137l31 -31l-82 -82h217v-1628z" />
<glyph unicode="&#x2010;" horiz-adv-x="946" d="M835 452h-730v83h730v-83z" />
<glyph unicode="&#x2011;" horiz-adv-x="946" d="M835 452h-730v83h730v-83z" />
<glyph unicode="&#x2012;" horiz-adv-x="946" d="M835 452h-730v83h730v-83z" />
<glyph unicode="&#x2013;" d="M1036 618h-1048v61h1048v-61z" />
<glyph unicode="&#x2014;" horiz-adv-x="2048" d="M2060 618h-2072v61h2072v-61z" />
<glyph unicode="&#x2018;" horiz-adv-x="491" d="M467 1486q-89 -59 -154 -145q-76 -101 -76 -193q0 -55 32 -98q39 47 90 47q102 0 102 -100q0 -59 -48 -92q-43 -30 -104 -30q-82 0 -133 50.5t-51 132.5q0 141 108 283q97 127 234 200v-55z" />
<glyph unicode="&#x2019;" horiz-adv-x="491" d="M444 1353q0 -143 -107 -281q-91 -118 -232 -200v56q228 162 228 338q0 62 -33 101q-33 -49 -95 -49q-41 0 -69.5 28t-28.5 69q0 58 49 93q43 31 104 31q86 0 135 -50t49 -136z" />
<glyph unicode="&#x201a;" horiz-adv-x="491" d="M458 164q0 -141 -108 -280q-92 -119 -231 -200v56q228 162 228 337q0 61 -33 100q-32 -48 -95 -48q-41 0 -69.5 28t-28.5 69q0 58 49 93q44 32 104 32q86 0 135 -50.5t49 -136.5z" />
<glyph unicode="&#x201c;" horiz-adv-x="650" d="M572 1146q-13 -6 -41 -26q-52 -51 -52 -95q82 -22 82 -112q0 -45 -31.5 -78t-76.5 -33q-52 0 -84 42q-29 38 -29 92q0 201 203 359q0 -84 1 -93q4 -40 28 -56zM302 1146q-13 -6 -41 -26q-52 -51 -52 -95q82 -22 82 -112q0 -45 -31.5 -78t-76.5 -33q-52 0 -84 42 q-29 38 -29 92q0 201 203 359q0 -84 1 -93q4 -40 28 -56z" />
<glyph unicode="&#x201d;" horiz-adv-x="650" d="M580 1151q0 -201 -203 -359q0 84 -1 93q-4 40 -28 56q13 6 41 26q52 51 52 95q-82 22 -82 112q0 46 31 78.5t77 32.5q53 0 85 -41q28 -38 28 -93zM310 1151q0 -201 -203 -359q0 84 -1 93q-4 40 -28 56q13 6 41 26q52 51 52 95q-82 22 -82 112q0 46 31 78.5t77 32.5 q53 0 85 -41q28 -38 28 -93z" />
<glyph unicode="&#x201e;" horiz-adv-x="939" d="M864 163q0 -144 -105 -281q-89 -115 -231 -200v56q226 160 226 343q0 50 -31 96q-34 -48 -91 -48q-42 0 -71.5 28.5t-29.5 70.5q0 60 48 93q42 29 104 29q181 0 181 -187zM414 167q0 -280 -336 -485v58q91 55 154 142q71 97 71 193q0 54 -29 102q-34 -48 -92 -48 q-44 0 -72.5 28t-28.5 72q0 59 49 92q42 29 104 29q82 0 131 -50.5t49 -132.5z" />
<glyph unicode="&#x2020;" horiz-adv-x="896" d="M808 844h-45q-5 63 -118 94l-171 47q20 -162 95 -334q-79 -313 -95 -978h-53q-18 626 -95 978q72 164 95 334l-134 -36q-73 -20 -98 -32q-55 -27 -60 -73h-42v338h42q8 -69 149 -105l143 -36l-34 192q-20 111 -28 134q-28 78 -93 82v45h360v-45q-62 0 -91 -77 q-10 -27 -27 -128l-34 -203l121 30q161 40 168 111h45v-338z" />
<glyph unicode="&#x2021;" horiz-adv-x="896" d="M817 -21h-49q-6 51 -100 90l-190 54l49 -251q16 -82 26 -102q24 -49 82 -50v-46h-369v46q55 1 81 51q14 27 27 101l46 257l-196 -62q-85 -27 -90 -88h-51v346h51q7 -46 54 -72q18 -10 89 -32l143 -44q-20 150 -98 410q47 137 98 399l-170 -48q-119 -34 -123 -94h-44v341 h44q10 -43 41 -64q9 -5 74 -31l178 -49l-55 281q-12 62 -26 85q-23 38 -73 41v45h363v-45q-64 -2 -91 -71q-8 -21 -28 -125l-40 -211l105 27q91 23 115 34q68 30 71 83h56v-341h-56q-5 33 -27 53q-17 16 -99 41l-157 48q46 -250 97 -399q-64 -209 -97 -410l157 50l13 6 l36 12q77 26 84 80h49v-346z" />
<glyph unicode="&#x2022;" horiz-adv-x="576" d="M517 768q0 -96 -66.5 -162.5t-162.5 -66.5t-162.5 66.5t-66.5 162.5q0 97 66 163.5t163 66.5q98 0 163.5 -66t65.5 -164z" />
<glyph unicode="&#x2026;" horiz-adv-x="2048" d="M1827 219q0 -49 -35.5 -84t-84.5 -35q-50 0 -85.5 34.5t-35.5 84.5q0 48 35 83t83 35q52 0 87.5 -33.5t35.5 -84.5zM1144 219q0 -49 -35.5 -84t-84.5 -35q-50 0 -85 34.5t-35 84.5q0 49 34.5 83.5t83.5 34.5q50 0 86 -34t36 -84zM462 219q0 -50 -35.5 -84.5t-85.5 -34.5 q-49 0 -84.5 35t-35.5 84q0 48 35 83t83 35q52 0 87.5 -33.5t35.5 -84.5z" />
<glyph unicode="&#x202f;" horiz-adv-x="452" />
<glyph unicode="&#x2030;" horiz-adv-x="2069" d="M1990 494q0 -150 -90 -263q-97 -122 -243 -122q-124 0 -200 88q-73 85 -73 210q0 153 89 268q97 124 246 124q125 0 200 -92q71 -86 71 -213zM1314 494q0 -152 -89 -264q-96 -121 -244 -121q-123 0 -199 89q-73 84 -73 209q0 152 89 267q97 125 245 125q125 0 200 -92 q71 -86 71 -213zM686 1118q0 -150 -93 -263q-98 -119 -245 -119q-123 0 -198 90q-69 84 -69 210q0 147 91 263q98 125 242 125q127 0 202 -91q70 -86 70 -215zM1183 1464l-887 -1396h-86l888 1396h85zM1873 394q0 116 -50 216q-61 123 -166 123q-80 0 -120 -68 q-33 -56 -33 -141q0 -115 48 -217q61 -129 162 -129q159 0 159 216zM1198 394q0 116 -50 216q-61 123 -166 123q-79 0 -120 -68q-34 -56 -34 -141q0 -116 48 -218q60 -128 163 -128q159 0 159 216zM567 1026q0 112 -50 211q-61 121 -163 121q-155 0 -155 -215 q0 -119 49 -218q62 -125 168 -125q151 0 151 226z" />
<glyph unicode="&#x2039;" horiz-adv-x="512" d="M457 966l-228 -382l222 -380v-75l-383 455l389 457v-75z" />
<glyph unicode="&#x203a;" horiz-adv-x="512" d="M457 586l-393 -457v75l231 382l-222 381v77z" />
<glyph unicode="&#x205f;" horiz-adv-x="565" />
<glyph unicode="&#x2122;" horiz-adv-x="1856" d="M1833 598h-345v33q80 0 101 31q17 25 17 110v515l-310 -689h-18l-322 676v-508q0 -90 15 -110q19 -25 103 -25v-33h-287v33q82 0 101 30q13 20 13 111v460q0 84 -16 107q-21 30 -98 36v33h237l295 -636l287 636h227v-33q-75 -4 -94.5 -27.5t-19.5 -101.5v-474 q0 -84 16 -108q21 -31 98 -33v-33zM716 1218h-26q-8 83 -41 111.5t-117 28.5h-92v-566q0 -96 13 -121q22 -41 104 -40v-33h-357v33q82 -1 104 40q13 25 13 121v566h-92q-80 0 -114 -30.5t-44 -109.5h-26v190h675v-190z" />
<glyph unicode="&#x2421;" horiz-adv-x="1600" d="M1520 129h-366v586h78v-517h288v-69zM1080 129h-438v586h424v-69h-346v-179h324v-69h-324v-200h360v-69zM572 425q0 -242 -179 -286q-41 -10 -95 -10h-211v586h202q69 0 104 -8q112 -26 156 -142q23 -61 23 -140zM492 427q0 167 -104 207q-31 12 -100 12h-124v-448h126 q102 0 143 41q59 59 59 188z" />
<glyph unicode="&#xe000;" horiz-adv-x="1045" d="M0 1045h1045v-1045h-1045v1045z" />
<glyph unicode="&#xe818;" horiz-adv-x="621" d="M545 2172q-34 -11 -212 -94q-156 -73 -201 -73h-100q8 4 212 97q153 70 200 70h101zM583 2061q-34 -11 -212 -94q-156 -73 -201 -73h-100q8 4 212 97q153 70 200 70h101zM621 1816q-47 -11 -183 -81q-126 -65 -148 -65q-42 0 -94 77q-21 31 -56 72h59q27 0 61.5 -32 t44.5 -32q48 0 48 39q0 67 -64 105h61q29 0 49 -31q36 -54 48 -54q45 0 45 48q0 52 -52 80l51 4q43 3 72 -47q38 -68 58 -83z" />
<glyph unicode="&#xe820;" horiz-adv-x="583" d="M583 1462q-34 -11 -212 -94q-156 -73 -201 -73h-100q8 4 212 97q153 70 200 70h101z" />
<glyph unicode="&#xe821;" horiz-adv-x="511" d="M511 1482q0 -45 -74 -78l58 -52h-44q-33 0 -70 26q-11 -4 -99 -49q-67 -34 -120 -34h-92q108 41 257 123l-26 24q-36 33 -36 66q0 37 38 67l120 95q0 -25 44 -94t44 -94zM442 1492q0 56 -56 56q-51 0 -51 -41q0 -15 54 -59q53 31 53 44z" />
<glyph unicode="&#xe822;" horiz-adv-x="326" d="M326 1412q0 -50 -38.5 -83.5t-89.5 -33.5q-48 0 -86 29q-42 31 -42 78q0 50 64 116l84 86q0 -40 54 -99t54 -93zM260 1404q0 25 -66 94l-38 -42q-20 -22 -20 -44q0 -56 60 -56q21 0 42.5 14t21.5 34z" />
<glyph unicode="&#xe823;" horiz-adv-x="583" d="M545 1573q-34 -11 -212 -94q-156 -73 -201 -73h-100q8 4 212 97q153 70 200 70h101zM583 1462q-34 -11 -212 -94q-156 -73 -201 -73h-100q8 4 212 97q153 70 200 70h101z" />
<glyph unicode="&#xe824;" horiz-adv-x="576" d="M576 1482q0 -45 -74 -78l58 -52h-44q-33 0 -69 25q-147 -82 -213 -82v83q-46 -20 -98 -20h-66q48 20 180 86l54 29v-96q32 12 90 40l-28 25q-36 32 -36 66q0 37 38 67l120 95q0 -25 44 -94t44 -94zM507 1492q0 56 -56 56q-51 0 -51 -41q0 -15 54 -59q53 31 53 44z" />
<glyph unicode="&#xe825;" horiz-adv-x="551" d="M551 1441q-47 -11 -183 -81q-126 -65 -148 -65q-42 0 -94 77q-21 31 -56 72h59q27 0 61.5 -32t44.5 -32q48 0 48 39q0 67 -64 105h61q29 0 49 -31q36 -54 48 -54q45 0 45 48q0 52 -52 80l51 4q43 3 72 -47q38 -68 58 -83z" />
<glyph unicode="&#xe826;" horiz-adv-x="583" d="M583 -230q-34 -11 -212 -94q-156 -73 -201 -73h-100q8 4 212 97q153 70 200 70h101z" />
<glyph unicode="&#xe827;" horiz-adv-x="583" d="M545 -230q-34 -11 -212 -94q-156 -73 -201 -73h-100q8 4 212 97q153 70 200 70h101zM583 -341q-34 -11 -212 -94q-156 -73 -201 -73h-100q8 4 212 97q153 70 200 70h101z" />
<glyph unicode="&#xe828;" horiz-adv-x="621" d="M583 1686q-34 -11 -212 -94q-156 -73 -201 -73h-100q8 4 212 97q153 70 200 70h101zM621 1441q-47 -11 -183 -81q-126 -65 -148 -65q-42 0 -94 77q-21 31 -56 72h59q27 0 61.5 -32t44.5 -32q48 0 48 39q0 67 -64 105h61q29 0 49 -31q36 -54 48 -54q45 0 45 48 q0 52 -52 80l51 4q43 3 72 -47q38 -68 58 -83z" />
<glyph unicode="&#xe829;" horiz-adv-x="621" d="M621 1441q-47 -11 -183 -81q-126 -65 -148 -65q-42 0 -94 77q-21 31 -56 72h59q27 0 61.5 -32t44.5 -32q48 0 48 39q0 67 -64 105h61q29 0 49 -31q36 -54 48 -54q45 0 45 48q0 50 -52 78q-13 5 -45 31q-11 -4 -99 -49q-67 -34 -120 -34h-92q108 41 257 123l-26 24 q-36 33 -36 66q0 37 38 67l120 95q0 -25 44 -94t44 -94q0 -45 -74 -78l58 -52q30 -2 56 -51q33 -61 56 -78zM456 1710q0 56 -56 56q-51 0 -51 -41q0 -15 54 -59q53 31 53 44z" />
<glyph unicode="&#xe82a;" horiz-adv-x="621" d="M545 1797q-34 -11 -212 -94q-156 -73 -201 -73h-100q8 4 212 97q153 70 200 70h101zM583 1686q-34 -11 -212 -94q-156 -73 -201 -73h-100q8 4 212 97q153 70 200 70h101zM621 1441q-47 -11 -183 -81q-126 -65 -148 -65q-42 0 -94 77q-21 31 -56 72h59q27 0 61.5 -32 t44.5 -32q48 0 48 39q0 67 -64 105h61q29 0 49 -31q36 -54 48 -54q45 0 45 48q0 52 -52 80l51 4q43 3 72 -47q38 -68 58 -83z" />
<glyph unicode="&#xe82b;" horiz-adv-x="621" d="M621 1441q-47 -11 -183 -81q-126 -65 -148 -65q-42 0 -94 77q-21 31 -56 72h59q27 0 61.5 -32t44.5 -32q48 0 48 39q0 67 -64 105h61q29 0 49 -31q36 -54 48 -54q45 0 45 48q0 50 -52 78q-12 5 -44 30q-147 -82 -213 -82v83q-46 -20 -98 -20h-66q48 20 180 86l54 29v-96 q32 12 90 40l-28 25q-36 32 -36 66q0 37 38 67l120 95q0 -25 44 -94t44 -94q0 -45 -74 -78l58 -52q30 -2 56 -51q33 -61 56 -78zM456 1710q0 56 -56 56q-51 0 -51 -41q0 -15 54 -59q53 31 53 44z" />
<glyph unicode="&#xe82d;" horiz-adv-x="678" d="M551 1651q-47 -11 -183 -81q-126 -65 -148 -65q-42 0 -94 77q-21 31 -56 72h59q27 0 61.5 -32t44.5 -32q48 0 48 39q0 67 -64 105h61q29 0 49 -31q36 -54 48 -54q45 0 45 48q0 52 -52 80l51 4q43 3 72 -47q38 -68 58 -83zM640 1573q-34 -11 -212 -94q-156 -73 -201 -73 h-100q8 4 212 97q153 70 200 70h101zM678 1462q-34 -11 -212 -94q-156 -73 -201 -73h-100q8 4 212 97q153 70 200 70h101z" />
<glyph unicode="&#xfd3e;" horiz-adv-x="576" d="M95 365q0 486 305 833q46 53 65 72q53 55 73 57l17 -21q-22 -62 -97 -201q-71 -132 -98 -215q-67 -204 -67 -528q0 -274 67 -495q44 -143 190 -457l-15 -19q-30 5 -135 122q-148 166 -229 398q-76 220 -76 454z" />
<glyph unicode="&#xfd3f;" horiz-adv-x="576" d="M507 370q0 -225 -66 -436q-72 -229 -206 -389q-46 -56 -71 -82q-59 -62 -82 -63q-14 6 -14 21q0 12 37 77q134 237 166 424q44 259 44 483q0 292 -53 468q-27 89 -100 229q-76 146 -98 212l18 16q197 -155 315 -433q110 -262 110 -527z" />
<glyph unicode="&#xfeff;" horiz-adv-x="0" />
</font>
</defs>
</svg>
